<?xml version="1.0" encoding="UTF-8"?>
<svg id="Layer_2" data-name="Layer 2" xmlns="http://www.w3.org/2000/svg" viewBox="0 0 30.06 50">
  <g id="Layer_1-2" data-name="Layer 1">
    <g>
      <rect width="30.06" height="50" fill="none"/>
      <g>
        <path d="m12.43,40.18c-8.36,0-12.43-3.81-12.43-8.66,0-2.07.24-4.71.93-7.85l5.17,1.19c-.41,1.7-1.15,4.97-1.55,7.9l-.83-2.43c2.62,1.74,6.08,2.96,9.3,2.93,4.85,0,10.87-1.3,13.45-2.36l-.39,2.26c-.98-1.14-1.84-3.45-1.84-9.24.07-5.79.13-10.21.33-14.1l5.39.87c-.31,3.41-.5,8.52-.5,12.28,0,6.87.29,8.99.6,12.82-3.93,2.21-12.36,4.39-17.63,4.39" fill="#1a171b"/>
        <path d="m11.33,23.01c2.22,0,3.64-.11,5.12-.46l-.3,1.25c-.16-.49-.42-1.19-.54-1.87-.62-.28-2.59-.9-4.04-1.22l.4-3.66c1.8-.38,3.64-.92,5.48-1.79l.97,2.21c-1.04.65-2.44,1.01-4.84,1.01l-.05.62c3.52.61,4.07,1.27,4.31,2.83.13.84.23,1.68.32,2.5-1.53.84-4.09,1.28-7.07,1.28l.24-2.72Z" fill="#1a171b"/>
      </g>
    </g>
  </g>
</svg>