<?xml version="1.0" encoding="UTF-8"?>
<svg id="Layer_2" data-name="Layer 2" xmlns="http://www.w3.org/2000/svg" viewBox="0 0 26.25 50">
  <g id="Layer_1-2" data-name="Layer 1">
    <g>
      <rect width="26.25" height="50" fill="none"/>
      <g>
        <path d="m8.23,25.38l-3.71-2.56-.29-11.11c1.85-.44,4.56-.91,5.83-.91,6.09,0,9.22,3.54,9.22,7.98,0,2.68-.98,5.03-2.68,6.98-3.44,3.94-9.95,6.63-16.61,6.63l.62-7.39c3.35,0,6.19-.62,6.88-.96l.16.68c3.43-.57,7.06-4.2,8.01-7.44l.58,2.24c-1.56-1.67-3.74-3.11-6.43-3.11-.58,0-1.71.04-2.35.14l1-2.28c.4,2.18.97,7.01,1,10.67l-1.22.44Z" fill="#3a2780"/>
        <path d="m20.75,26.55l-2.2,1.61c1.17,1.81,4.65,4.22,7.07,4.22l.62-7.39c-1.86,0-4.47-1.01-5.47-2.14l-4.86,1.5c.27,4.17,1.82,9.25,2.8,10.59l1.06-4.01c-1.15.69-3.41,1.92-6.03,1.92-2.25,0-4.34-1.74-4.23-4.38l-4.43,1.26c.22,6,4.58,9.48,8.21,9.48,4.51,0,7.6-1.98,9.56-3.82-.98-2.31-1.89-5.53-2.12-8.84" fill="#3a2780"/>
      </g>
    </g>
  </g>
</svg>