<?xml version="1.0" encoding="UTF-8"?>
<svg id="Layer_2" data-name="Layer 2" xmlns="http://www.w3.org/2000/svg" viewBox="0 0 21.1 50">
  <g id="Layer_1-2" data-name="Layer 1">
    <g>
      <rect width="21.1" height="50" fill="none"/>
      <path d="m.62,26.49c3.54,0,5.71-4.35,6.95-10.6,1.74.01,3.42-.13,4.95-.02,2.14.15,3.79.81,5.08,2.6,2.12,2.95,2.68,7.51,3.51,10.51-2.18,3.43-6.29,5.21-9.28,5.21-1.67,0-3.28-.62-4.57-1.5l-.22-6.33c1.91,1.29,3.18,1.38,5.2,1.38s3.59-.69,4.38-1.22l-.49,1.49c-.43-2.12-.68-4.08-1.22-5.25-.74-1.62-2.08-1.58-5.33-1.64l1.8-1.18c-2.1,8.46-6.63,13.94-11.38,13.94l.62-7.39Z" fill="#1a171b"/>
    </g>
  </g>
</svg>