<?xml version="1.0" encoding="UTF-8"?>
<svg id="Layer_2" data-name="Layer 2" xmlns="http://www.w3.org/2000/svg" viewBox="0 0 34.56 50">
  <g id="Layer_1-2" data-name="Layer 1">
    <g>
      <rect width="34.56" height="50" fill="none"/>
      <g>
        <path d="m24.9,31.96l-2.84.77c2.48-.88,6.05-5.01,6.51-7.34l.72,2.33c-1.81-1.45-5.22-2.64-8.94-3.05l1.55-1.14c-.16.72-.34,1.96-.31,3.05.07,2.48,1.29,4.29,3.31,5.37m2.02,2.89h-6.98c-1.76-1.39-3.2-4.86-3.2-7.54,0-3.77,2.27-6.46,6.25-8.32,6.35,1.14,9.64,3.72,9.6,7.96-.02,2.69-2.16,6.05-5.68,7.9" fill="#1a171b"/>
        <path d="m22.57,35.42l2.94-3.31c1.24.26,5.94.46,9.04.46l-.62,7.39c-3.54,0-9.01-1.8-11.37-4.55" fill="#1a171b"/>
        <path d="m26.41,11.33l-2.33,5.23c-1.16-.95-3.5-2.17-5.28-2.35l2.1-5.24c2.17.23,4.61,1.51,5.51,2.37" fill="#1a171b"/>
        <path d="m13.53,41.04c-9.96,0-13.53-3.56-13.53-8.42,0-2.07.24-4.71.93-7.85l5.17,1.19c-.41,1.7-1.15,4.97-1.55,7.9l-1.28-2.4c1.45,1.26,6.35,2.66,10.84,2.66,3.5,0,7.33-1.29,8.67-2.38l4.03,2.7c-2.58,3.41-8.76,6.6-13.28,6.6" fill="#1a171b"/>
      </g>
    </g>
  </g>
</svg>