<?xml version="1.0" encoding="UTF-8"?>
<svg id="Layer_2" data-name="Layer 2" xmlns="http://www.w3.org/2000/svg" viewBox="0 0 22.5 50">
  <g id="Layer_1-2" data-name="Layer 1">
    <g>
      <rect width="22.5" height="50" fill="none"/>
      <path d="m10.75,45.05c-8.29,0-10.75-3.92-10.75-10.27,0-2.89.49-7.26.96-11.64l5.82.87c-.62,3.78-.95,7.12-.95,9.5,0,3.62.93,5.27,5.79,5.27,2.57,0,5.13-.78,7.09-2.38l-.06,2.37c-1.6-1.71-3.25-8.28-3.25-14.23s.21-15.62.62-19.6l5.68.67c-.72,7.65-1.12,14.79-1.03,18.93.16,6.56.62,10.93,1.81,15.89-3.15,2.84-7.41,4.62-11.75,4.62" fill="#1a171b"/>
    </g>
  </g>
</svg>