<?xml version="1.0" encoding="UTF-8"?>
<svg id="Layer_2" data-name="Layer 2" xmlns="http://www.w3.org/2000/svg" viewBox="0 0 15.03 50">
  <g id="Layer_1-2" data-name="Layer 1">
    <g>
      <rect width="15.03" height="50" fill="none"/>
      <g>
        <path d="m12.55,18.96l-1.41-2.48c1.14.83,2.63,1.4,3.89,1.4l-.62,7.39c-2.81,0-5.06-1.66-5.06-8.11h-.65c-.71,6.59-6,8.11-8.7,8.11l.62-7.39c3.75,0,6.45-2.71,6.97-7.2l5.27.66-.31,7.63Z" fill="#1a171b"/>
        <path d="m1.76,34.19L.08,29.66c1.42-.87,4.25-1.47,6.15-1.47s4.71.41,6.74.92l-.7,4.91c-1.64-.4-3.73-.71-5.48-.76-1.96-.06-3.85.35-5.04.94" fill="#1a171b"/>
        <path d="m9.87,34.87l-1.98,4.45c-.99-.81-2.98-1.85-4.5-2l1.79-4.47c1.85.19,3.93,1.28,4.69,2.02" fill="#1a171b"/>
      </g>
    </g>
  </g>
</svg>