<?xml version="1.0" encoding="UTF-8"?>
<svg id="Layer_2" data-name="Layer 2" xmlns="http://www.w3.org/2000/svg" viewBox="0 0 22.16 50">
  <g id="Layer_1-2" data-name="Layer 1">
    <g>
      <rect width="22.16" height="50" fill="none"/>
      <g>
        <path d="m2.75,25.21l.78-8.98c4.55-.41,10.23-2.92,14.88-6.64l2.48,5.63c-4.39,3.1-8.74,4.99-11.79,4.99h-1.4l-.05.75c4.3.95,7.12,2.07,8.15,4.93.99,2.75,1.89,6.07,2.89,8.74l-1.86-1.7c1.95.82,4.03,1.19,5.32,1.19l-.62,7.39c-3.41,0-6.86-3.39-6.86-8.11h-.73c-.38,7-6.58,8.11-13.95,8.11l.62-7.39c8.99,0,11.42-.91,11.57-4.12l.16,2.74c-.72-1.37-1.46-3.39-2.17-5.45-2.14-.86-5.12-1.79-7.43-2.08" fill="#1a171b"/>
        <path d="m11.85,8.49l1.1,2.37c-1.39,1.25-5.73,3.18-9.31,3.54l.23-2.75c2.3-.26,6.21-1.7,7.99-3.16" fill="#1a171b"/>
      </g>
    </g>
  </g>
</svg>