<?xml version="1.0" encoding="UTF-8"?>
<svg id="Layer_2" data-name="Layer 2" xmlns="http://www.w3.org/2000/svg" viewBox="0 0 20.89 50">
  <g id="Layer_1-2" data-name="Layer 1">
    <g>
      <rect width="20.89" height="50" fill="none"/>
      <g>
        <path d="m.62,34.13c8.52,0,11.79-.13,14.56-1.25l-1.37,2.66c-1.5-1.25-1.7-5.51-1.96-7.55-1.81-.96-6.36-2.49-9.1-2.8l.79-8.98c4.55-.41,10.23-2.92,14.88-6.64l2.48,5.63c-4.39,3.1-8.74,4.99-11.79,4.99h-1.4l-.05.76c7.15,1.55,9.06,3.61,9.53,8.72.22,2.36.27,5.87.6,8.51-4.92,2.72-13.27,3.34-17.79,3.34l.62-7.39Z" fill="#1a171b"/>
        <path d="m11.85,8.48l1.1,2.37c-1.39,1.25-5.73,3.18-9.31,3.54l.23-2.75c2.3-.26,6.21-1.7,7.99-3.16" fill="#1a171b"/>
      </g>
    </g>
  </g>
</svg>