<?xml version="1.0" encoding="UTF-8"?>
<svg id="Layer_2" data-name="Layer 2" xmlns="http://www.w3.org/2000/svg" viewBox="0 0 27.42 50">
  <g id="Layer_1-2" data-name="Layer 1">
    <g>
      <rect width="27.42" height="50" fill="none"/>
      <g>
        <path d="m0,15.74c.43-3.39,1.22-4.71,3.77-5.09.91.09,3.02.34,4.34.34,1.18,0,2.78-.11,4.09-.34l.39,3.38c-1.76.32-3.1.5-4.94.46-1.32-.03-3.59-.38-5.19-.91l1.2-1.01c-.35.98-.53,2.34-.66,3.69l-3-.51Z" fill="#3a2780"/>
        <path d="m11.82,32.73c2.42,0,3.71-1.35,4.68-7,.84-4.85,1.47-11.61,1.52-15.45l7.12,1.07c.01,3.41-.14,8.19-.45,12.08-.3,3.7-.62,7.71-1.02,10.61l-.7-2.27c1.12.41,3.17.57,4.47.57l-.62,7.39c-4.32,0-6.55-2.41-6.56-7.4,0-.67.07-1.83.16-2.59l.78-6.65-.75-.1-1.17,8.71c-.59,4.74-4.23,8.02-8.06,8.02h-4.34l-1.29-6.99h6.25Z" fill="#3a2780"/>
        <path d="m9.2,16.35c2.05,5.21,3.23,9.12,3.72,13.87l-4.02,3.53c-.51-5.77-2.49-11.23-4.5-15.05l4.8-2.34Z" fill="#3a2780"/>
      </g>
    </g>
  </g>
</svg>