<?xml version="1.0" encoding="UTF-8"?>
<svg id="Layer_2" data-name="Layer 2" xmlns="http://www.w3.org/2000/svg" viewBox="0 0 20.68 50">
  <g id="Layer_1-2" data-name="Layer 1">
    <g>
      <rect width="20.68" height="50" fill="none"/>
      <path d="m14.1,28.8l-3.05,4.41c-.79.14-2.03.25-3.33.25-4.6,0-7.73-2.53-7.73-6.98,0-1.64.57-5.09,1.14-7,.95.15,2.12.25,2.94.25,3.51,0,6.43-1.86,7.3-6.77l7.57,1.83c-.93,5.22-1.11,9.59-1.19,14.12.52.45,1.73.72,2.92.72l-.62,7.39c-4.9,0-7.14-2.22-7.14-7.08,0-2.79.41-7.46.93-10.76l-.73-.12c-.63,4.62-4.15,5.88-8.16,5.88-.03.39-.05.75-.05,1.21,0,1.19,1.88,1.76,4.2,1.82,1.13.03,3.96-.1,4.68-.22l.31,1.04Z" fill="#1a171b"/>
    </g>
  </g>
</svg>