<?xml version="1.0" encoding="UTF-8"?>
<svg id="Layer_2" data-name="Layer 2" xmlns="http://www.w3.org/2000/svg" viewBox="0 0 24.64 50">
  <g id="Layer_1-2" data-name="Layer 1">
    <g>
      <rect width="24.64" height="50" fill="none"/>
      <g>
        <path d="m4.9,17.89c.1,5.03.15,8.2.36,11.15.19,2.58.52,5.86.88,8.72l-5.5.84c-.6-5.18-.63-11.48-.63-14.35,0-4.55.41-8.58,2.1-10.11,1.89-.62,2.85-1.02,4.05-1.55.96,1.22,2.08,2.43,3.03,3.65l-.22,1.26c-1.39.58-4.5,1.58-5.59,1.55l1.52-1.17Z" fill="#1a171b"/>
        <path d="m9.27,12.4c3.25,0,7.12-.44,10.33-1.01.78,4.18,1.51,7.17,2.49,9.34.81.37,1.56.5,2.55.5l-.62,7.39c-3,0-4.64-2.15-5.72-4.81-1.11-2.77-1.86-5.38-2.34-8.97l1.45,1.71c-1.78.8-4.96.99-7.52.99l2.69-2.5c-.38,1.04-1.47,4.14-1.47,5.25,0,1.8.25,2.82,3.03,2.82.94,0,4.02-.15,5.31-.49l-1.63,6.01c-.73.16-2.97.42-4.61.42-3.72,0-6.42-2.59-6.54-6.42-.12-3.68,1.19-7.15,2.61-10.23" fill="#1a171b"/>
      </g>
    </g>
  </g>
</svg>