<?xml version="1.0" encoding="UTF-8"?>
<svg id="Layer_2" data-name="Layer 2" xmlns="http://www.w3.org/2000/svg" viewBox="0 0 40.48 50">
  <g id="Layer_1-2" data-name="Layer 1">
    <g>
      <rect width="40.48" height="50" fill="none"/>
      <g>
        <path d="m10.75,46.36c-8.29,0-10.75-3.92-10.75-10.27,0-2.89.49-7.26.96-11.64l5.82.87c-.62,3.78-.95,7.12-.95,9.5,0,3.62.93,5.27,5.79,5.27,2.57,0,5.13-.78,7.09-2.38l-.06,2.37c-1.6-1.71-3.25-8.28-3.25-14.23s.21-15.62.62-19.6l5.68.67c-.72,7.65-1.12,14.8-1.02,18.93.16,6.56.62,10.93,1.81,15.89-3.15,2.84-7.41,4.62-11.75,4.62" fill="#3a2780"/>
        <path d="m26.63,28.2c3.47-.1,6.26-.49,8.14-1.25l-1.37,2.66c-1.5-1.25-1.7-5.51-1.96-7.55-1.81-.95-6.36-2.49-9.1-2.8l.79-8.98c4.55-.41,10.23-2.92,14.88-6.64l2.48,5.63c-4.39,3.1-8.74,4.99-11.79,4.99h-1.4s-.05.75-.05.75c7.15,1.55,9.06,3.61,9.53,8.72.22,2.36.28,5.87.6,8.51-.99.55-2.15,1.04-3.4,1.47-1.89.65-5.34,1.87-7.97,1.87l.62-7.39Z" fill="#3a2780"/>
        <path d="m26.63,28.2l-.62,7.39c-2.69,0-5.64-.96-6.72-2.51-.41-2.15-.41-4.43-.82-6.59,3.09,1.24,4.57,1.7,8.16,1.7" fill="#3a2780"/>
      </g>
    </g>
  </g>
</svg>