<?xml version="1.0" encoding="UTF-8"?>
<svg id="Layer_2" data-name="Layer 2" xmlns="http://www.w3.org/2000/svg" viewBox="0 0 31.19 50">
  <g id="Layer_1-2" data-name="Layer 1">
    <g>
      <rect width="31.19" height="50" fill="none"/>
      <path d="m2.64,36.32c6.51-1.22,9.41-3.36,13.63-8.08,2.04-2.28,3.59-5.62,5.19-10.44l-1.8,1.18c3.24.06,4.59.01,5.32,1.64.53,1.17.78,3.13,1.22,5.25l.49-1.49c-.79.53-2.3,1.22-4.38,1.22s-3.12-.25-5.03-1.54l.05,6.49c1.29.88,2.9,1.5,4.57,1.5,2.99,0,7.1-1.78,9.28-5.21-.84-3-1.39-7.55-3.51-10.51-1.28-1.79-2.94-2.45-5.08-2.6-1.53-.11-3.21.03-4.95.02-1.24,6.26-4.44,10.55-8.26,14.03-3.32,1.2-6.36,1.85-9.39,2.65l2.64,5.89Z" fill="#3a2780"/>
    </g>
  </g>
</svg>