<?xml version="1.0" encoding="UTF-8"?>
<svg id="Layer_2" data-name="Layer 2" xmlns="http://www.w3.org/2000/svg" viewBox="0 0 26.4 50">
  <g id="Layer_1-2" data-name="Layer 1">
    <g>
      <rect width="26.4" height="50" fill="none"/>
      <g>
        <path d="m14.31,24.31c1.41-2.38,2.1-4.38,2.72-7.08.47-2.04.8-4.39.91-6.48l5.54,1.2c-.12,2.12-.63,4.52-1.61,7.52-.86,2.65-2.25,4.74-3.53,6l-4.03-1.16Z" fill="#3a2780"/>
        <path d="m14.7,26.24c-2.24-2.19-5.69-4.92-8.69-6.93l3.41-3.97c3.45,2.33,6.42,4.58,9.07,7.74l-3.79,3.16Z" fill="#3a2780"/>
        <path d="m8.93,33.5c5.1-.34,11.18-1.38,14.25-2.6l-1.04,2.52c-.31-2.06-3.41-6.24-6.41-8.58l3.06-4.14c5.74,5.14,7.61,8.49,7.61,14.23-2.54,2.9-8.72,4.73-15.93,5.17l-1.54-6.61Z" fill="#3a2780"/>
        <path d="m17.06,25.03c-1.51,3.7-6.17,10.31-10.21,14.12l-3.67-3.57c3.46-2.87,8.64-9.73,10.24-13.72l3.64,3.17Z" fill="#3a2780"/>
        <path d="m0,14.99c.43-3.39,1.22-4.71,3.77-5.09.91.09,3.02.34,4.34.34,1.18,0,2.78-.11,4.09-.34l.39,3.38c-1.76.32-3.1.5-4.94.46-1.32-.03-3.59-.38-5.19-.91l1.2-1.01c-.35.98-.53,2.34-.66,3.69l-3-.51Z" fill="#3a2780"/>
      </g>
    </g>
  </g>
</svg>