<?xml version="1.0" encoding="UTF-8"?>
<svg id="Layer_2" data-name="Layer 2" xmlns="http://www.w3.org/2000/svg" viewBox="0 0 50.47 50">
  <g id="Layer_1-2" data-name="Layer 1">
    <g>
      <rect width="50.47" height="50" fill="none"/>
      <g>
        <path d="m43.04,11.37l5.27.66-.31,7.63-1.57-2.32c1.14.83,2.66,1.24,4.05,1.24l-.62,7.37c-2.81,0-5.06-1.66-5.06-8.11h-.65c-.27,3.12-3.38,5.24-7.32,6.63-4.87,1.72-10.36,2.32-14.04,2.32-8.41,0-17.06-1.16-22.78-4.36l2.43-5.99c6.66,2.59,14.19,3.27,20.76,3.42,2.11.05,6.29-.02,10.74-1.12,4.47-1.11,8.55-3.25,9.1-7.37" fill="#3a2780"/>
        <path d="m30.79,33.41l-2.33,5.22c-1.16-.95-3.5-2.17-5.28-2.35l2.1-5.24c2.17.23,4.61,1.51,5.51,2.37" fill="#3a2780"/>
      </g>
    </g>
  </g>
</svg>