<?xml version="1.0" encoding="UTF-8"?>
<svg id="Layer_2" data-name="Layer 2" xmlns="http://www.w3.org/2000/svg" viewBox="0 0 24.79 50">
  <g id="Layer_1-2" data-name="Layer 1">
    <g>
      <rect width="24.79" height="50" fill="none"/>
      <path d="m8.46,21.19c-.5,4.76-4.33,8.31-8.46,8.31l.62-7.39c4.14,0,6.14-3.88,6.95-8.9,1.81.46,4.12.93,5.93,1.39-.28,7.12-.49,9.63-1.3,15.74l.9.18c.71-2.12,1.39-4.04,2.37-6.15,1.07-2.31,2.9-3.74,5.66-3.74,1.01.76,2.05,1.47,3.67,1.47l-.62,7.39c-2.89,0-5.71-2.31-6.95-4.62l3.4-.65c-2.25,3.29-3.89,7.72-5.05,12.54l-8.13-1.47,1.58-13.92-.57-.2Z" fill="#3a2780"/>
    </g>
  </g>
</svg>