<?xml version="1.0" encoding="UTF-8"?>
<svg id="Layer_2" data-name="Layer 2" xmlns="http://www.w3.org/2000/svg" viewBox="0 0 27.63 50">
  <g id="Layer_1-2" data-name="Layer 1">
    <g>
      <rect width="27.63" height="50" fill="none"/>
      <g>
        <path d="m15.9,18.88l-2.33,5.23c-1.16-.95-3.5-2.17-5.28-2.35l2.1-5.24c2.17.23,4.61,1.51,5.51,2.37" fill="#1a171b"/>
        <path d="m10.91,37.34c5.84-.05,10.99-1.74,14.98-4.96-.57-2.22-1.73-7.57-2.29-12.66-.24-2.15-.4-6.05-.41-7.07l-5.92.6c.17,1.43.43,4.37,1,8.27.76,5.17,2.15,7.61,3.86,9.36l.57-2.33c-3.3,1.71-7.17,2.52-10.9,2.52-4.85,0-6.12-1.65-6.12-5.27,0-2.38.33-5.72.95-9.5l-5.82-.71c-.48,4.39-.8,8.59-.8,11.48,0,6.36,2.62,10.34,10.91,10.27" fill="#1a171b"/>
        <path d="m27.63,19.67l-.62,7.39c-2.62,0-5.18-2.18-6.24-3.22l-.48-5.95c2.14,1.11,4.01,1.78,7.34,1.78" fill="#1a171b"/>
      </g>
    </g>
  </g>
</svg>