<?xml version="1.0" encoding="UTF-8"?>
<svg id="Layer_2" data-name="Layer 2" xmlns="http://www.w3.org/2000/svg" viewBox="0 0 25.42 50">
  <g id="Layer_1-2" data-name="Layer 1">
    <g>
      <rect width="25.42" height="50" fill="none"/>
      <g>
        <path d="m20.92,26.16l-.17,4.57c-.22,6-4.78,8.88-8.41,8.88-4.51,0-7.6-1.78-9.56-3.62l2.74-8.86,4.8-.35c-.27,4.17-2.4,7.44-3.38,8.77l-1.06-4.01c1.55.67,3.99,1.77,7.19,1.77,1.61,0,3.34-1.48,3.26-3.44l-.24-5.9,4.86-1.51c1,1.12,2.61,2.14,4.48,2.14l-.62,7.39c-2.43,0-4.91-2.41-6.08-4.22l2.2-1.61Z" fill="#3a2780"/>
        <path d="m8.4,24.98l-3.71-2.56-.29-11.11c1.85-.44,4.46-.91,5.73-.91,6.09,0,9.32,3.54,9.32,7.98,0,2.68-.98,5.03-2.68,6.98-3.44,3.94-10.12,6.63-16.77,6.63l.62-7.39c3.35,0,6.35-.62,7.05-.96l.16.68c3.43-.57,7.06-4.2,8.01-7.44l.58,2.24c-1.56-1.67-3.74-3.11-6.43-3.11-.58,0-1.71.04-2.35.14l1-2.28c.4,2.18.97,7.01.99,10.67l-1.22.44Z" fill="#3a2780"/>
      </g>
    </g>
  </g>
</svg>