<?xml version="1.0" encoding="UTF-8"?>
<svg id="Layer_2" data-name="Layer 2" xmlns="http://www.w3.org/2000/svg" viewBox="0 0 34.52 50">
  <g id="Layer_1-2" data-name="Layer 1">
    <g>
      <rect width="34.52" height="50" fill="none"/>
      <g>
        <path d="m22.88,39.78l-2.31,1.4c.76-1.3,1.32-2.64,1.32-4.35s-.95-2.98-2.52-4.48c-1.83-1.74-4.31-3.53-7.34-4.44l3.39-4.61c2.97,1.21,4.82,2.78,6.86,4.45,3.07,2.52,4.51,4.97,4.52,8.63,0,3.69-1.56,6.16-3.82,8.97-2.46-1.28-7.06-2.85-10.04-3.64l.3-6.14c3.79.71,8.29,2.61,9.64,4.19" fill="#3a2780"/>
        <path d="m.62,36.54c1.41,0,2.92-.07,3.82-.46l1.25,1.47c3.45-1.51,6.79-4.89,7.79-8.13l.72,2.32c-2.23-1.71-5.87-2.79-8.94-3.05l1.55-1.14c-.13.71-.38,1.6-.31,3.05.09,1.82.66,4.05,3.31,5.37l-5.1,2.5c-1.91-1.55-3.06-4.6-3.06-7.54,0-3.15,2.22-6.16,6.24-7.92,4.25.63,9.38,2.71,9.38,7.72,0,7.68-8.53,13.21-17.28,13.21l.62-7.39Z" fill="#3a2780"/>
        <path d="m14.72,29.13c4.48.22,10.3.58,15.14-.76,1.72-.48,3.31-1.14,4.67-2.07-.72-3.66-1.24-7.77-1.64-12.12-.39-4.18-.96-5.05-2.04-6.51-1.56-2.09-5.3-3.05-8.33-3.04-2.06.89-3.7,2.33-4.42,4.77-.67,2.23-.71,6.98-1.16,9.76,1.73,1.27,4.5,2.27,9.42,2.27l3.34-4.79-.17-1.07c-4.12,0-5.69.12-9.79-1.22l1.85,3.44c.18-2.45.6-6.54,1.73-9.17l-1.8,1.03c.81.13,1.6.25,2.88.52,2.63.56,3.2.88,3.56,4.02.67,5.73,1.12,8.08,2.6,10.62l1.15-3.03c-.74.6-2.14,1.01-3.84,1.29-4.18.69-9.8.26-12.45.26l-.69,5.82Z" fill="#3a2780"/>
      </g>
    </g>
  </g>
</svg>