<?xml version="1.0" encoding="UTF-8"?>
<svg id="Layer_2" data-name="Layer 2" xmlns="http://www.w3.org/2000/svg" viewBox="0 0 57.82 50">
  <g id="Layer_1-2" data-name="Layer 1">
    <g>
      <rect width="57.82" height="50" fill="none"/>
      <g>
        <path d="m16.73,16.3c3.13-3.77,7.31-4.99,10.98-4.99,1.28-.01,2.58.13,3.87.45l.56,7.68c1.09.46,4.06.77,5.14.77l-.61,7.22c-6.42,0-8.24-4.37-8.82-10.05-5.34,0-7.24,1.75-8.4,3.63l-2.73-4.71Z" fill="#3a2780"/>
        <path d="m24.2,34.26l-2.31.91c.76-1.29,1.32-3.46,1.32-5.17s-.95-3.47-2.53-4.97c-1.83-1.74-4.31-3.2-7.34-4.11l3.39-4.61c2.97,1.21,4.82,2.45,6.86,4.12,3.07,2.52,4.6,5.47,4.6,9.13,0,3.69-1.72,7.49-3.98,10.3-2.46-1.28-6.98-2.85-9.96-3.64l.3-6.14c3.79.71,8.29,2.61,9.64,4.19" fill="#3a2780"/>
        <path d="m15.53,26.21c-2.23-1.71-5.87-2.79-8.94-3.05l1.55-1.14c-.13.71-.39,1.6-.31,3.05.09,1.82.66,4.05,3.31,5.37l-5.1,2.5c-1.91-1.55-3.06-4.6-3.06-7.54,0-3.15,2.22-6.16,6.24-7.92,4.25.63,9.38,2.71,9.38,7.72,0,8.11-9.24,13.21-18.6,13.21l.62-7.39c5.18,0,4.02,0,5.15-.46l1.25,1.47c3.45-1.51,6.79-4.89,7.79-8.14l.72,2.32Z" fill="#3a2780"/>
        <path d="m46.22,21.27l-1.21-2.88c.81,1.21,2.32,1.82,3.53,1.82l-.61,7.22c-3.38,0-4.56-2.99-4.56-7.93h-.72c0,5.46-1.64,7.93-5.98,7.93l.61-7.22c2.15,0,3.58-1.59,3.98-6.38h5.27l-.32,7.44Z" fill="#3a2780"/>
        <path d="m53.79,18.37l-.7,2.77c-1.01-.96-1.78-2.9-1.78-4.61,0-2.22.53-4.39,1.31-6.36l5.19,1.65c-.71,2.08-1.4,5.07-1.4,7.24,0,1.01.15,2.07.55,3.23-2.68,3.13-5.62,5.15-9.04,5.15l.61-7.22c2.3-.02,3.31-.47,5.25-1.84" fill="#3a2780"/>
      </g>
    </g>
  </g>
</svg>