<?xml version="1.0" encoding="UTF-8"?>
<svg id="Layer_2" data-name="Layer 2" xmlns="http://www.w3.org/2000/svg" viewBox="0 0 23.22 50">
  <g id="Layer_1-2" data-name="Layer 1">
    <g>
      <rect width="23.22" height="50" fill="none"/>
      <g>
        <path d="m11.13,23.88c1.41-2.38,2.1-4.38,2.72-7.08.47-2.04.8-4.39.91-6.48l5.54,1.2c-.13,2.12-.63,4.52-1.61,7.52-.86,2.65-2.25,4.74-3.53,6l-4.03-1.16Z" fill="#3a2780"/>
        <path d="m11.52,25.81c-2.72-2.66-7.23-6.12-10.54-8.11l2.75-4.46c4.54,3,8.3,5.5,11.58,9.4l-3.79,3.16Z" fill="#3a2780"/>
        <path d="m5.75,33.07c5.1-.34,11.18-1.38,14.25-2.6l-1.04,2.52c-.31-2.06-3.41-6.24-6.41-8.58l3.06-4.14c5.74,5.14,7.61,8.49,7.61,14.23-2.54,2.9-8.72,4.73-15.93,5.17l-1.54-6.61Z" fill="#3a2780"/>
        <path d="m13.88,24.61c-1.51,3.7-6.17,10.31-10.21,14.12l-3.67-3.57c3.46-2.87,8.64-9.73,10.24-13.72l3.64,3.17Z" fill="#3a2780"/>
      </g>
    </g>
  </g>
</svg>