<?xml version="1.0" encoding="UTF-8"?>
<svg id="Layer_2" data-name="Layer 2" xmlns="http://www.w3.org/2000/svg" viewBox="0 0 26.42 50">
  <g id="Layer_1-2" data-name="Layer 1">
    <g>
      <rect width="26.42" height="50" fill="none"/>
      <path d="m11.06,17.18c3.38,0,7.04-.38,10.34-1.01.72,4,1.3,6.52,2.47,9.34.81.37,1.56.5,2.55.5l-.62,7.39c-3,0-4.64-2.15-5.72-4.81-1.11-2.77-1.86-5.38-2.34-8.97l1.45,1.71c-1.64.74-5.05.99-7.52.99l2.69-2.5c-.38,1.04-1.47,3.98-1.47,5.09,0,1.99.25,2.98,3.03,2.98.94,0,4.02-.15,5.31-.49l-1.63,6.01c-.73.16-2.97.42-4.61.42-3.72,0-6.43-2.72-6.54-6.09,0-.1,0-1.68,0-1.79l1.38.8c-1.85,3.86-5.64,6.64-9.83,6.64l.62-7.39c5.91,0,7.8-2.6,10.44-8.83" fill="#1a171b"/>
    </g>
  </g>
</svg>