<?xml version="1.0" encoding="UTF-8"?>
<svg id="Layer_2" data-name="Layer 2" xmlns="http://www.w3.org/2000/svg" viewBox="0 0 49.54 50">
  <g id="Layer_1-2" data-name="Layer 1">
    <g>
      <rect width="49.54" height="50" fill="none"/>
      <path d="m39,26.12c-2.07,1.01-8.78,1.31-16.78,1.31-9.02,0-13.59,0-16.07,0-.92-2.41-1.94-5.24-2.95-7.12,3.41-1.81,7.74-5.1,10.53-9.18l4.42,4.17c-2.29,2.64-4.46,4.35-9.37,5.85l.26.6,7.8-.08c2.5,0,4.38,0,6.33,0,7.32,0,13.22-.12,17.19-.78,2.22,3.17,5.12,9.45,5.73,11.08l-1.86-1.7c1.95.82,4.03,1.19,5.32,1.19l-.62,7.39c-3.41,0-6.27-3.46-6.94-8.11h-.65c-.19,3.5-1.39,5.42-3.57,6.56-2.42,1.26-11.97,1.5-16.94,1.5H0l.62-7.39h20.93c6.35,0,11.35.04,14.57-.51,3.03-.52,3.36-1.42,3.45-3.56l.16,2.74c-.45-.85-1.78-2.64-2.07-4.83l1.34.86Z" fill="#3a2780"/>
    </g>
  </g>
</svg>