<?xml version="1.0" encoding="UTF-8"?>
<svg id="Layer_2" data-name="Layer 2" xmlns="http://www.w3.org/2000/svg" viewBox="0 0 53.58 50">
  <g id="Layer_1-2" data-name="Layer 1">
    <g>
      <rect width="53.58" height="50" fill="none"/>
      <path d="m13.76,38.81c-4.77,0-10.6-1.08-13.76-2.88l2.68-6.44c2.3.97,7.65,1.93,12.39,1.93h10.71c6.35,0,11.16.03,14.37-.51,3.02-.51,3.36-1.42,3.45-3.56l.15,2.74c-.45-.85-1.78-2.64-2.07-4.83l1.34.86c-2.07,1.01-8.78,1.31-16.77,1.31-9.02,0-13.59.01-16.07.01-.75-1.97-1.8-4.93-2.94-7.12,3.41-1.81,7.74-5.1,10.53-9.18l4.42,4.18c-2.51,2.88-4.65,4.38-9.37,5.84l.26.6,7.8-.08c2.5,0,4.38,0,6.33,0,7.32,0,13.22-.12,17.19-.78,2.22,3.17,5.12,9.45,5.73,11.08l-1.86-1.71c1.95.82,4.03,1.19,5.32,1.19l-.62,7.39c-3.41,0-6.27-3.46-6.94-8.11h-.65c-.19,3.5-1.39,5.43-3.57,6.56-2.42,1.26-11.97,1.5-16.94,1.5h-11.09Z" fill="#3a2780"/>
    </g>
  </g>
</svg>