<?xml version="1.0" encoding="UTF-8"?>
<svg id="Layer_2" data-name="Layer 2" xmlns="http://www.w3.org/2000/svg" viewBox="0 0 47.44 50">
  <g id="Layer_1-2" data-name="Layer 1">
    <g>
      <rect width="47.44" height="50" fill="none"/>
      <path d="m10.18,27.46c-.74-2.19-2-5.14-2.95-7.12,3.62-1.72,7.74-5.1,10.53-9.18l4.42,4.18c-2.44,2.95-4.46,4.74-9.37,6.24l.26.6c7.94-.49,16.28-.69,22.14-.66,6.91.03,9.97,1.83,11.69,4.37.26,2.95.53,5.05.54,8.52-2.7,2.92-8.71,4.42-16.19,4.42H13.76c-4.77,0-10.6-1.08-13.76-2.88l2.68-6.44c2.3.97,7.65,1.93,12.39,1.93h24.62c2.66,0,3.91.15,4.82,1.1l-2.09,1.24c.23-2.28-.46-6.53-.92-8.81l2.38,3.34c-2.04-.71-6.14-1.25-9.4-1.25-4.63,0-18.98.12-24.29.41" fill="#3a2780"/>
    </g>
  </g>
</svg>