<?xml version="1.0" encoding="UTF-8"?>
<svg id="Layer_2" data-name="Layer 2" xmlns="http://www.w3.org/2000/svg" viewBox="0 0 20.09 50">
  <g id="Layer_1-2" data-name="Layer 1">
    <g>
      <rect width="20.09" height="50" fill="none"/>
      <g>
        <path d="m0,43.26c6.84,0,14.81-1.46,20.09-5.08-1.03-4.26-1.52-8.07-1.93-12.43-.39-4.18-.95-5.88-2.04-7.34-1.56-2.09-5.62-3.05-8.66-3.04-2.06.89-3.69,2.33-4.42,4.77-.67,2.23-.71,8.14-1.16,10.91,1.73,1.27,4.84,2.27,9.76,2.27l3.34-5.12-.17-1.07c-4.12,0-6.02.11-10.12-1.22l1.85,3.44c.19-2.46.6-7.21,1.73-9.84l-1.8,1.19c1.13.17,1.92.33,3.21.61,2.63.56,3.2,1.29,3.56,4.43.67,5.73,1.12,8.74,2.6,11.28l1.15-3.2c-2.56,2.07-12.69,2.03-16.29,2.04l-.69,7.39Z" fill="#1a171b"/>
        <path d="m3.61,6.74l-1.41,4.72c1.46.89,4.04,1.35,5.99,1.35s4.82-.19,6.9-.71l-.71-4.95c-1.12.22-3.79.44-5.61.47-2.01.03-3.94-.28-5.16-.88" fill="#1a171b"/>
      </g>
    </g>
  </g>
</svg>