<?xml version="1.0" encoding="UTF-8"?>
<svg id="Layer_2" data-name="Layer 2" xmlns="http://www.w3.org/2000/svg" viewBox="0 0 41.48 50">
  <g id="Layer_1-2" data-name="Layer 1">
    <g>
      <rect width="41.48" height="50" fill="none"/>
      <g>
        <path d="m22.89,40.97c-4.33,0-6.55-2.41-6.57-7.4,0-.67.07-1.83.16-2.59l.78-6.65-.75-.1-1.17,8.71c-.59,4.74-4.23,8.02-8.06,8.02H2.95l-1.29-6.99h6.25c2.42,0,3.71-1.35,4.68-7,.84-4.85,1.47-11.61,1.52-15.45l7.12,1.07c-.18,6.61-.86,15.36-1.3,22.69l-.87-2.27c.93.34,3.61.62,4.9.56,5.8-.23,7.43-1.46,7.55-4.14l.16,2.74c-.72-1.37-1.46-3.39-2.17-5.45-2.14-.86-5.12-1.79-7.43-2.08l.79-8.98c4.55-.41,10.23-2.92,14.88-6.64l2.48,5.63c-4.39,3.1-8.74,4.99-11.79,4.99h-1.4l-.05.75c4.31.95,7.12,2.08,8.15,4.93.99,2.75,1.89,6.07,2.9,8.74l-1.86-1.71c1.95.82,4.03,1.19,5.32,1.19l-.62,7.39c-3.41,0-6.86-3.39-6.86-8.11h-.73c-.3,5.75-4.8,8.13-10.37,8.13" fill="#3a2780"/>
        <path d="m4.96,13.97c2.05,5.21,3.23,12.76,3.72,17.5l-4.19,3.53c-.51-5.77-2.49-14.86-4.5-18.69l4.96-2.34Z" fill="#3a2780"/>
      </g>
    </g>
  </g>
</svg>