<?xml version="1.0" encoding="UTF-8"?>
<svg id="Layer_2" data-name="Layer 2" xmlns="http://www.w3.org/2000/svg" viewBox="0 0 40.21 50">
  <g id="Layer_1-2" data-name="Layer 1">
    <g>
      <rect width="40.21" height="50" fill="none"/>
      <g>
        <path d="m22.89,40.97c-4.33,0-6.55-2.41-6.57-7.4,0-.67.07-1.83.16-2.59l.78-6.65-.75-.1-1.17,8.71c-.59,4.74-4.23,8.02-8.06,8.02H2.95l-1.29-6.99h6.25c2.42,0,3.71-1.35,4.68-7,.84-4.85,1.47-11.61,1.52-15.45l7.12,1.07c-.18,6.61-.86,15.36-1.3,22.69l-.87-2.27c.93.34,3.61.57,4.9.56,4.51,0,8.26-.33,10.55-1.24l-1.37,2.66c-1.5-1.25-1.7-5.51-1.96-7.55-1.81-.95-6.36-2.49-9.1-2.8l.79-8.98c4.55-.41,10.23-2.92,14.88-6.64l2.48,5.63c-4.39,3.1-8.74,4.99-11.79,4.99h-1.4s-.05.75-.05.75c7.15,1.55,9.06,3.61,9.53,8.72.22,2.36.28,5.87.6,8.51-3.68,2.04-9.74,3.34-14.21,3.34" fill="#3a2780"/>
        <path d="m4.96,13.97c2.05,5.21,3.23,12.76,3.72,17.5l-4.19,3.53c-.51-5.77-2.49-14.86-4.5-18.69l4.96-2.34Z" fill="#3a2780"/>
      </g>
    </g>
  </g>
</svg>