<?xml version="1.0" encoding="UTF-8"?>
<svg id="Layer_2" data-name="Layer 2" xmlns="http://www.w3.org/2000/svg" viewBox="0 0 32.91 50">
  <g id="Layer_1-2" data-name="Layer 1">
    <g>
      <rect width="32.91" height="50" fill="none"/>
      <g>
        <path d="m26.58,19.18c-.57,6.51-6.89,8.94-13.04,8.94C3.57,28.12,0,24.56,0,19.7c0-2.07.24-4.71.93-7.85l5.17,1.19c-.41,1.71-1.15,4.97-1.55,7.91l-1.28-2.4c1.45,1.26,6.35,2.65,10.88,2.66,6.21.02,10.4-1.47,11.33-8.49l5.27.66-.31,7.63-1.4-2.48c1.14.83,2.63,1.4,3.89,1.4l-.62,7.39c-2.81,0-5.06-1.66-5.06-8.11h-.65Z" fill="#1a171b"/>
        <path d="m18.99,32.93l-2.33,5.23c-1.16-.95-3.5-2.17-5.28-2.35l2.1-5.24c2.17.23,4.61,1.51,5.51,2.37" fill="#1a171b"/>
      </g>
    </g>
  </g>
</svg>