<?xml version="1.0" encoding="UTF-8"?>
<svg id="Layer_2" data-name="Layer 2" xmlns="http://www.w3.org/2000/svg" viewBox="0 0 43.12 50">
  <g id="Layer_1-2" data-name="Layer 1">
    <g>
      <rect width="43.12" height="50" fill="none"/>
      <g>
        <path d="m43.12,37.18c-1.03-4.26-1.52-7.91-1.93-12.26-.39-4.18-.95-6.04-2.04-7.5-1.56-2.1-5.62-3.05-8.66-3.04-2.06.89-3.69,2.33-4.42,4.78-.67,2.23-.71,8.14-1.16,10.91,1.73,1.27,4.84,2.26,9.76,2.26l3.34-5.12-.17-1.07c-4.12,0-6.02.12-10.12-1.22l1.85,3.44c.19-2.46.6-7.21,1.73-9.84l-1.8,1.19c1.13.17,1.92.33,3.21.61,2.63.56,3.19,1.45,3.56,4.6.67,5.73,1.12,8.57,2.6,11.11l.66-2.83c-2.66,1.74-10.9,4.86-16.87,4.86-6.56,0-14.18-4.39-19.51-10.28l-3.15,6.1c5.32,6.46,14.49,10.33,21.73,10.33s15.83-2.68,21.4-7.03" fill="#3a2780"/>
        <path d="m26.53,5.79l-1.41,4.72c1.46.89,4.04,1.35,5.99,1.35s4.82-.19,6.9-.71l-.71-4.95c-1.12.22-3.79.44-5.61.47-2.01.03-3.94-.28-5.16-.88" fill="#3a2780"/>
      </g>
    </g>
  </g>
</svg>