<?xml version="1.0" encoding="UTF-8"?>
<svg id="Layer_2" data-name="Layer 2" xmlns="http://www.w3.org/2000/svg" viewBox="0 0 44 50">
  <g id="Layer_1-2" data-name="Layer 1">
    <g>
      <rect width="44" height="50" fill="none"/>
      <g>
        <polygon points="40.85 23.56 41.47 16.17 44 16.17 43.38 23.56 40.85 23.56" fill="#3a2780"/>
        <path d="m38.8,23.35c-3.92-.21-6.86-1.05-8.9-2l1.01-6.18c3.74.83,7.09,1,10.86,1,0,5.87.41,7.99,1.49,12.13-3.42,3.17-13.6,6.61-22.34,6.53-7.03-.07-15.6-2.44-20.93-8.9l3.15-6.1c5.32,5.89,12.35,8.79,18.91,8.8,7.7,0,14.23-2.07,17.56-4.11l-.3,4.09c-1.28-2.27-2.1-4.93-2.16-6.95l1.64,1.7Z" fill="#3a2780"/>
      </g>
    </g>
  </g>
</svg>