<?xml version="1.0" encoding="UTF-8"?>
<svg id="Layer_2" data-name="Layer 2" xmlns="http://www.w3.org/2000/svg" viewBox="0 0 32.92 50">
  <g id="Layer_1-2" data-name="Layer 1">
    <g>
      <rect width="32.92" height="50" fill="none"/>
      <g>
        <path d="m.62,34.13c2.42,0,3.75-.96,4.73-6.6.84-4.85,1.31-11.48,1.52-15.45l7.02,1.07c.01,3.41-.14,8.19-.45,12.08-.3,3.7-.62,7.71-1.02,10.61l-.8-2.57c1.05.5,2.48.87,4.61.87l-.62,7.39c-4.32,0-6.55-2.41-6.56-7.4,0-.67.07-1.83.16-2.59l.78-6.65-.75-.1-1.17,8.71c-.59,4.74-4.24,8.02-8.06,8.02l.62-7.39Z" fill="#3a2780"/>
        <path d="m16.23,34.13c4.51,0,8.7-.33,10.98-1.25l-1.37,2.66c-1.5-1.25-1.7-5.51-1.96-7.55-1.81-.95-6.36-2.49-9.1-2.8l.79-8.98c4.55-.41,10.23-2.92,14.88-6.64l2.48,5.63c-4.39,3.1-8.74,4.99-11.79,4.99h-1.4s-.05.75-.05.75c7.15,1.55,9.06,3.61,9.53,8.72.22,2.36.28,5.87.6,8.51-3.68,2.04-9.74,3.35-14.21,3.35l.62-7.39Z" fill="#3a2780"/>
        <path d="m23.88,8.48l1.1,2.37c-1.39,1.25-5.73,3.18-9.31,3.54l.23-2.75c2.3-.26,6.21-1.7,7.99-3.16" fill="#3a2780"/>
      </g>
    </g>
  </g>
</svg>