<?xml version="1.0" encoding="UTF-8"?>
<svg id="Layer_2" data-name="Layer 2" xmlns="http://www.w3.org/2000/svg" viewBox="0 0 33.02 50">
  <g id="Layer_1-2" data-name="Layer 1">
    <g>
      <rect width="33.02" height="50" fill="none"/>
      <g>
        <path d="m17.66,15.1c3.25,0,7.12-.44,10.33-1.01.78,4.18,1.51,7.17,2.49,9.34.81.37,1.56.5,2.55.5l-.62,7.39c-3,0-4.64-2.15-5.72-4.81-1.11-2.77-1.86-5.38-2.34-8.97l1.45,1.71c-1.78.8-4.96.99-7.52.99l2.69-2.5c-.38,1.04-1.47,4.14-1.47,5.25,0,1.8.25,2.82,3.03,2.82.94,0,4.02-.15,5.31-.49l-1.63,5.85c-.73.16-2.97.42-4.61.42-3.72,0-6.42-2.42-6.54-6.25-.12-3.68,1.19-7.15,2.61-10.23" fill="#3a2780"/>
        <path d="m20.61,18.79c-.83,2.41-2.57,6.32-4.21,8.48-4.11,5.4-7.14,7.33-13.75,8.64l-2.64-5.89c2.51-.66,6-1.44,9.39-2.65,3.8-3.42,5.91-6.83,8.27-12.26l2.94,3.69Z" fill="#3a2780"/>
      </g>
    </g>
  </g>
</svg>