<?xml version="1.0" encoding="UTF-8"?>
<svg id="Layer_2" data-name="Layer 2" xmlns="http://www.w3.org/2000/svg" viewBox="0 0 34.19 50">
  <g id="Layer_1-2" data-name="Layer 1">
    <g>
      <rect width="34.19" height="50" fill="none"/>
      <g>
        <path d="m16.23,33.58c6.08-.24,7.87-1.46,7.99-4.14l.16,2.74c-.72-1.37-1.46-3.39-2.17-5.45-2.14-.86-5.12-1.8-7.43-2.08l.79-8.98c4.55-.41,10.23-2.93,14.88-6.65l2.48,5.63c-4.39,3.1-8.74,4.99-11.79,4.99h-1.4l-.05.75c4.31.95,7.12,2.08,8.15,4.93.99,2.75,1.89,6.08,2.9,8.74l-1.86-1.71c1.95.82,4.03,1.19,5.32,1.19l-.62,7.39c-3.41,0-6.86-3.39-6.86-8.11h-.73c-.3,5.75-4.8,8.13-10.37,8.13l.62-7.39Z" fill="#3a2780"/>
        <path d="m.62,33.58c2.42,0,3.75-.96,4.73-6.6.84-4.85,1.31-11.48,1.52-15.45l7.02,1.07c-.13,3.41-.34,7.79-.62,12.08-.3,3.7-.46,7.71-.85,10.61l-.8-2.57c1.05.5,2.48.87,4.61.87l-.62,7.39c-4.32,0-6.55-2.41-6.56-7.4,0-.67.07-1.83.16-2.59l.78-6.65-.75-.1-1.17,8.71c-.59,4.74-4.24,8.02-8.06,8.02l.62-7.39Z" fill="#3a2780"/>
      </g>
    </g>
  </g>
</svg>