<?xml version="1.0" encoding="UTF-8"?>
<svg id="Layer_2" data-name="Layer 2" xmlns="http://www.w3.org/2000/svg" viewBox="0 0 24.75 50">
  <g id="Layer_1-2" data-name="Layer 1">
    <g>
      <rect width="24.75" height="50" fill="none"/>
      <g>
        <path d="m7.87,41.52C3.04,41.52.24,39.65.03,29.86c-.11-5.2.04-11.89.69-17.77l5.67,1.01c-1.02,6.69-1.63,14.89-1.63,21.66l-1.19-1.86c1.19.78,3,1.23,4.92,1.23,4.51,0,8.26-.32,10.55-1.24l-1.37,2.66c-1.5-1.25-1.7-5.51-1.96-7.55-1.81-.95-6.36-2.49-9.1-2.8l.79-8.98c4.55-.41,10.23-2.92,14.88-6.64l2.48,5.63c-4.39,3.1-8.74,4.99-11.79,4.99h-1.4s-.05.75-.05.75c7.15,1.55,9.06,3.61,9.53,8.72.22,2.36.28,5.87.6,8.51-3.68,2.04-9.31,3.34-13.78,3.34" fill="#3a2780"/>
        <path d="m15.71,8.48l1.1,2.37c-1.39,1.25-5.73,3.18-9.31,3.54l.23-2.75c2.3-.26,6.21-1.7,7.99-3.16" fill="#3a2780"/>
      </g>
    </g>
  </g>
</svg>