<?xml version="1.0" encoding="UTF-8"?>
<svg id="Layer_2" data-name="Layer 2" xmlns="http://www.w3.org/2000/svg" viewBox="0 0 26.66 50">
  <g id="Layer_1-2" data-name="Layer 1">
    <g>
      <rect width="26.66" height="50" fill="none"/>
      <g>
        <polygon points="23.18 26.81 23.8 19.42 26.66 19.42 26.04 26.81 23.18 26.81" fill="#1a171b"/>
        <path d="m21.12,26.6c-3.85-.2-6.95-1.03-8.9-2l1.01-6.26c4.56.93,8.01,1.08,10.86,1.08,0,5.87.36,8.99,1.15,13.02-2.63,1.81-9.53,3.36-13.82,3.36-6.84,0-11.43-2.55-11.43-11.24,0-2.89.21-6.16.73-10.35l5.99.87c-.63,3.85-.8,6.94-.88,9.36,0,3.2,1.63,5.1,7.01,5.11,4.84,0,7.73-.26,9.06-.62l-.51,2.99c-.81-1.09-1.93-4.7-1.93-7.01l1.64,1.7Z" fill="#1a171b"/>
      </g>
    </g>
  </g>
</svg>