<?xml version="1.0" encoding="UTF-8"?>
<svg id="Layer_2" data-name="Layer 2" xmlns="http://www.w3.org/2000/svg" viewBox="0 0 15.03 50">
  <g id="Layer_1-2" data-name="Layer 1">
    <g>
      <rect width="15.03" height="50" fill="none"/>
      <g>
        <path d="m12.55,21.64l-1.41-2.48c1.14.83,2.63,1.39,3.89,1.39l-.62,7.39c-2.81,0-5.06-1.66-5.06-8.11h-.65c-.71,6.59-6,8.11-8.7,8.11l.62-7.39c3.75,0,6.45-2.71,6.97-7.2l5.27.66-.31,7.63Z" fill="#1a171b"/>
        <path d="m11.98,36.64l1.41-4.72c-1.46-.89-4.04-1.35-5.99-1.35s-4.82.19-6.9.71l.71,4.95c1.12-.22,3.79-.44,5.61-.47,2.01-.03,3.94.28,5.16.88" fill="#1a171b"/>
      </g>
    </g>
  </g>
</svg>