<?xml version="1.0" encoding="UTF-8"?>
<svg id="Layer_2" data-name="Layer 2" xmlns="http://www.w3.org/2000/svg" viewBox="0 0 41.84 50">
  <g id="Layer_1-2" data-name="Layer 1">
    <g>
      <rect width="41.84" height="50" fill="none"/>
      <g>
        <path d="m24.2,38.11l-2.31.91c.76-1.29,1.32-3.46,1.32-5.17s-.95-3.47-2.53-4.97c-1.83-1.74-4.31-3.2-7.34-4.11l3.39-4.61c2.97,1.21,4.82,2.45,6.86,4.12,3.07,2.52,4.6,5.47,4.6,9.13,0,3.69-1.72,7.49-3.98,10.3-2.46-1.28-6.98-2.85-9.96-3.64l.31-6.14c3.79.71,8.29,2.61,9.64,4.19" fill="#3a2780"/>
        <path d="m16.73,20.15c7.22,0,11.5-.83,20.4-2.81l-.05-.83-3.65.63c-1.62.28-5.2-1.93-9.52-4.95l-2.54,3.55-4.43-3.75c1.78-3.22,4.24-5.11,6.57-5.68,3.78,1.47,6.4,3.64,9.44,5.83l8.59-.7.28,9.75c-1.1.37-2.2.77-3.33,1.15-5.97,2.01-14.85,3.71-22.4,3.71l.62-5.89Z" fill="#3a2780"/>
        <path d="m15.53,30.06c-2.23-1.71-5.87-2.79-8.94-3.05l1.55-1.14c-.13.71-.39,1.6-.31,3.05.09,1.82.66,4.05,3.31,5.37l-5.1,2.5c-1.91-1.55-3.06-4.6-3.06-7.54,0-3.15,2.22-6.16,6.24-7.92,4.25.63,9.38,2.71,9.38,7.72,0,8.11-9.24,13.21-18.6,13.21l.62-7.39c5.18,0,4.02,0,5.15-.46l1.25,1.47c3.45-1.51,6.79-4.89,7.79-8.14l.72,2.32Z" fill="#3a2780"/>
      </g>
    </g>
  </g>
</svg>