<?xml version="1.0" encoding="UTF-8"?>
<svg id="Layer_2" data-name="Layer 2" xmlns="http://www.w3.org/2000/svg" viewBox="0 0 45.54 50">
  <g id="Layer_1-2" data-name="Layer 1">
    <g>
      <rect width="45.54" height="50" fill="none"/>
      <g>
        <path d="m45.54,38.4c-5.22,2.58-13.6,5.81-22.21,5.76-8.31-.05-18.54-2.1-23.33-5.11l.83-7.22c5.73,3.09,16.2,5.28,23.95,5.14,5.85-.1,13.05-1.02,17.31-3.01l-.81,3.29c-1.47-2.54-1.92-5.38-2.6-11.11-.37-3.14-.93-4.04-3.56-4.6-1.29-.27-2.09-.43-3.21-.61l1.8-1.19c-1.13,2.63-1.54,7.38-1.73,9.84l-1.85-3.44c4.1,1.34,6,1.22,10.12,1.22l.17,1.07-3.34,5.12c-4.92,0-8.03-.99-9.76-2.26.45-2.78.49-8.68,1.16-10.91.73-2.45,2.36-3.89,4.42-4.78,3.03,0,7.1.95,8.66,3.04,1.09,1.46,1.65,3.32,2.04,7.5.41,4.35.89,8.01,1.93,12.26" fill="#3a2780"/>
        <path d="m37.96,8.21l-2.33,5.22c-1.16-.95-3.5-2.17-5.28-2.35l2.1-5.24c2.17.23,4.61,1.51,5.51,2.37" fill="#3a2780"/>
        <path d="m45.54,38.4c-5.22,2.58-13.6,5.81-22.21,5.76-8.31-.05-18.54-2.1-23.33-5.11l.83-7.22c5.73,3.09,16.2,5.28,23.95,5.14,5.85-.1,13.05-1.02,17.31-3.01l-.81,3.29c-1.47-2.54-1.92-5.38-2.6-11.11-.37-3.14-.93-4.04-3.56-4.6-1.29-.27-2.09-.43-3.21-.61l1.8-1.19c-1.13,2.63-1.54,7.38-1.73,9.84l-1.85-3.44c4.1,1.34,6,1.22,10.12,1.22l.17,1.07-3.34,5.12c-4.92,0-8.03-.99-9.76-2.26.45-2.78.49-8.68,1.16-10.91.73-2.45,2.36-3.89,4.42-4.78,3.03,0,7.1.95,8.66,3.04,1.09,1.46,1.65,3.32,2.04,7.5.41,4.35.89,8.01,1.93,12.26" fill="#3a2780"/>
      </g>
    </g>
  </g>
</svg>