<?xml version="1.0" encoding="UTF-8"?>
<svg id="Layer_2" data-name="Layer 2" xmlns="http://www.w3.org/2000/svg" viewBox="0 0 45.92 50">
  <g id="Layer_1-2" data-name="Layer 1">
    <g>
      <rect width="45.92" height="50" fill="none"/>
      <g>
        <path d="m2.47,25.52l2.01-6c3.82,3.32,12.7,9.07,19.62,11.81l-3.18,8.78c-2.12-.98-6.28-1.54-9.22-1.54-3.41,0-9.17.66-11.7.66l.62-7.39h8.75c2.26,0,5.92,1.45,8.62,2.51l.26-.81c-4.35-1.68-12.05-5.46-15.79-8.03" fill="#3a2780"/>
        <path d="m4.48,19.52c2.81-6.58,9.85-8.19,15.23-7.8l.56,7.68c1.08.46,4.04.54,5.13.54l-.61,7.22c-5.78,0-8.23-3.8-8.8-9.48-4.39,0-6.94,2.59-9.09,6.08l-2.42-4.23Z" fill="#3a2780"/>
        <path d="m34.33,21l-1.21-2.88c.81,1.21,2.32,1.82,3.53,1.82l-.61,7.22c-3.38,0-4.56-2.99-4.56-7.93h-.72c0,5.46-1.64,7.93-5.98,7.93l.61-7.22c2.15,0,3.58-1.59,3.98-6.38h5.27l-.32,7.44Z" fill="#3a2780"/>
        <path d="m41.89,18.1l-.7,2.77c-1.01-.96-1.78-2.9-1.78-4.61,0-2.22.53-4.39,1.31-6.36l5.19,1.65c-.71,2.08-1.4,5.07-1.4,7.24,0,1.01.15,2.07.55,3.23-2.68,3.13-5.62,5.15-9.04,5.15l.61-7.22c2.3-.02,3.31-.47,5.25-1.84" fill="#3a2780"/>
      </g>
    </g>
  </g>
</svg>