<?xml version="1.0" encoding="UTF-8"?>
<svg id="Layer_2" data-name="Layer 2" xmlns="http://www.w3.org/2000/svg" viewBox="0 0 29.59 50">
  <g id="Layer_1-2" data-name="Layer 1">
    <g>
      <rect width="29.59" height="50" fill="none"/>
      <g>
        <path d="m2.47,27.62l2.01-6c3.82,3.32,12.7,9.07,19.62,11.81l-3.18,8.78c-2.12-.98-6.28-1.54-9.22-1.54-3.41,0-9.17.66-11.7.66l.62-7.39h8.75c2.26,0,5.92,1.45,8.62,2.51l.26-.81c-4.35-1.68-12.05-5.46-15.79-8.03" fill="#3a2780"/>
        <path d="m4.48,21.63c7.22,0,11.5-.83,20.4-2.81l-.05-.83-3.65.63c-1.62.28-5.21-1.93-9.52-4.95l-2.54,3.55-4.43-3.75c1.78-3.22,4.24-5.11,6.57-5.68,3.78,1.47,6.4,3.64,9.44,5.83l8.59-.7.28,9.75c-1.1.37-2.2.77-3.33,1.15-5.97,2.01-14.85,3.54-22.4,3.54l.62-5.72Z" fill="#3a2780"/>
      </g>
    </g>
  </g>
</svg>