<?xml version="1.0" encoding="UTF-8"?>
<svg id="Layer_2" data-name="Layer 2" xmlns="http://www.w3.org/2000/svg" viewBox="0 0 22.5 50">
  <g id="Layer_1-2" data-name="Layer 1">
    <g>
      <rect width="22.5" height="50" fill="none"/>
      <g>
        <path d="m19.02,30.79l-1.34,1.6c0-3.05-.44-8.35-1.32-10.83l5.45-.88c.64,2.47.69,6.49.69,8.4,0,2.53-.1,4.96-.21,6.98-2.33,1.03-5.48,1.7-8.37,1.7-2.17,0-5.17-1.29-6.77-3l2.27-5.27c1.29,1.03,3.57,1.81,5.22,1.81,1.25,0,3.18-.1,4.38-.52" fill="#1a171b"/>
        <path d="m18.98,19.27c0,4.67-6.09,10.04-9.92,11.94l.16.83c-3.2,1.91-4.91,2.58-9.22,2.58l.62-7.39c2.48,0,4.77-.52,5.86-1.08l.67.41c3.41-1.39,6.2-5.58,6.2-9.2l1.03,1.24c-1.03-.36-5.79-.93-7.49-.93l1.4-.93c-.21.77-.49,3.15-.52,4.5-.03,1.55,1.09,4.24,2.33,5.42l-3.77,1.14c-1.76-.93-3.82-4.6-3.82-6.92,0-2.89.62-6.3,1.55-8.37,2.79-.15,5.32-.28,8.32-.26,4.42.03,6.61,2.73,6.61,7.03" fill="#1a171b"/>
      </g>
    </g>
  </g>
</svg>