<?xml version="1.0" encoding="UTF-8"?>
<svg id="Layer_2" data-name="Layer 2" xmlns="http://www.w3.org/2000/svg" viewBox="0 0 20.57 50">
  <g id="Layer_1-2" data-name="Layer 1">
    <g>
      <rect width="20.57" height="50" fill="none"/>
      <path d="m5,25.15c0,4.98.36,9.87,1.11,14.79l-5.5.84c-.38-3.27-.61-7.71-.61-11.25,0-4.62.53-7.3,2.48-9.02,1.98.31,4.53.52,8.31.52,2.68,0,5.26-.49,6.96-1.05l-1.88,2.57c-.85-2.46-1.38-6.8-1.61-10.27l1.92,2.79c-1-.22-1.98-.39-3.5-.27-1.26.09-2.13.48-2.73,1.07-1.46,1.44-1.48,3.61-1.48,6.21l-4.25-3.26c0-3.11.41-5.83,3.01-7.88,1.46-1.15,3.67-1.74,5.46-1.74,1,0,1.83.11,2.79.3,1.32.26,2.55.68,3.59,1.19.07,1.74.24,3.73.47,6.22.29,3.18.66,6.04,1.04,7.71-2.38,1.32-6.1,2.59-10.15,2.59-3.2,0-4.63-.35-6.93-.97l1.51-1.09Z" fill="#1a171b"/>
    </g>
  </g>
</svg>