<?xml version="1.0" encoding="UTF-8"?>
<svg id="Layer_2" data-name="Layer 2" xmlns="http://www.w3.org/2000/svg" viewBox="0 0 41.75 50">
  <g id="Layer_1-2" data-name="Layer 1">
    <g>
      <rect width="41.75" height="50" fill="none"/>
      <g>
        <path d="m26.63,28.74c4.03-.45,5.04-1.84,5.15-4.15l.16,2.74c-.72-1.37-1.46-3.39-2.17-5.45-2.14-.86-5.12-1.8-7.43-2.08l.79-8.98c4.55-.41,10.23-2.92,14.88-6.64l2.48,5.63c-4.39,3.1-8.74,4.99-11.79,4.99h-1.4l-.05.75c4.3.95,7.12,2.08,8.15,4.93.99,2.75,1.89,6.08,2.9,8.74l-1.86-1.71c1.95.82,4.03,1.19,5.32,1.19l-.62,7.39c-3.41,0-6.86-3.39-6.86-8.11h-.73c-.3,5.47-4.3,8.13-7.53,8.13l.62-7.39Z" fill="#3a2780"/>
        <path d="m31.44,3.09l1.1,2.37c-1.39,1.25-5.73,3.18-9.31,3.54l.23-2.75c2.3-.26,6.21-1.7,7.99-3.16" fill="#3a2780"/>
        <path d="m10.75,46.91c-8.29,0-10.75-3.92-10.75-10.27,0-2.89.49-7.26.96-11.64l5.82.87c-.62,3.78-.95,7.12-.95,9.5,0,3.62.93,5.27,5.79,5.27,2.57,0,5.13-.78,7.09-2.38l-.06,2.37c-1.6-1.71-3.25-8.28-3.25-14.23s.21-15.62.62-19.6l5.68.67c-.72,7.65-1.12,14.8-1.03,18.93.16,6.56.62,10.93,1.81,15.89-3.15,2.84-7.41,4.62-11.75,4.62" fill="#3a2780"/>
        <path d="m26.63,28.74l-.62,7.39c-2.69,0-5.64-.96-6.72-2.51-.41-2.15-.41-4.43-.82-6.59,3.09,1.24,4.58,1.7,8.17,1.7" fill="#3a2780"/>
      </g>
    </g>
  </g>
</svg>