<?xml version="1.0" encoding="UTF-8"?>
<svg id="Layer_2" data-name="Layer 2" xmlns="http://www.w3.org/2000/svg" viewBox="0 0 34.97 50">
  <g id="Layer_1-2" data-name="Layer 1">
    <g>
      <rect width="34.97" height="50" fill="none"/>
      <g>
        <path d="m12.68,40.18c-8.61,0-12.68-3.81-12.68-8.67,0-2.07.24-4.71.93-7.85l5.17,1.19c-.41,1.7-1.15,4.97-1.55,7.9l-.83-2.43c2.62,1.74,6.08,2.96,9.54,2.93,9.23-.18,11.59-2.45,11.74-5.67l.15,2.74c-.36-.7-.91-2.62-.91-5.92.11-5.74.12-8.4.33-14.6l5.39.87c-.33,4.11-.45,7.26-.46,10.38-.01,2.91-.16,5.81.15,9.46,1.95.82,4.03,1.19,5.32,1.19l-.62,7.39c-3.41,0-6.86-3.44-6.86-8.11h-.73c-.27,6.77-6.71,9.19-14.07,9.18" fill="#1a171b"/>
        <path d="m11.33,23c2.22,0,3.64-.11,5.12-.46l-.3,1.25c-.16-.49-.42-1.19-.54-1.87-.62-.28-2.59-.9-4.04-1.22l.4-3.66c1.8-.38,3.64-.92,5.48-1.79l.97,2.21c-1.04.65-2.44,1.01-4.84,1.01l-.05.62c3.52.61,4.07,1.27,4.31,2.83.13.84.23,1.68.32,2.5-1.53.84-4.09,1.28-7.07,1.28l.24-2.72Z" fill="#1a171b"/>
      </g>
    </g>
  </g>
</svg>