<?xml version="1.0" encoding="UTF-8"?>
<svg id="Layer_2" data-name="Layer 2" xmlns="http://www.w3.org/2000/svg" viewBox="0 0 35.04 50">
  <g id="Layer_1-2" data-name="Layer 1">
    <g>
      <rect width="35.04" height="50" fill="none"/>
      <path d="m12.64,41.49c-8.57,0-12.64-3.8-12.64-8.66,0-2.07.24-4.71.93-7.85l5.17,1.19c-.41,1.71-1.15,4.97-1.55,7.91l-.83-2.43c2.62,1.74,6.08,2.96,9.53,2.94,8.96-.06,11.68-2.45,11.82-5.67l.16,2.74c-.72-1.36-1.46-3.39-2.17-5.45-2.14-.86-5.12-1.79-7.43-2.08l.79-8.98c4.55-.41,10.23-2.92,14.88-6.64l2.48,5.63c-4.39,3.1-8.74,4.99-11.79,4.99h-1.4l-.05.75c4.31.95,7.12,2.07,8.15,4.93.99,2.75,1.89,6.07,2.9,8.74l-1.86-1.7c1.95.82,4.03,1.19,5.32,1.19l-.62,7.39c-3.41,0-6.86-3.39-6.86-8.11h-.73c-.38,7-6.86,9.16-14.18,9.17" fill="#1a171b"/>
    </g>
  </g>
</svg>