<?xml version="1.0" encoding="UTF-8"?>
<svg id="Layer_2" data-name="Layer 2" xmlns="http://www.w3.org/2000/svg" viewBox="0 0 28.91 50">
  <g id="Layer_1-2" data-name="Layer 1">
    <g>
      <rect width="28.91" height="50" fill="none"/>
      <path d="m8.76,21.61c2.33.52,4.8,1.73,6.15,2.59l1.67-5.7c-1.6-1.29-4.42-2.84-6.95-3.18-2.08,1.75-4.77,3.46-8.14,4.4-.78,1.88-1.49,5.36-1.49,7.24,0,4.89,4.99,7.72,10.02,7.72,4.02,0,14.01-.18,16.72-.42l2.17-6.64c-3.33.21-12.95.33-18.1.33-3.54,0-6.2-.57-7.29-.98l1.64,1.66c-.42-1.52-.96-3.74-1.01-5.31l-.73,1.31c2.6-.22,5.44-1.34,7.58-3.07l-2.25.05Z" fill="#3a2780"/>
    </g>
  </g>
</svg>