<?xml version="1.0" encoding="UTF-8"?>
<svg id="Layer_2" data-name="Layer 2" xmlns="http://www.w3.org/2000/svg" viewBox="0 0 33.77 50">
  <g id="Layer_1-2" data-name="Layer 1">
    <g>
      <rect width="33.77" height="50" fill="none"/>
      <g>
        <path d="m24.73,7.96l1.1,2.37c-1.39,1.25-5.73,3.18-9.31,3.54l.23-2.75c2.3-.26,6.21-1.7,7.99-3.16" fill="#1a171b"/>
        <path d="m12.67,42.04c-8.6,0-12.67-3.81-12.67-8.66,0-2.07.24-4.71.93-7.85l5.17,1.19c-.41,1.7-1.15,4.97-1.55,7.9l-.83-2.43c2.62,1.74,6.08,2.96,9.52,2.93,8.5-.06,12.05-1.65,14.82-2.76l-1.37,2.66c-1.5-1.25-1.7-5.51-1.96-7.55-1.81-.95-6.36-2.49-9.1-2.8l.78-8.98c4.55-.41,10.23-2.93,14.88-6.65l2.48,5.63c-4.39,3.1-8.74,4.99-11.79,4.99h-1.39s-.05.75-.05.75c7.15,1.55,9.06,3.61,9.53,8.72.22,2.36.28,5.87.6,8.51-4.92,2.72-13.46,4.4-18,4.39" fill="#1a171b"/>
      </g>
    </g>
  </g>
</svg>