<?xml version="1.0" encoding="UTF-8"?>
<svg id="Layer_2" data-name="Layer 2" xmlns="http://www.w3.org/2000/svg" viewBox="0 0 23.35 50">
  <g id="Layer_1-2" data-name="Layer 1">
    <g>
      <rect width="23.35" height="50" fill="none"/>
      <g>
        <path d="m7.74,32.73c2.42,0,3.71-1.35,4.68-7,.84-4.85,1.47-11.61,1.52-15.45l7.12,1.07c.01,3.41-.14,8.19-.45,12.08-.3,3.7-.62,7.71-1.02,10.61l-.7-2.27c1.12.41,3.17.57,4.47.57l-.62,7.39c-4.32,0-6.55-2.41-6.56-7.4,0-.67.07-1.83.16-2.59l.78-6.65-.75-.1-1.17,8.71c-.59,4.74-4.23,8.02-8.06,8.02H2.78l-1.29-6.99h6.25Z" fill="#3a2780"/>
        <path d="m4.96,13.04c2.05,5.21,3.56,12.43,4.05,17.17l-4.19,3.53c-.52-5.77-2.82-14.53-4.83-18.36l4.96-2.34Z" fill="#3a2780"/>
      </g>
    </g>
  </g>
</svg>