<?xml version="1.0" encoding="UTF-8"?>
<svg id="Layer_2" data-name="Layer 2" xmlns="http://www.w3.org/2000/svg" viewBox="0 0 24.1 50">
  <g id="Layer_1-2" data-name="Layer 1">
    <g>
      <rect width="24.1" height="50" fill="none"/>
      <g>
        <path d="m2.47,22.97l2.01-6c3.82,3.32,12.7,9.07,19.62,11.81l-3.18,8.78c-2.12-.98-6.28-1.54-9.22-1.54-3.41,0-9.17.66-11.7.66l.62-7.39h8.75c2.26,0,5.92,1.45,8.62,2.51l.26-.81c-4.35-1.68-12.05-5.46-15.79-8.03" fill="#3a2780"/>
        <path d="m23.12,18.37c-4.03,1.6-9.65,2.69-15.27,2.95l-3.37-4.34c4.07-.48,11.3-2.07,17.33-4.55l1.31,5.94Z" fill="#3a2780"/>
      </g>
    </g>
  </g>
</svg>