<?xml version="1.0" encoding="UTF-8"?>
<svg id="Layer_2" data-name="Layer 2" xmlns="http://www.w3.org/2000/svg" viewBox="0 0 16.23 50">
  <g id="Layer_1-2" data-name="Layer 1">
    <g>
      <rect width="16.23" height="50" fill="none"/>
      <path d="m.62,32.33c2.42,0,3.75-.96,4.73-6.6.84-4.85,1.31-11.48,1.52-15.45l7.02,1.07c.01,3.41-.14,8.19-.45,12.08-.3,3.7-.62,7.71-1.02,10.61l-.8-2.57c1.05.5,2.48.87,4.61.87l-.62,7.39c-4.32,0-6.55-2.41-6.56-7.4,0-.67.07-1.83.16-2.59l.78-6.65-.75-.1-1.17,8.71c-.59,4.74-4.24,8.02-8.06,8.02l.62-7.39Z" fill="#1a171b"/>
    </g>
  </g>
</svg>