<?xml version="1.0" encoding="UTF-8"?>
<svg id="Layer_2" data-name="Layer 2" xmlns="http://www.w3.org/2000/svg" viewBox="0 0 38.16 50">
  <g id="Layer_1-2" data-name="Layer 1">
    <g>
      <rect width="38.16" height="50" fill="none"/>
      <g>
        <path d="m34.59,21.28c-2.04-.71-6.14-1.25-9.4-1.25-4.63,0-13.2.12-18.51.41-.74-2.19-2-5.14-2.94-7.12,3.62-1.72,7.74-5.1,10.53-9.18l4.42,4.17c-2.44,2.95-4.46,4.74-9.37,6.24l.26.6c7.94-.49,10.5-.69,16.35-.66,6.91.03,9.97,1.83,11.69,4.37.26,2.95.53,4.56.54,8.03-2.7,2.92-8.71,2.93-16.19,2.93h-7.17l.62-5.9h14.99c2.66,0,3.91.15,4.82,1.1l-2.09,1.24c.23-2.27-.46-6.03-.92-8.32l2.38,3.33Z" fill="#3a2780"/>
        <path d="m22.88,40.4l-2.31,1.4c.76-1.3,1.32-2.64,1.32-4.35s-.95-2.98-2.53-4.48c-1.83-1.74-4.31-3.53-7.34-4.44l3.39-4.61c2.97,1.21,4.82,2.78,6.86,4.45,3.07,2.52,4.51,4.97,4.52,8.63,0,3.69-1.56,6.16-3.82,8.97-2.46-1.28-7.06-2.85-10.04-3.64l.3-6.14c3.79.71,8.29,2.61,9.64,4.19" fill="#3a2780"/>
        <path d="m.62,37.16c1.41,0,2.92-.07,3.82-.46l1.25,1.47c3.45-1.51,6.79-4.89,7.79-8.13l.72,2.32c-2.23-1.71-5.87-2.79-8.94-3.05l1.55-1.14c-.13.71-.38,1.6-.31,3.05.09,1.82.66,4.05,3.31,5.37l-5.1,2.5c-1.91-1.55-3.06-4.6-3.06-7.54,0-3.15,2.22-6.16,6.24-7.92,4.25.63,9.38,2.71,9.38,7.72,0,7.68-8.53,13.21-17.28,13.21l.62-7.39Z" fill="#3a2780"/>
        <path d="m7.87,4.02l2.12,1.94c-1.83,2.74-4.14,4.46-6.86,5.85l-1.06-2.44c2.09-1.06,4.71-3.48,5.81-5.36" fill="#3a2780"/>
      </g>
    </g>
  </g>
</svg>