<?xml version="1.0" encoding="UTF-8"?>
<svg id="Layer_2" data-name="Layer 2" xmlns="http://www.w3.org/2000/svg" viewBox="0 0 41.59 50">
  <g id="Layer_1-2" data-name="Layer 1">
    <g>
      <rect width="41.59" height="50" fill="none"/>
      <g>
        <path d="m16.73,18.81c6.23,0,10.5-3.92,12.31-11.09,1.74.01,2.26-.13,3.79-.02,2.14.15,3.96.82,5.24,2.6,2.12,2.95,2.68,7.51,3.51,10.51-2.18,3.43-6.29,5.21-9.28,5.21-1.67,0-3.61-.62-4.9-1.5l-.05-6.49c1.91,1.29,3.18,1.54,5.2,1.54s3.75-.69,4.54-1.22l-.49,1.49c-.44-2.12-.69-4.08-1.22-5.25-.74-1.62-1.59-1.58-4.83-1.64l1.8-1.18c-2.54,9.71-10.37,12.35-16.14,12.35l.52-5.31Z" fill="#3a2780"/>
        <path d="m24.2,36.77l-2.31.91c.75-1.29,1.32-3.46,1.32-5.17s-.95-3.47-2.53-4.97c-1.83-1.74-4.31-3.2-7.34-4.11l3.39-4.61c2.97,1.21,4.82,2.45,6.86,4.12,3.07,2.52,4.6,5.47,4.6,9.13,0,3.69-1.72,7.49-3.98,10.3-2.46-1.28-6.98-2.85-9.96-3.64l.3-6.14c3.79.71,8.29,2.61,9.64,4.19" fill="#3a2780"/>
        <path d="m15.53,28.72c-2.23-1.71-5.87-2.79-8.94-3.05l1.55-1.14c-.13.71-.38,1.6-.31,3.05.09,1.82.66,4.05,3.31,5.37l-5.1,2.5c-1.91-1.55-3.06-4.6-3.06-7.54,0-3.15,2.22-6.16,6.24-7.92,4.25.63,9.38,2.71,9.38,7.72,0,8.11-9.24,13.21-18.6,13.21l.62-7.39c5.18,0,4.02,0,5.15-.46l1.25,1.47c3.45-1.51,6.79-4.89,7.79-8.14l.72,2.32Z" fill="#3a2780"/>
      </g>
    </g>
  </g>
</svg>