<?xml version="1.0" encoding="UTF-8"?>
<svg id="Layer_2" data-name="Layer 2" xmlns="http://www.w3.org/2000/svg" viewBox="0 0 26.02 50">
  <g id="Layer_1-2" data-name="Layer 1">
    <g>
      <rect width="26.02" height="50" fill="none"/>
      <path d="m8.5,33.58c5.31-.19,7.43-1.45,7.55-4.14l.16,2.74c-.72-1.37-1.46-3.39-2.17-5.45-2.14-.86-5.12-1.79-7.43-2.08l.79-8.98c4.55-.41,10.23-2.92,14.88-6.64l2.48,5.63c-4.39,3.1-8.74,4.99-11.79,4.99h-1.4l-.05.75c4.31.95,7.12,2.07,8.15,4.93.99,2.75,1.89,6.07,2.9,8.74l-1.86-1.7c1.95.82,4.03,1.19,5.32,1.19l-.62,7.39c-3.41,0-6.86-3.39-6.86-8.11h-.73c-.3,5.75-4.33,8.14-9.94,8.14C3.04,40.97.24,39.11.03,29.31c-.11-5.2.05-11.89.7-17.77l5.67,1.01c-1.02,6.69-1.63,14.89-1.63,21.65l-1.19-1.86c1.19.77,3,1.3,4.92,1.23" fill="#3a2780"/>
    </g>
  </g>
</svg>