<?xml version="1.0" encoding="UTF-8"?>
<svg id="Layer_2" data-name="Layer 2" xmlns="http://www.w3.org/2000/svg" viewBox="0 0 24.2 50">
  <g id="Layer_1-2" data-name="Layer 1">
    <g>
      <rect width="24.2" height="50" fill="none"/>
      <g>
        <path d="m12.11,26.46c1.41-2.38,2.1-4.38,2.72-7.08.47-2.04.8-4.39.91-6.48l5.54,1.2c-.13,2.12-.63,4.52-1.61,7.52-.86,2.65-2.25,4.74-3.54,6l-4.03-1.16Z" fill="#3a2780"/>
        <path d="m12.49,28.39c-2.24-2.19-5.7-4.92-8.69-6.93l3.41-3.97c3.45,2.33,6.42,4.58,9.07,7.74l-3.79,3.16Z" fill="#3a2780"/>
        <path d="m6.72,35.65c5.1-.34,11.18-1.38,14.25-2.6l-1.04,2.52c-.31-2.06-3.41-6.24-6.41-8.58l3.06-4.14c5.74,5.14,7.61,8.49,7.61,14.23-2.54,2.9-8.72,4.73-15.93,5.17l-1.54-6.61Z" fill="#3a2780"/>
        <path d="m14.85,27.19c-1.51,3.7-6.17,10.31-10.21,14.12l-3.67-3.57c3.46-2.87,8.64-9.73,10.24-13.72l3.64,3.17Z" fill="#3a2780"/>
        <path d="m2.45,11.26l.27-.54c.16.7.21,1.78.21,2.37,0,.75-.11,1.6-.38,2.41L.46,13.36c.11-.48.21-1.34.21-1.72,0-.65,0-1.63-.06-2.21,1.31-.29,3.6-1.15,4.83-1.68,1.14.03,2.23,1.43,2.44,3.19l-2.2.91c-.11-.32-.46-1.27-.69-1.69l.49.18c-.62.3-2.03.75-3.03.92" fill="#3a2780"/>
        <path d="m8.1,12.67l.46,2.57c-2.9.32-5.09,1.16-6.93,2.78l-1.63-1.89c2.22-2.13,4.61-2.96,8.1-3.46" fill="#3a2780"/>
      </g>
    </g>
  </g>
</svg>