<?xml version="1.0" encoding="UTF-8"?>
<svg id="Layer_2" data-name="Layer 2" xmlns="http://www.w3.org/2000/svg" viewBox="0 0 42.92 50">
  <g id="Layer_1-2" data-name="Layer 1">
    <g>
      <rect width="42.92" height="50" fill="none"/>
      <g>
        <path d="m39.06,27.22c-3.77,2.02-10.85,4.7-17,4.7-6.56,0-13.59-4.39-18.91-10.28l-3.15,6.1c5.32,6.46,13.9,10.33,21.13,10.33,8.53,0,17.24-3.21,21.79-6.42-1.4-5.22-2.55-12.7-2.71-19.73l-5.92.6c.37,3.22.96,9.65,1.88,12.3.55,1.58,1.29,3.12,2.64,4.57l.26-2.17Z" fill="#3a2780"/>
        <path d="m26.2,16.72l-2.33,5.22c-1.16-.95-3.5-2.17-5.28-2.35l2.1-5.24c2.17.23,4.61,1.51,5.51,2.37" fill="#3a2780"/>
      </g>
    </g>
  </g>
</svg>