<?xml version="1.0" encoding="UTF-8"?>
<svg id="Layer_2" data-name="Layer 2" xmlns="http://www.w3.org/2000/svg" viewBox="0 0 33 50">
  <g id="Layer_1-2" data-name="Layer 1">
    <g>
      <rect width="33" height="50" fill="none"/>
      <g>
        <path d="m13.54,44.3c6.84,0,14.18-2.51,19.47-6.14-1.03-4.26-1.52-7.41-1.93-11.77-.39-4.18-.95-5.88-2.04-7.34-1.56-2.09-5.62-3.05-8.66-3.04-2.06.89-3.69,2.33-4.42,4.77-.67,2.23-.71,8.14-1.16,10.91,1.73,1.27,4.84,2.27,9.76,2.27l3.34-5.12-.17-1.07c-4.12,0-6.02.11-10.12-1.22l1.85,3.44c.19-2.45.6-7.2,1.73-9.83l-1.8,1.19c1.13.17,1.93.33,3.21.61,2.63.56,3.2,1.29,3.56,4.43.67,5.73,1.12,8.08,2.6,10.62l1.15-3.2c-2.81,2.57-12.19,3.55-15.79,3.56-4.49,0-9.39-1.4-10.84-2.66l1.28,2.4c.4-2.94,1.14-6.2,1.55-7.9l-5.17-1.19c-.69,3.14-.93,5.79-.93,7.85,0,4.86,3.57,8.42,13.54,8.42" fill="#1a171b"/>
        <path d="m24.58,8.07l-2.33,5.23c-1.16-.95-3.5-2.17-5.28-2.35l2.1-5.24c2.17.23,4.61,1.51,5.51,2.37" fill="#1a171b"/>
      </g>
    </g>
  </g>
</svg>