<?xml version="1.0" encoding="UTF-8"?>
<svg id="Layer_2" data-name="Layer 2" xmlns="http://www.w3.org/2000/svg" viewBox="0 0 26.29 50">
  <g id="Layer_1-2" data-name="Layer 1">
    <g>
      <rect width="26.29" height="50" fill="none"/>
      <g>
        <path d="m2.45,11.45l.27-.54c.16.7.21,1.78.21,2.37,0,.75-.11,1.6-.38,2.41L.46,13.55c.11-.48.21-1.34.21-1.72,0-.65,0-1.63-.06-2.21,1.31-.29,3.6-1.15,4.83-1.68,1.14.03,2.23,1.43,2.44,3.19l-2.2.91c-.11-.32-.46-1.27-.69-1.69l.49.18c-.62.3-2.04.75-3.03.92" fill="#3a2780"/>
        <path d="m8.1,12.87l.46,2.57c-2.9.32-5.09,1.16-6.93,2.78l-1.63-1.89c2.22-2.13,4.61-2.96,8.1-3.46" fill="#3a2780"/>
        <path d="m10.68,35.07c2.42,0,3.71-1.35,4.68-7,.84-4.85,1.47-11.61,1.52-15.45l7.12,1.07c.01,3.41-.14,8.19-.45,12.08-.3,3.7-.62,7.71-1.02,10.61l-.7-2.27c1.12.41,3.17.57,4.47.57l-.62,7.39c-4.32,0-6.55-2.41-6.56-7.4,0-.67.07-1.83.16-2.59l.78-6.65-.75-.1-1.17,8.71c-.59,4.74-4.23,8.02-8.06,8.02h-4.34l-1.29-6.99h6.25Z" fill="#3a2780"/>
        <path d="m8.06,18.69c2.05,5.21,3.23,9.12,3.72,13.87l-4.02,3.53c-.51-5.77-2.49-11.23-4.5-15.05l4.8-2.34Z" fill="#3a2780"/>
      </g>
    </g>
  </g>
</svg>