<?xml version="1.0" encoding="UTF-8"?>
<svg id="Layer_2" data-name="Layer 2" xmlns="http://www.w3.org/2000/svg" viewBox="0 0 33.54 50">
  <g id="Layer_1-2" data-name="Layer 1">
    <g>
      <rect width="33.54" height="50" fill="none"/>
      <g>
        <path d="m20.87,16.68c-2.23-1.71-5.87-2.79-8.94-3.05l1.55-1.14c-.13.71-.39,1.6-.31,3.05.09,1.82.66,4.05,3.31,5.37l-5.1,2.5c-1.91-1.55-3.06-4.6-3.06-7.54,0-3.15,2.22-6.16,6.24-7.92,4.25.63,9.38,2.71,9.38,7.72,0,8.11-9.9,12.22-19.26,12.22l-.21-5.24c5.18,0,6.82-1.32,7.96-1.79l-.07,1.64c3.45-1.51,6.79-4.89,7.79-8.14l.72,2.32Z" fill="#3a2780"/>
        <path d="m29.55,24.73l-2.31.91c.75-1.29,1.32-3.46,1.32-5.17s-.95-3.47-2.52-4.97c-1.83-1.74-4.31-3.2-7.34-4.11l3.39-4.61c2.97,1.21,4.82,2.45,6.86,4.12,3.07,2.52,4.6,5.47,4.6,9.13,0,3.69-1.72,7.49-3.98,10.3-2.46-1.28-6.98-2.85-9.96-3.64l.3-6.14c3.79.71,8.29,2.61,9.64,4.19" fill="#3a2780"/>
        <path d="m2.47,28.64l2.01-6c3.82,3.32,12.7,9.07,19.62,11.81l-3.18,8.78c-2.12-.98-6.28-1.54-9.22-1.54-3.41,0-9.17.66-11.7.66l.62-7.39h8.75c2.26,0,5.92,1.45,8.62,2.51l.26-.81c-4.35-1.68-12.05-5.46-15.79-8.03" fill="#3a2780"/>
      </g>
    </g>
  </g>
</svg>