<?xml version="1.0" encoding="UTF-8"?>
<svg id="Layer_2" data-name="Layer 2" xmlns="http://www.w3.org/2000/svg" viewBox="0 0 39.85 50">
  <g id="Layer_1-2" data-name="Layer 1">
    <g>
      <rect width="39.85" height="50" fill="none"/>
      <g>
        <path d="m22.88,38.02l-2.31,1.4c.76-1.3,1.32-2.64,1.32-4.35s-.95-2.98-2.52-4.48c-1.83-1.74-4.31-3.53-7.34-4.44l3.39-4.61c2.97,1.21,4.82,2.78,6.86,4.45,3.07,2.52,4.51,4.97,4.52,8.63,0,3.69-1.56,6.16-3.82,8.97-2.46-1.28-7.06-2.85-10.04-3.64l.3-6.14c3.79.71,8.29,2.61,9.64,4.19" fill="#3a2780"/>
        <path d="m.62,34.77c1.41,0,2.92-.07,3.82-.46l1.25,1.47c3.45-1.51,6.79-4.89,7.79-8.13l.72,2.32c-2.23-1.71-5.87-2.79-8.94-3.05l1.55-1.14c-.13.71-.38,1.6-.31,3.05.09,1.82.66,4.05,3.31,5.37l-5.1,2.5c-1.91-1.55-3.06-4.6-3.06-7.54,0-3.15,2.22-6.16,6.24-7.92,4.25.63,9.38,2.71,9.38,7.72,0,7.68-8.53,13.21-17.28,13.21l.62-7.39Z" fill="#3a2780"/>
        <path d="m39.85,20.93l-1.33,6.5c-2.4,0-8.02-1.88-10.38-3.23l1.44.05c-3.83,2.07-10.82,2.87-14.81,2.87l.64-5.57c3.72,0,10.9-.93,12.67-2.57,3.96,1.14,7.65,1.96,11.77,1.96" fill="#3a2780"/>
        <path d="m27.34,13.05c.49,1.28.7,4.12.7,5.35,0,1.64-.26,3.13-.87,4.93l-4.67-4.11c.26-1.08.46-3.12.46-4.1,0-1.44-.26-3.85-.56-5.34,3.58-.92,8.61-2.46,11.45-3.38,2.2.38,4.82,3.61,5.28,7.18l-4.88,2.05c-.26-.77-1.18-2.62-1.85-3.59l1.08.07c-1.56.79-4.15,1.69-6.48,2.29l.34-1.35Z" fill="#3a2780"/>
      </g>
    </g>
  </g>
</svg>