<?xml version="1.0" encoding="UTF-8"?>
<svg id="Layer_2" data-name="Layer 2" xmlns="http://www.w3.org/2000/svg" viewBox="0 0 14.66 50">
  <g id="Layer_1-2" data-name="Layer 1">
    <g>
      <rect width="14.66" height="50" fill="none"/>
      <g>
        <path d="m10.54,20.29l-.88,2.17c-1.03-.98-1.65-2.64-1.65-4.39,0-2.27.52-4.7,1.34-6.51l5.31,1.68c-.71,1.95-1.44,5.19-1.44,7.41,0,1.03.16,2.12.57,3.31-3.1,3.96-7.2,5.27-13.79,5.27l.62-7.39c2.35-.02,7.93-.15,9.92-1.55" fill="#1a171b"/>
        <path d="m10.49,33.21l-2.33,5.23c-1.16-.95-3.5-2.17-5.28-2.35l2.1-5.24c2.17.23,4.61,1.51,5.51,2.37" fill="#1a171b"/>
      </g>
    </g>
  </g>
</svg>