<?xml version="1.0" encoding="UTF-8"?>
<svg id="Layer_2" data-name="Layer 2" xmlns="http://www.w3.org/2000/svg" viewBox="0 0 29.48 50">
  <g id="Layer_1-2" data-name="Layer 1">
    <g>
      <rect width="29.48" height="50" fill="none"/>
      <path d="m16.02,16.13c2.62.18,7.35.77,9.74,1.22l1.14-6.18c-2.42-.33-5.73-.89-9.61-.85-1.83.73-3.18,2.07-4.08,3.88-1.76,3.53-1.5,10.22-1.9,14.23,1.39,1.42,5.3,2.07,10.43,2.07.63,0,2.84-.05,3.51-.14l-1.53-1.56c.33,1.64,1.23,4.39,2.07,6.02l.91-2.84c-2.83.84-7.76,1.46-13.75,1.46-5.46,0-7.26-1.9-7.26-5.11.08-2.42.25-5.51.88-9.36l-5.82-.87c-.51,4.19-.73,7.46-.73,10.35,0,8.69,4.59,11.24,11.43,11.24,5.67,0,13.94-1.61,18.05-3.17-.03-1.82,0-2.85-.31-4.86-.42-2.79-1.21-5.29-3.15-6.69-5.83,0-10.39-1.01-11.9-1.9l1.84,3.52c.05-3.33,1.09-8.61,2.3-11.78l-2.24,1.31Z" fill="#1a171b"/>
    </g>
  </g>
</svg>