<?xml version="1.0" encoding="UTF-8"?>
<svg id="Layer_2" data-name="Layer 2" xmlns="http://www.w3.org/2000/svg" viewBox="0 0 31.92 50">
  <g id="Layer_1-2" data-name="Layer 1">
    <g>
      <rect width="31.92" height="50" fill="none"/>
      <g>
        <path d="m11.43,43.44c6.39.02,12.71-1.87,17.99-5.49-1.03-4.26-1.52-7.91-1.93-12.26-.39-4.18-.95-6.04-2.04-7.5-1.56-2.1-5.62-3.05-8.66-3.04-2.06.89-3.69,2.33-4.42,4.77-.67,2.23-.71,8.14-1.16,10.91,1.73,1.27,4.84,2.27,9.75,2.27l3.34-5.12-.17-1.07c-4.12,0-6.02.11-10.12-1.22l1.85,3.44c.18-2.46.6-7.21,1.73-9.84l-1.81,1.19c1.13.17,1.92.33,3.21.61,2.63.56,3.19,1.45,3.56,4.6.67,5.73,1.12,8.58,2.6,11.11l1.15-3.2c-2.81,2.57-9.79,3.55-13.39,3.57-5.45,0-7.25-1.9-7.25-5.1.07-2.43.25-5.51.88-9.37l-5.82-.87c-.51,4.19-.72,7.46-.72,10.35,0,8.69,4.59,11.24,11.43,11.26" fill="#1a171b"/>
        <path d="m31.92,27.33l-.62,7.39c-1.71,0-4.95-1.92-6.24-2.88l-.48-5.95c2.14,1.11,4.04,1.45,7.34,1.45" fill="#1a171b"/>
        <path d="m13.23,6.56l-1.42,4.72c1.46.89,4.04,1.35,5.99,1.35s4.82-.19,6.9-.71l-.71-4.95c-1.12.22-3.79.44-5.61.47-2.01.03-3.94-.28-5.16-.88" fill="#1a171b"/>
      </g>
    </g>
  </g>
</svg>