<?xml version="1.0" encoding="UTF-8"?>
<svg id="Layer_2" data-name="Layer 2" xmlns="http://www.w3.org/2000/svg" viewBox="0 0 24.1 50">
  <g id="Layer_1-2" data-name="Layer 1">
    <g>
      <rect width="24.1" height="50" fill="none"/>
      <g>
        <path d="m15.05,25.15c-.78-1.95-1.41-5.09-1.41-8.46,0-4.4.28-8.35.49-11.09l5.31,1.17c-.48,4.96-.73,8.85-.74,12.81-.01,2.94.11,3.34.35,6.82-1.27,1.28-4.73,2.13-6.89,2.39-2.51.3-3.95.23-6.47.23l-1.22-5.2c5.6,0,9.81-.24,11.53-.98l-.95,2.31Z" fill="#3a2780"/>
        <path d="m2.47,29.81l2.01-6c3.82,3.32,12.7,9.07,19.62,11.81l-3.18,8.78c-2.12-.98-6.28-1.54-9.22-1.54-3.41,0-9.17.66-11.7.66l.62-7.39h8.75c2.26,0,5.92,1.45,8.62,2.51l.26-.81c-4.35-1.68-12.05-5.46-15.79-8.03" fill="#3a2780"/>
      </g>
    </g>
  </g>
</svg>