<?xml version="1.0" encoding="UTF-8"?>
<svg id="Layer_2" data-name="Layer 2" xmlns="http://www.w3.org/2000/svg" viewBox="0 0 28.72 50">
  <g id="Layer_1-2" data-name="Layer 1">
    <g>
      <rect width="28.72" height="50" fill="none"/>
      <g>
        <path d="m28.72,29.03l-.62,7.39c-2.92,0-9.82-4.63-15.43-10.68,0-1.55-1.33-5.16-2.58-7.58l4.28-3.67c1.34,2.58,2.42,6.88,2.32,9.41l-1.14-1.99c4.07,3.87,9.94,7.12,13.17,7.12" fill="#3a2780"/>
        <path d="m26.04,11.08l2.63,4.55c-.88,3.63-3.61,8.74-7.65,11.3l-3.72-3.07c2.85-1.81,5.49-5.75,6.22-9.33l1.29,2.5c-2.17-1.25-4.4-1.75-7.76-1.75-2.27,0-6.15.6-8.16,1.3l-1.03-5.5c2.27-.65,6.61-1.15,9.92-1.15,2.7,0,5.7.32,8.27,1.15" fill="#3a2780"/>
        <path d="m9.43,28.66l.12-1.95c1.51,1.8,4.41,4.44,6.58,5.78-.72,2.12-4.17,6.13-6.44,7.58-1.03-1.03-3.44-3.65-4.42-4.79-.93.72-2.69,1.14-5.27,1.14l.62-7.39h5.6l-1.14,1.68c0-3.12,1.08-5.53,2.54-6.98,1.64-.35,4.39-1.39,5.61-2.15l1.91,3.87c-1.14.99-3.55,2.68-5.72,3.21" fill="#3a2780"/>
        <path d="m28.72,29.03l-.62,7.39c-2.92,0-9.82-4.63-15.43-10.68,0-1.55-1.33-5.16-2.58-7.58l4.28-3.67c1.34,2.58,2.42,6.88,2.32,9.41l-1.14-1.99c4.07,3.87,9.94,7.12,13.17,7.12" fill="#3a2780"/>
      </g>
    </g>
  </g>
</svg>