<?xml version="1.0" encoding="UTF-8"?>
<svg id="Layer_2" data-name="Layer 2" xmlns="http://www.w3.org/2000/svg" viewBox="0 0 74.11 50">
  <g id="Layer_1-2" data-name="Layer 1">
    <g>
      <rect width="74.11" height="50" fill="none"/>
      <g>
        <path d="m67.58,21.97c-2.58.67-9.6,2.12-12.86,2.12l-.46,6.51c3.41,0,8.97-.69,12.1-1.91l2.3-4.87-1.08-1.84Z" fill="#3a2780"/>
        <path d="m61.82,14.27c1.76,4.53,3.49,7.61,5.29,9.08l-.02.73c1.66,2.66,4.45,5.65,6.4,5.65l.62-7.39c-1.55,0-1.96-.05-2.86-.35-.71-1.82-1.57-4.3-2.21-5.83-1.98-4.74-4.18-6.07-7.77-6.07-4.19,2.03-8.17,5.41-11.38,10.16l1.59,4.52.81.1c2.54-3.49,8.11-8.13,11.83-10.26l-2.3-.33Z" fill="#3a2780"/>
        <path d="m34.84,23.14c.74.54,3.47,1.09,5.49,1.13,1.4,2.81,1.85,4.97,2.93,9.11-3.42,3.17-13.6,6.61-22.34,6.53-7.03-.06-15.6-2.44-20.93-8.9l3.15-6.1c5.32,5.89,12.35,8.79,18.91,8.79,7.7,0,14.23-2.07,17.56-4.11l-.3,4.09c-.85-1.5-1.34-3.26-1.56-4.99-2.51-.21-5.43-.62-7.11-2.06.1-1.02.12-2.07.21-2.96.31-3.23,1.11-5.29,2.65-6.84,2.1-2.13,5.07-3.24,8.02-3.23,1.42,0,2.89.12,4.43.12l.62,8.54c2.17,1,6.26,1.81,8.14,1.81l-.47,6.51c-8.71,0-11.2-3.82-12.02-11.07-4.07,0-6.2.25-7.41,3.61" fill="#3a2780"/>
      </g>
    </g>
  </g>
</svg>