<?xml version="1.0" encoding="UTF-8"?>
<svg id="Layer_2" data-name="Layer 2" xmlns="http://www.w3.org/2000/svg" viewBox="0 0 28.92 50">
  <g id="Layer_1-2" data-name="Layer 1">
    <g>
      <rect width="28.92" height="50" fill="none"/>
      <g>
        <path d="m2.47,28.27l2.01-6c3.82,3.32,12.7,9.07,19.62,11.81l-3.18,8.78c-2.12-.98-6.28-1.54-9.22-1.54-3.41,0-9.17.66-11.7.66l.62-7.39h8.75c2.26,0,5.92,1.45,8.62,2.51l.26-.81c-4.35-1.68-12.05-5.46-15.79-8.03" fill="#3a2780"/>
        <path d="m28.92,21.66l-1.33,6.5c-2.4,0-8.02-1.88-10.38-3.23l1.44.05c-3.83,2.07-10.82,2.7-14.81,2.7l.64-5.41c3.73,0,10.9-.93,12.67-2.57,3.96,1.14,7.65,1.96,11.77,1.96" fill="#3a2780"/>
        <path d="m16.4,13.78c.49,1.28.7,4.12.7,5.35,0,1.64-.26,3.13-.87,4.93l-4.67-4.11c.26-1.08.46-3.12.46-4.1,0-1.44-.26-3.85-.56-5.34,3.58-.92,8.61-2.46,11.45-3.38,2.2.38,4.82,3.61,5.28,7.18l-4.88,2.05c-.26-.77-1.18-2.62-1.85-3.59l1.08.07c-1.56.79-4.15,1.69-6.48,2.29l.34-1.35Z" fill="#3a2780"/>
      </g>
    </g>
  </g>
</svg>