<?xml version="1.0" encoding="UTF-8"?>
<svg id="Layer_2" data-name="Layer 2" xmlns="http://www.w3.org/2000/svg" viewBox="0 0 30.82 50">
  <g id="Layer_1-2" data-name="Layer 1">
    <g>
      <rect width="30.82" height="50" fill="none"/>
      <g>
        <path d="m4.48,20.28c5.47,0,11.98-3.92,13.79-11.09,1.74.01,2.26-.13,3.79-.02,2.13.15,3.96.82,5.24,2.6,2.12,2.95,2.68,7.51,3.51,10.51-2.18,3.43-6.29,5.21-9.28,5.21-1.67,0-3.61-.62-4.9-1.5l-.05-6.49c1.91,1.29,3.18,1.54,5.2,1.54s3.75-.69,4.54-1.22l-.49,1.49c-.44-2.12-.69-4.08-1.22-5.25-.74-1.62-1.59-1.58-4.83-1.64l1.8-1.18c-2.54,9.71-11.85,12.35-17.62,12.35l.52-5.31Z" fill="#3a2780"/>
        <path d="m2.47,26.28l2.01-6c3.82,3.32,12.7,9.07,19.62,11.81l-3.18,8.78c-2.12-.98-6.28-1.54-9.22-1.54-3.41,0-9.17.66-11.7.66l.62-7.39h8.75c2.26,0,5.92,1.45,8.62,2.51l.26-.81c-4.35-1.68-12.05-5.46-15.79-8.03" fill="#3a2780"/>
      </g>
    </g>
  </g>
</svg>