<?xml version="1.0" encoding="UTF-8"?>
<svg id="Layer_2" data-name="Layer 2" xmlns="http://www.w3.org/2000/svg" viewBox="0 0 8.82 50">
  <g id="Layer_1-2" data-name="Layer 1">
    <g>
      <rect width="8.82" height="50" fill="none"/>
      <g>
        <path d="m2.81,25.95c-.2,4.93-.09,10.21,1.53,16.32l4.47-.72c-.88-4.67-1.27-9.13-.93-14.19.13-1.98.37-4.73.69-7.13l-5.31-.7c-.21,2.15-.38,4.44-.46,6.42" fill="#1a171b"/>
        <path d="m2.45,11.24l.27-.54c.16.7.21,1.78.21,2.37,0,.75-.11,1.6-.38,2.41L.46,13.34c.11-.48.21-1.34.21-1.72,0-.65,0-1.63-.06-2.21,1.31-.29,3.6-1.15,4.83-1.68,1.14.03,2.23,1.43,2.44,3.19l-2.2.91c-.11-.32-.46-1.27-.68-1.69l.49.18c-.62.3-2.04.75-3.03.92" fill="#1a171b"/>
        <path d="m8.1,12.66l.46,2.57c-2.9.32-5.09,1.16-6.93,2.78l-1.63-1.89c2.22-2.13,4.61-2.96,8.1-3.46" fill="#1a171b"/>
      </g>
    </g>
  </g>
</svg>