<?xml version="1.0" encoding="UTF-8"?>
<svg id="Layer_2" data-name="Layer 2" xmlns="http://www.w3.org/2000/svg" viewBox="0 0 30.42 50">
  <g id="Layer_1-2" data-name="Layer 1">
    <g>
      <rect width="30.42" height="50" fill="none"/>
      <g>
        <path d="m26.3,26.51l-.88,2.17c-1.03-.98-1.65-2.64-1.65-4.39,0-2.33.52-4.7,1.34-6.51l5.31,1.68c-.78,2.22-1.44,5.19-1.44,7.41,0,1.03.21,2.43.57,3.31-3.29,4.18-8.94,6.1-16.02,6.1-9.97,0-13.54-3.57-13.54-8.42,0-2.07.24-4.71.93-7.85l5.17,1.19c-.41,1.71-1.15,4.97-1.55,7.91l-1.28-2.4c1.45,1.26,6.35,2.66,10.84,2.66,3.91,0,8.83-.74,12.19-2.84" fill="#1a171b"/>
        <path d="m9.59,13.72l-1.41,4.72c1.46.89,4.04,1.35,5.99,1.35s4.82-.19,6.9-.71l-.71-4.95c-1.12.22-3.79.44-5.61.47-2.01.03-3.94-.28-5.16-.88" fill="#1a171b"/>
      </g>
    </g>
  </g>
</svg>