<?xml version="1.0" encoding="UTF-8"?>
<svg id="Layer_2" data-name="Layer 2" xmlns="http://www.w3.org/2000/svg" viewBox="0 0 36.98 50">
  <g id="Layer_1-2" data-name="Layer 1">
    <g>
      <rect width="36.98" height="50" fill="none"/>
      <path d="m15.01,18.37c-1.95,5.81-5.67,7.92-11.28,7.92l.72-1.05c.04,1.2.62,3.47,1.04,5.13l-1.17-1.4c.8.39,2.46,1.66,6.4,1.66,2.52,0,18.59-.32,26.26-.85l-2.05,6.83c-6.45.39-16.69,1.2-23.76,1.2-5.88,0-11.17-3.09-11.17-9.1,0-1.72.66-5.44,1.25-7.57,6.6-.83,9.86-4.63,12.26-8.97l5.54,1.3v6.14c1.11.36,2.61.58,4.28.58l-.62,7.39c-3.84,0-7.04-1.69-7.04-9.11" fill="#3a2780"/>
    </g>
  </g>
</svg>