<?xml version="1.0" encoding="UTF-8"?>
<svg id="Layer_2" data-name="Layer 2" xmlns="http://www.w3.org/2000/svg" viewBox="0 0 25.85 50">
  <g id="Layer_1-2" data-name="Layer 1">
    <g>
      <rect width="25.85" height="50" fill="none"/>
      <g>
        <path d="m22.04,44.15c-2.72.25-6.11.39-8.17.39-10.29,0-13.87-3.35-13.87-11.05,0-3.56,1.37-8.78,4.35-11.17,1.65-.44,6.2-.6,8.6-.58.71,0,2.31.07,4.95.3l.08-.84c-2.73-.4-4.61-.56-7.3-1.35-2.79-.81-6.3-2-8.7-3.72l3.41-7.53,1.87,5.61c.76.27,1.92.73,2.88,1.06,4.94,1.67,6.99,1.51,12.18,1.95l-.99,9.74c-1.93-.13-5.17-.3-7.96-.3-4.58,0-9.37.71-10.95,1.22l4.13-3.17c-.94,2.02-1.53,5.71-1.51,7.73.03,3.36.11,6.22,10.02,6.22,2.13,0,4.98-.17,7.54-.44l-.57,5.95Z" fill="#3a2780"/>
        <path d="m13.13,15.15c-.26-.03-.56-.07-.89-.13-1.19-.23-2.73-.88-4.16-1.33l-.42.99c-.14.33-1.2.25-1.62.24l-4.06,1.21,3.41-7.53c2.5.86,4.78,1.53,7.82,2.04,2.75-.71,6.24-2.51,10.38-5.17l2.25,5.49c-3.31,1.99-9.07,4.57-12.73,4.2" fill="#3a2780"/>
      </g>
    </g>
  </g>
</svg>