<?xml version="1.0" encoding="UTF-8"?>
<svg id="Layer_2" data-name="Layer 2" xmlns="http://www.w3.org/2000/svg" viewBox="0 0 39.13 50">
  <g id="Layer_1-2" data-name="Layer 1">
    <g>
      <rect width="39.13" height="50" fill="none"/>
      <g>
        <path d="m15.9,19.74l-2.33,5.23c-1.16-.95-3.5-2.17-5.28-2.35l2.1-5.24c2.17.23,4.61,1.51,5.51,2.37" fill="#3a2780"/>
        <path d="m17.37,13.33c.17,2.03.32,5.16.9,9.05.76,5.17,2.15,7.61,3.86,9.36l.57-2.33c-3.3,1.71-7.17,2.51-10.9,2.51-4.86,0-6.12-1.65-6.12-5.27,0-2.38.33-5.72.95-9.5l-5.82-.71c-.48,4.39-.8,8.59-.8,11.48,0,6.35,2.62,10.34,10.91,10.27,5.84-.05,10.99-1.74,14.98-4.96-.57-2.22-1.73-7.57-2.29-12.66-.1-.87-.18-2.02-.25-3.16l-2.25,1.46c3.15,0,7.18-.37,9.89-1.25l-1.34-.67c.42,6.8,3.19,10.95,8.85,10.95l.62-7.39c-2.04,0-4.01-.14-5.02-.62l-.71-8.12c-3.06.66-6.36.94-9.5,1.21-2.2.19-4.46.34-6.53.32" fill="#3a2780"/>
      </g>
    </g>
  </g>
</svg>