<?xml version="1.0" encoding="UTF-8"?>
<svg id="Layer_2" data-name="Layer 2" xmlns="http://www.w3.org/2000/svg" viewBox="0 0 50.96 50">
  <g id="Layer_1-2" data-name="Layer 1">
    <g>
      <rect width="50.96" height="50" fill="none"/>
      <g>
        <path d="m38.25,24.17l-.62,7.39c1.62,0,4.58-.77,5.38-1.44l1.62-6.78c-2.24.65-4.74.84-6.38.84" fill="#3a2780"/>
        <path d="m35.88,25.25l-1.24-2.94c.83,1.24,2.37,1.86,3.61,1.86l-.62,7.39c-3.46,0-4.67-3.06-4.67-8.11h-.73c0,5.59-1.68,8.11-6.12,8.11l.62-7.39c2.2,0,3.66-1.63,4.08-6.54h5.39l-.32,7.62Z" fill="#3a2780"/>
        <path d="m5.08,25.8c0-4.43,2.1-7.81,5.95-9.86,3.12-1.67,6.06-1.03,10.01-1.03l.56,8.67c1.08.46,4.06.59,5.14.59l-.62,7.39c-6.42,0-8.23-5.18-8.8-10.86-4.07,0-5.86-.28-8.07,3.3l.31-2.14c1.03,1.4,3.73,3.76,6.58,5.78-.72,2.12-4.17,6.13-6.44,7.58-1.03-1.03-3.44-3.65-4.42-4.79-.93.72-2.69,1.14-5.27,1.14l.62-7.39h5.99l-1.53,1.63Z" fill="#3a2780"/>
        <path d="m50.34,31.56l.62-7.39c-.96,0-2.4-.12-3.11-.4-.58-2.69-.4-5.19.03-7.88l-5.35-.82c-.76,2.98-.41,7.43.36,10.35l.84.4c1.55,3.51,4.11,5.74,6.61,5.74" fill="#3a2780"/>
      </g>
    </g>
  </g>
</svg>