<?xml version="1.0" encoding="UTF-8"?>
<svg id="Layer_2" data-name="Layer 2" xmlns="http://www.w3.org/2000/svg" viewBox="0 0 24.1 50">
  <g id="Layer_1-2" data-name="Layer 1">
    <g>
      <rect width="24.1" height="50" fill="none"/>
      <g>
        <path d="m2.47,30.04l2.01-6c3.82,3.32,12.7,9.07,19.62,11.81l-3.18,8.78c-2.12-.98-6.28-1.54-9.22-1.54-3.41,0-9.17.66-11.7.66l.62-7.39h8.75c2.26,0,5.92,1.45,8.62,2.51l.26-.81c-4.35-1.68-12.05-5.46-15.79-8.03" fill="#3a2780"/>
        <path d="m3.79,29.29c4.48.22,10.3.83,15.14-.51,1.72-.48,3.31-.81,4.67-1.74-.73-3.66-1.24-7.77-1.64-12.12-.39-4.18-.95-5.05-2.04-6.51-1.56-2.09-5.3-3.05-8.33-3.04-2.06.89-3.7,2.33-4.42,4.77-.67,2.23-.71,6.98-1.16,9.76,1.73,1.27,4.5,2.26,9.42,2.26l3.34-4.79-.17-1.07c-4.12,0-5.69.11-9.79-1.22l1.85,3.44c.18-2.45.6-6.54,1.73-9.17l-1.8,1.03c.81.13,1.6.25,2.88.52,2.63.56,3.2.88,3.56,4.02.67,5.73,1.12,8.08,2.6,10.62l1.15-3.03c-.74.6-2.14,1-3.84,1.28-4.18.69-9.8.26-12.45.26l-.69,5.24Z" fill="#3a2780"/>
      </g>
    </g>
  </g>
</svg>