<?xml version="1.0" encoding="UTF-8"?>
<svg id="Layer_2" data-name="Layer 2" xmlns="http://www.w3.org/2000/svg" viewBox="0 0 47.56 50">
  <g id="Layer_1-2" data-name="Layer 1">
    <g>
      <rect width="47.56" height="50" fill="none"/>
      <g>
        <path d="m34.85,20.74l-.62,7.39c1.62,0,4.58-.77,5.38-1.44l1.62-6.78c-2.25.65-4.74.84-6.38.84" fill="#3a2780"/>
        <path d="m46.94,28.13l.62-7.39c-.96,0-2.4-.12-3.11-.4-.58-2.69-.4-5.19.03-7.88l-5.35-.82c-.76,2.98-.41,7.43.36,10.35l.84.4c1.55,3.51,4.11,5.74,6.62,5.74" fill="#3a2780"/>
        <path d="m32.48,21.82l-1.24-2.94c.83,1.24,2.37,1.86,3.61,1.86l-.62,7.39c-3.46,0-4.67-3.06-4.67-8.11h-.73c0,5.59-1.68,8.11-6.12,8.11l.62-7.39c2.2,0,3.66-1.63,4.08-6.54h5.39l-.32,7.62Z" fill="#3a2780"/>
        <path d="m15.01,18.91c-1.95,5.81-5.67,7.92-11.28,7.92l.72-1.05c.04,1.2.62,3.47,1.04,5.13l-1.17-1.4c.8.39,2.46,1.66,6.4,1.66,2.52,0,18.59-.32,26.26-.85l-2.05,6.83c-6.45.39-16.69,1.2-23.76,1.2-5.88,0-11.17-3.09-11.17-9.1,0-1.72.66-5.44,1.25-7.57,6.6-.83,9.86-4.63,12.26-8.97l5.54,1.3v6.14c1.11.36,2.61.58,4.28.58l-.62,7.39c-3.84,0-7.04-1.69-7.04-9.11" fill="#3a2780"/>
      </g>
    </g>
  </g>
</svg>