<?xml version="1.0" encoding="UTF-8"?>
<svg id="Layer_2" data-name="Layer 2" xmlns="http://www.w3.org/2000/svg" viewBox="0 0 27.74 50">
  <g id="Layer_1-2" data-name="Layer 1">
    <g>
      <rect width="27.74" height="50" fill="none"/>
      <path d="m12.09,15.94c-.45,2.18-.73,4.42-.64,6.9.1,3.06,1.14,6.83,1.89,8.71-2.77,2.56-5.99,5.45-9.8,8.01l-3.54-4.52c3.06-1.95,7.09-4.7,9.79-6.99l-.34,2.88c-1.28-1.37-3.22-3.41-3.4-8.84-.13-3.85.45-7.42,1.3-10.27,3.62.03,10.76-.55,14.66-1.39l.71,8.12c1.01.48,2.99.62,5.02.62l-.62,7.39c-5.66,0-8.43-4.15-8.85-10.95l1.34.67c-2.71.87-6.74,1.24-9.9,1.24l2.38-1.59Z" fill="#3a2780"/>
    </g>
  </g>
</svg>