<?xml version="1.0" encoding="UTF-8"?>
<svg id="Layer_2" data-name="Layer 2" xmlns="http://www.w3.org/2000/svg" viewBox="0 0 25.32 50">
  <g id="Layer_1-2" data-name="Layer 1">
    <g>
      <rect width="25.32" height="50" fill="none"/>
      <g>
        <path d="m4.48,25.39c4.71.24,10.84.05,14.83-.89l-1.1,2.88c-1-.64-1.37-2.65-1.64-5.52-1.75-.93-6.16-2.41-8.81-2.71l.76-8.69c4.4-.4,9.91-2.83,14.41-6.43l2.4,5.45c-4.25,3-8.47,4.83-11.42,4.83h-1.35l-.05.65c6.93,1.5,8.78,3.38,9.23,8.33.21,2.27.18,3.84.24,6.02-3.56,1.08-11.9,1.56-17.03,1.38l-.47-5.29Z" fill="#3a2780"/>
        <path d="m2.47,31.39l2.01-6c3.82,3.32,12.7,9.07,19.62,11.81l-3.18,8.78c-2.12-.98-6.28-1.54-9.22-1.54-3.41,0-9.17.66-11.7.66l.62-7.39h8.75c2.26,0,5.92,1.45,8.62,2.51l.26-.81c-4.35-1.68-12.05-5.46-15.79-8.03" fill="#3a2780"/>
      </g>
    </g>
  </g>
</svg>