<?xml version="1.0" encoding="UTF-8"?>
<svg id="Layer_2" data-name="Layer 2" xmlns="http://www.w3.org/2000/svg" viewBox="0 0 26.74 50">
  <g id="Layer_1-2" data-name="Layer 1">
    <g>
      <rect width="26.74" height="50" fill="none"/>
      <path d="m5.08,25.8c0-4.43,2.1-7.81,5.95-9.86,3.12-1.67,6.06-1.03,10.01-1.03l.56,8.67c1.08.46,4.06.59,5.14.59l-.62,7.39c-6.42,0-8.23-5.18-8.8-10.86-4.07,0-5.86-.28-8.07,3.3l.31-2.14c1.03,1.4,3.73,3.76,6.58,5.78-.72,2.12-4.17,6.13-6.44,7.58-1.03-1.03-3.44-3.65-4.42-4.79-.93.72-2.69,1.14-5.27,1.14l.62-7.39h5.99l-1.53,1.63Z" fill="#3a2780"/>
    </g>
  </g>
</svg>