<?xml version="1.0" encoding="UTF-8"?>
<svg id="Layer_2" data-name="Layer 2" xmlns="http://www.w3.org/2000/svg" viewBox="0 0 51.67 50">
  <g id="Layer_1-2" data-name="Layer 1">
    <g>
      <rect width="51.67" height="50" fill="none"/>
      <g>
        <path d="m12.23,31.19c-1.45-1.39-4.07-4.29-4.48-5.27-.51.19-1.46.34-2.22.35-.76.01-2.03-.13-2.53-.28l2.17-1.36c0,5.63.39,11.19,1.13,16.01l-5.52,1.46C.35,38.54,0,34.28,0,32.07,0,29.06-.11,25.77,1.33,23.28c.64-1.11,1.59-2.07,3-2.77.81,0,3.85-.1,5.34-.63l-2.04,1.92c0-4.62,2.12-7.75,5.76-9.73,2.94-1.61,7.11-1.59,10.17-1.08l.68,9.11c1.54.48,4.95,1.81,8.05,1.81l-.46,6.51c-9.83,0-11.48-5.1-12.1-11.77-5.14,0-6.71,1.21-8.52,4.1l.9-2.9c1.03,1.39,3.73,3.76,6.58,5.77-.72,2.12-4.17,6.13-6.44,7.58" fill="#3a2780"/>
        <path d="m45.13,19.78c-2.58.67-9.6,2.12-12.86,2.12l-.46,6.51c3.41,0,8.97-.69,12.1-1.91l2.3-4.87-1.08-1.84Z" fill="#3a2780"/>
        <path d="m39.38,12.08c1.76,4.53,3.49,7.61,5.29,9.08l-.02.73c1.66,2.66,4.45,5.65,6.4,5.65l.62-7.39c-1.55,0-1.96-.05-2.86-.35-.71-1.82-1.57-4.3-2.21-5.83-1.98-4.74-4.18-6.07-7.77-6.07-4.19,2.03-8.17,5.41-11.38,10.16l1.59,4.52.81.1c2.54-3.49,8.11-8.13,11.83-10.26l-2.3-.33Z" fill="#3a2780"/>
      </g>
    </g>
  </g>
</svg>