<?xml version="1.0" encoding="UTF-8"?>
<svg id="Layer_2" data-name="Layer 2" xmlns="http://www.w3.org/2000/svg" viewBox="0 0 32.12 50">
  <g id="Layer_1-2" data-name="Layer 1">
    <g>
      <rect width="32.12" height="50" fill="none"/>
      <path d="m15.29,22.8c.74.54,3.47,1.09,5.49,1.13,1.33,1.46,2.14,6.66,2.17,9.94-2.64,1.35-7.79,2.85-11.45,2.85-6.92,0-11.51-2.55-11.51-11.24,0-2.89.21-6.16.72-10.35l5.91.87c-.63,3.85-.8,6.94-.88,9.37,0,3.2,1.72,5.27,7.18,5.27,2.02,0,3.48-.21,5.66-.48l-.38-1.79c-2.51-.21-5.43-.62-7.11-2.06.09-1.02.12-2.07.21-2.96.31-3.23,1.11-5.29,2.65-6.84,2.1-2.13,5.07-3.24,8.02-3.23,1.42,0,2.89.12,4.43.12l.56,8.01c1.09.46,4.06.59,5.14.59l-.62,7.39c-6.42,0-8.23-4.52-8.8-10.2-4.07,0-6.2.25-7.41,3.61" fill="#3a2780"/>
    </g>
  </g>
</svg>