<?xml version="1.0" encoding="UTF-8"?>
<svg id="Layer_2" data-name="Layer 2" xmlns="http://www.w3.org/2000/svg" viewBox="0 0 13.54 50">
  <g id="Layer_1-2" data-name="Layer 1">
    <g>
      <rect width="13.54" height="50" fill="none"/>
      <g>
        <path d="m3.84,22.66l.55-.85c.26,1.11.33,2.53.33,3.46,0,1.19-.3,2.67-.72,3.94l-3.46-3.48c.17-.77.35-2.46.35-3.06,0-1.02-.19-2.52-.44-3.62,2.54-.68,6.96-1.97,8.47-2.49,1.7.39,3.19,2.23,3.66,5.37l-3.71,1.54c-.17-.51-.66-2.14-1.01-2.81l.84.43c-1.32.53-3.39,1.18-4.86,1.56" fill="#1a171b"/>
        <path d="m12.8,24.49l.74,4.4c-4.2.49-7.9,2.01-10.79,4.54l-2.75-3.54c3.46-3.32,7.35-4.62,12.8-5.4" fill="#1a171b"/>
      </g>
    </g>
  </g>
</svg>