<?xml version="1.0" encoding="UTF-8"?>
<svg id="Layer_2" data-name="Layer 2" xmlns="http://www.w3.org/2000/svg" viewBox="0 0 46.43 50">
  <g id="Layer_1-2" data-name="Layer 1">
    <g>
      <rect width="46.43" height="50" fill="none"/>
      <g>
        <path d="m42.59,24.68c-3.44.97-10.34,2.12-12.86,2.12l-.46,6.51c7.46,0,14.19-1.69,17.16-7.02-.86-2.74-1.54-4.79-2.64-7.42-2.21-5.31-4.52-5.93-7.77-6.07-4.45,2-9.31,6.74-11.38,10.16l1.59,4.53.81.1c2.12-3.11,8.7-8.76,11.83-10.26l-2.3-.33c1.15,2.75,3.26,7.68,5.31,8.99l.7-1.29Z" fill="#3a2780"/>
        <path d="m9.56,23.85c1.03,1.4,3.73,3.76,6.58,5.78-.72,2.12-4.17,6.13-6.44,7.58-1.03-1.03-3.44-3.65-4.42-4.79-.93.72-2.69,1.14-5.27,1.14l.62-7.39h5.99l-1.53,1.63c0-4.6,2.12-8.07,5.76-10.05,2.94-1.61,7.11-2.25,10.17-1.74l.68,9.1c1.54.48,4.95,1.69,8.05,1.69l-.47,6.51c-9.83,0-11.48-4.99-12.1-11.66-5.14,0-6.71,2.2-8.52,5.1l.9-2.9Z" fill="#3a2780"/>
      </g>
    </g>
  </g>
</svg>