<?xml version="1.0" encoding="UTF-8"?>
<svg id="Layer_2" data-name="Layer 2" xmlns="http://www.w3.org/2000/svg" viewBox="0 0 43.64 50">
  <g id="Layer_1-2" data-name="Layer 1">
    <g>
      <rect width="43.64" height="50" fill="none"/>
      <g>
        <path d="m2.47,26.77l2.01-6c3.82,3.32,12.7,9.07,19.62,11.81l-3.18,8.78c-2.12-.98-6.28-1.54-9.22-1.54-3.41,0-9.17.66-11.7.66l.62-7.39h8.75c2.26,0,5.92,1.45,8.62,2.51l.26-.81c-4.35-1.68-12.05-5.46-15.79-8.03" fill="#3a2780"/>
        <path d="m39.91,20.18c-3.34.95-10.05,2.06-12.49,2.06l-.45,6.32c7.25,0,13.79-1.64,16.67-6.81-.84-2.66-1.5-4.66-2.56-7.21-2.15-5.15-4.39-5.76-7.55-5.9-4.32,1.94-9.04,6.55-11.05,9.87l1.55,4.39.79.1c2.06-3.02,8.45-8.51,11.49-9.97l-2.23-.32c1.12,2.67,3.16,7.46,5.16,8.73l.68-1.25Z" fill="#3a2780"/>
        <path d="m4.48,20.77c2.48-6.39,10.41-7.32,14.93-7.32l1.06,8.01c1.08.47,5.87.78,6.96.78l-.45,6.32c-7.45,0-10.55-3.64-11.12-9.32-4.35.6-6.72,2.07-8.96,5.77l-2.42-4.23Z" fill="#3a2780"/>
      </g>
    </g>
  </g>
</svg>