<?xml version="1.0" encoding="UTF-8"?>
<svg id="Layer_2" data-name="Layer 2" xmlns="http://www.w3.org/2000/svg" viewBox="0 0 47.17 50">
  <g id="Layer_1-2" data-name="Layer 1">
    <g>
      <rect width="47.17" height="50" fill="none"/>
      <g>
        <path d="m19.74,20.54c1.54.48,4.95,1.81,8.05,1.81l-.46,6.51c-9.83,0-11.48-5.1-12.1-11.77l1.41.62c-1.71.73-4.77,1.24-7.25,1.24l2.38-1.59c-.45,2.18-.73,4.42-.64,6.9.1,3.06,1.47,7.49,2.22,9.37-2.77,2.56-5.99,5.45-9.8,8.01l-3.54-4.52c3.06-1.95,7.09-4.7,9.79-6.99l-.34,2.88c-1.28-1.37-3.55-4.08-3.74-9.5-.13-3.85.45-7.42,1.3-10.27,3.62.02,8.48-.7,12.01-1.39l.71,8.68Z" fill="#3a2780"/>
        <path d="m40.64,20.23c-2.58.67-9.6,2.12-12.86,2.12l-.46,6.51c3.41,0,8.97-.69,12.1-1.91l2.3-4.87-1.08-1.84Z" fill="#3a2780"/>
        <path d="m34.89,12.54c1.76,4.53,3.49,7.61,5.29,9.08l-.02.73c1.66,2.66,4.45,5.65,6.4,5.65l.62-7.39c-1.55,0-1.96-.05-2.86-.35-.71-1.82-1.57-4.3-2.21-5.83-1.98-4.74-4.18-6.07-7.77-6.07-4.19,2.03-8.17,5.41-11.38,10.16l1.59,4.52.81.1c2.54-3.49,8.11-8.13,11.83-10.26l-2.3-.33Z" fill="#3a2780"/>
      </g>
    </g>
  </g>
</svg>