<?xml version="1.0" encoding="UTF-8"?>
<svg id="Layer_2" data-name="Layer 2" xmlns="http://www.w3.org/2000/svg" viewBox="0 0 30.9 50">
  <g id="Layer_1-2" data-name="Layer 1">
    <g>
      <rect width="30.9" height="50" fill="none"/>
      <g>
        <path d="m24.93,18.58c-.84-.06-1.84-.05-3.02-.05-4.98,0-9.9,2.47-14.6,2.34l-1.84-.25-.99-3.89c5.87-1.45,11.87-4.05,17.86-3.88,1.61.05,2.95.39,4.22.91.25,1.81.97,6.53,1.29,8.52.7.34,1.89.52,3.04.52l-.62,7.39c-4.13,0-6.41-3.56-7.21-7.65-.5-2.55-.87-3.77-.91-5.91l2.77,1.94Z" fill="#3a2780"/>
        <path d="m2.47,22.73l2.01-6c3.82,3.32,11.7,9.07,18.63,11.81l-3.18,8.62c-2.12-.98-5.29-1.62-8.23-1.62-3.41,0-8.6.91-11.7.91l.62-7.39h8.42c2.26,0,5.26,1.45,7.96,2.51l.26-.81c-4.35-1.68-11.06-5.46-14.8-8.03" fill="#3a2780"/>
      </g>
    </g>
  </g>
</svg>