<?xml version="1.0" encoding="UTF-8"?>
<svg id="Layer_2" data-name="Layer 2" xmlns="http://www.w3.org/2000/svg" viewBox="0 0 9.39 50">
  <g id="Layer_1-2" data-name="Layer 1">
    <g>
      <rect width="9.39" height="50" fill="none"/>
      <path d="m5.63,24.24l.75-2.24c-.75-.4-1.55-.78-2.52-.94-.76.54-2.34,1.3-3.4,1.44-.23.69-.46,2.32-.46,3.21,0,2.43,1.35,3.23,4.08,3.23,1.62,0,3.22-.01,4.43-.17l.88-2.5c-.83.07-2.91.13-4.99.13-1.24,0-2.47-.23-2.91-.4l.76.73c-.17-.6-.49-2.19-.49-2.94l-.61.74c.79-.07,1.97-.53,2.57-.98.46.08,1.37.37,1.91.69" fill="#1a171b"/>
    </g>
  </g>
</svg>