<?xml version="1.0" encoding="UTF-8"?>
<svg id="Layer_2" data-name="Layer 2" xmlns="http://www.w3.org/2000/svg" viewBox="0 0 51.67 50">
  <g id="Layer_1-2" data-name="Layer 1">
    <g>
      <rect width="51.67" height="50" fill="none"/>
      <path d="m34.84,21.37c.74.54,3.47,1.09,5.49,1.13,1.4,2.81,1.85,4.97,2.93,9.11-3.42,3.17-13.6,6.61-22.34,6.53-7.03-.06-15.6-2.44-20.93-8.9l3.15-6.1c5.32,5.89,12.35,8.79,18.91,8.79,7.7,0,14.23-2.07,17.56-4.11l-.3,4.09c-.85-1.5-1.34-3.26-1.56-4.99-2.51-.21-5.43-.62-7.11-2.06.1-1.02.12-2.07.21-2.96.31-3.23,1.11-5.29,2.65-6.84,2.1-2.13,5.07-3.24,8.02-3.23,1.42,0,2.89.12,4.43.12l.56,8.01c1.09.46,4.06.59,5.14.59l-.62,7.39c-6.42,0-8.23-4.52-8.8-10.2-4.07,0-6.2.25-7.41,3.61" fill="#3a2780"/>
    </g>
  </g>
</svg>