<?xml version="1.0" encoding="UTF-8"?>
<svg id="Layer_2" data-name="Layer 2" xmlns="http://www.w3.org/2000/svg" viewBox="0 0 48.99 50">
  <g id="Layer_1-2" data-name="Layer 1">
    <g>
      <rect width="48.99" height="50" fill="none"/>
      <g>
        <path d="m11.76,15.79c-.45,2.18-.73,4.42-.64,6.9.1,3.06,1.47,7.49,2.22,9.37-2.77,2.56-5.99,5.45-9.8,8.01l-3.54-4.52c3.06-1.95,7.09-4.7,9.79-6.99l-.34,2.88c-1.28-1.37-3.55-4.08-3.74-9.5-.13-3.85.45-7.42,1.3-10.27,3.62.03,8.48-.7,12.01-1.39l.71,8.12c1.01.48,2.99.62,5.02.62l-.62,7.39c-5.66,0-8.43-4.15-8.85-10.95l1.34.67c-1.71.73-4.77,1.24-7.25,1.24l2.38-1.59Z" fill="#3a2780"/>
        <path d="m33.91,20.11l-1.24-2.94c.83,1.24,2.37,1.86,3.61,1.86l-.62,7.39c-3.46,0-4.67-3.06-4.67-8.11h-.73c0,5.59-1.68,8.11-6.12,8.11l.62-7.39c2.2,0,3.66-1.63,4.08-6.54h5.39l-.32,7.62Z" fill="#3a2780"/>
        <path d="m36.28,19.03l-.62,7.39c1.62,0,4.58-.77,5.38-1.44l1.62-6.78c-2.25.65-4.74.84-6.38.84" fill="#3a2780"/>
        <path d="m48.37,26.41l.62-7.39c-.96,0-2.4-.12-3.11-.4-.58-2.69-.4-5.19.03-7.88l-5.35-.82c-.76,2.98-.41,7.43.36,10.35l.84.4c1.55,3.51,4.11,5.74,6.61,5.74" fill="#3a2780"/>
      </g>
    </g>
  </g>
</svg>