<?xml version="1.0" encoding="UTF-8"?>
<svg id="Layer_2" data-name="Layer 2" xmlns="http://www.w3.org/2000/svg" viewBox="0 0 35.54 50">
  <g id="Layer_1-2" data-name="Layer 1">
    <g>
      <rect width="35.54" height="50" fill="none"/>
      <g>
        <polygon points="20.15 26.17 16.33 26.17 16.33 33.63 19.53 33.63 20.15 26.17" fill="#3a2780" fill-rule="evenodd"/>
        <path d="m4.59,19.41c1.11.18,2.58.34,3.87.61,2.64.57,3.2,1.48,3.55,4.64.68,5.8,1.13,10,2.6,12.56l1.15-3.21c-3.32,3.04-11.05,3.51-15.41,3.71l.57,6.29c6.48-.1,12.62-1.91,17.95-5.62-1.04-4.3-1.52-9.31-1.91-13.71-.39-4.24-.96-6.11-2.05-7.59-1.56-2.11-6.29-3.08-9.32-3.06-2.07.89-3.69,2.35-4.43,4.81-.66,2.25-.7,9.57-1.15,12.37,1.72,1.28,5.51,2.29,10.41,2.29l3.36-5.86-.17-1.24c-1.76,0-5.2.06-6.86-.16-1.21-.16-2.48-.43-3.92-.91l1.84,3.47c.2-2.47.6-7.93,1.74-10.59l-1.8,1.2Z" fill="#3a2780"/>
        <path d="m20.15,26.17c2.42,0,3.75-.97,4.73-6.67.84-4.91,1.09-9.49,1.31-13.51l7.01,1.08c.02,3.45-.14,8.26-.45,12.19-.29,3.75-.62,7.79-1.02,10.73l-.8-2.6c1.05.51,2.48.87,4.61.87l-.62,7.48c-4.31,0-6.54-2.45-6.56-7.48,0-.69.08-1.85.16-2.62l.78-6.71-.74-.1-.96,6.69c-.59,4.79-4.24,8.11-8.06,8.11l.62-7.46Z" fill="#3a2780"/>
      </g>
    </g>
  </g>
</svg>