<?xml version="1.0" encoding="UTF-8"?>
<svg id="Layer_2" data-name="Layer 2" xmlns="http://www.w3.org/2000/svg" viewBox="0 0 50.47 50">
  <g id="Layer_1-2" data-name="Layer 1">
    <g>
      <rect width="50.47" height="50" fill="none"/>
      <g>
        <path d="m43.04,10.36l5.27.66-.31,7.63-1.57-2.32c1.14.83,2.66,1.24,4.05,1.24l-.62,7.37c-2.81,0-5.06-1.66-5.06-8.11h-.65c-.27,3.12-3.38,5.24-7.32,6.63-4.87,1.72-10.36,2.32-14.04,2.32-8.41,0-17.06-1.16-22.78-4.36l2.43-5.99c6.66,2.59,14.19,3.27,20.76,3.42,2.11.05,6.29-.02,10.74-1.12,4.47-1.11,8.55-3.25,9.1-7.37" fill="#3a2780"/>
        <path d="m21.13,34.51l-1.68-4.53c1.42-.87,4.25-1.47,6.15-1.47s4.71.41,6.74.92l-.7,4.91c-1.64-.4-3.73-.71-5.48-.76-1.96-.06-3.85.35-5.04.94" fill="#3a2780"/>
        <path d="m29.24,35.19l-1.98,4.45c-.99-.81-2.98-1.85-4.5-2.01l1.79-4.47c1.85.19,3.93,1.28,4.69,2.02" fill="#3a2780"/>
      </g>
    </g>
  </g>
</svg>