<?xml version="1.0" encoding="UTF-8"?>
<svg id="Layer_2" data-name="Layer 2" xmlns="http://www.w3.org/2000/svg" viewBox="0 0 32.93 50">
  <g id="Layer_1-2" data-name="Layer 1">
    <g>
      <rect width="32.93" height="50" fill="none"/>
      <path d="m9.12,27.29l.44-1.51c1.03,1.39,3.73,3.76,6.58,5.77-.72,2.12-4.17,6.13-6.44,7.58-1.03-1.03-3.44-3.65-4.42-4.79-.93.72-2.69,1.14-5.27,1.14l.62-7.39h5.99l-1.53,1.63c0-3.74.54-6.07,2.14-7.52,3.07-.35,5.99-1.25,8.34-3.27,2.18-1.87,3.96-4.56,4.83-8,1.74.01,2.26-.13,3.79-.02,2.13.15,3.96.82,5.24,2.6,2.12,2.95,2.68,7.51,3.51,10.5-2.18,3.43-6.29,5.21-9.28,5.21-1.67,0-3.61-.62-4.9-1.5l-.05-6.49c1.91,1.29,3.18,1.54,5.2,1.54s3.75-.69,4.54-1.22l-.49,1.49c-.43-2.12-.69-4.08-1.22-5.25-.74-1.62-1.59-1.58-4.83-1.64l1.8-1.18c-2.23,8.55-8.89,11.69-14.58,12.31" fill="#3a2780"/>
    </g>
  </g>
</svg>