<?xml version="1.0" encoding="UTF-8"?>
<svg id="Layer_2" data-name="Layer 2" xmlns="http://www.w3.org/2000/svg" viewBox="0 0 40.49 50">
  <g id="Layer_1-2" data-name="Layer 1">
    <g>
      <rect width="40.49" height="50" fill="none"/>
      <g>
        <path d="m33.99,22.63c0,6.17,1.53,9.03,5.89,9.03l.62-7.39c-1.74,0-3.99-.38-4.81-1.12l1.5,2.21.61-8.12-5.06-1.32c-1.78,2.33-3.48,3.86-5.51,4.84-2.29,1.1-4.12,1.44-7.08,1.44l-.62,7.39c4.75,0,10.61-2.02,13.83-7.16l.63.2Z" fill="#3a2780"/>
        <polygon points="20.15 22.19 16.31 22.19 16.31 29.58 19.53 29.58 20.15 22.19" fill="#3a2780" fill-rule="evenodd"/>
        <path d="m4.58,15.5c1.13.17,2.58.33,3.88.61,2.63.56,3.19,1.46,3.56,4.6.67,5.73,1.12,9.9,2.6,12.43l1.15-3.2c-3.33,3.01-11.07,3.48-15.42,3.68l.58,6.22c6.48-.1,12.6-1.89,17.94-5.56-1.03-4.26-1.52-9.23-1.93-13.58-.39-4.18-.95-6.04-2.04-7.5-1.56-2.1-6.29-3.05-9.32-3.04-2.06.89-3.69,2.33-4.42,4.78-.67,2.23-.71,9.46-1.16,12.24,1.73,1.27,5.5,2.27,10.42,2.27l3.34-5.79-.17-1.24c-1.76,0-5.2.05-6.86-.16-1.21-.15-2.47-.42-3.92-.9l1.85,3.44c.18-2.46.6-7.87,1.73-10.5l-1.8,1.19Z" fill="#3a2780"/>
      </g>
    </g>
  </g>
</svg>