<?xml version="1.0" encoding="UTF-8"?>
<svg id="Layer_2" data-name="Layer 2" xmlns="http://www.w3.org/2000/svg" viewBox="0 0 32.91 50">
  <g id="Layer_1-2" data-name="Layer 1">
    <g>
      <rect width="32.91" height="50" fill="none"/>
      <g>
        <path d="m26.58,29.56c-.57,6.51-6.89,8.94-13.04,8.94-9.97,0-13.54-3.57-13.54-8.42,0-2.07.24-4.71.93-7.85l5.17,1.19c-.41,1.71-1.15,4.97-1.55,7.91l-1.28-2.4c1.45,1.26,6.35,2.65,10.88,2.66,6.21.02,10.4-1.47,11.33-8.49l5.27.66-.31,7.63-1.4-2.48c1.14.83,2.63,1.4,3.89,1.4l-.62,7.39c-2.81,0-5.06-1.66-5.06-8.11h-.65Z" fill="#1a171b"/>
        <path d="m20.21,23.14l1.68-4.53c-1.42-.87-4.25-1.47-6.15-1.47s-4.71.41-6.74.92l.7,4.91c1.64-.4,3.73-.71,5.48-.76,1.96-.06,3.85.35,5.04.94" fill="#1a171b"/>
        <path d="m18.58,13.52l-1.98,4.45c-.99-.81-2.98-1.85-4.5-2l1.79-4.47c1.85.19,3.93,1.28,4.69,2.02" fill="#1a171b"/>
      </g>
    </g>
  </g>
</svg>