<?xml version="1.0" encoding="UTF-8"?>
<svg id="Layer_2" data-name="Layer 2" xmlns="http://www.w3.org/2000/svg" viewBox="0 0 53.13 50">
  <g id="Layer_1-2" data-name="Layer 1">
    <g>
      <rect width="53.13" height="50" fill="none"/>
      <g>
        <path d="m41.26,23.87l-1.24-2.94c.83,1.24,2.37,1.86,3.61,1.86l-.62,7.39c-3.46,0-4.67-3.06-4.67-8.11h-.73c0,5.59-1.68,8.11-6.12,8.11l.62-7.39c2.2,0,3.66-1.63,4.08-6.54h5.39l-.32,7.62Z" fill="#3a2780"/>
        <path d="m49.01,20.9l-.71,2.83c-1.03-.98-1.82-2.97-1.82-4.72,0-2.27.55-4.49,1.34-6.51l5.31,1.68c-.73,2.12-1.44,5.19-1.44,7.41,0,1.03.16,2.12.57,3.31-2.74,3.2-5.76,5.27-9.25,5.27l.62-7.39c2.35-.02,3.39-.48,5.37-1.88" fill="#3a2780"/>
        <path d="m15.29,23.58c.74.54,3.47,1.09,5.49,1.13,1.33,1.46,2.14,6.66,2.17,9.94-2.64,1.35-7.79,2.85-11.45,2.85-6.92,0-11.51-2.55-11.51-11.24,0-2.89.21-6.16.72-10.35l5.91.87c-.63,3.85-.8,6.94-.87,9.37,0,3.2,1.72,5.27,7.18,5.27,2.02,0,3.48-.21,5.66-.48l-.38-1.79c-2.51-.21-5.43-.62-7.11-2.06.1-1.02.12-2.07.21-2.96.31-3.23,1.11-5.29,2.65-6.84,2.1-2.13,5.07-3.24,8.02-3.23,1.42,0,2.89.12,4.43.12l.56,8.01c1.09.46,4.06.59,5.14.59l-.62,7.39c-6.42,0-8.23-4.52-8.8-10.2-4.07,0-6.2.25-7.41,3.61" fill="#3a2780"/>
      </g>
    </g>
  </g>
</svg>