<?xml version="1.0" encoding="UTF-8"?>
<svg id="Layer_2" data-name="Layer 2" xmlns="http://www.w3.org/2000/svg" viewBox="0 0 44.48 50">
  <g id="Layer_1-2" data-name="Layer 1">
    <g>
      <rect width="44.48" height="50" fill="none"/>
      <g>
        <path d="m40.64,20.23c-3.44.97-10.34,2.12-12.86,2.12l-.46,6.51c7.46,0,14.19-1.69,17.16-7.02-.86-2.74-1.54-4.79-2.64-7.42-2.21-5.31-4.52-5.93-7.77-6.07-4.45,2-9.31,6.74-11.38,10.16l1.59,4.52.81.1c2.12-3.11,8.7-8.76,11.83-10.26l-2.3-.33c1.15,2.75,3.26,7.68,5.31,8.99l.7-1.29Z" fill="#3a2780"/>
        <path d="m19.74,20.54c1.54.48,4.95,1.81,8.05,1.81l-.46,6.51c-9.83,0-11.48-5.1-12.1-11.77l1.41.62c-1.71.73-4.77,1.24-7.25,1.24l2.38-1.59c-.45,2.18-.73,4.42-.64,6.9.1,3.06,1.47,7.49,2.22,9.37-2.77,2.56-5.99,5.45-9.8,8.01l-3.54-4.52c3.06-1.95,7.09-4.7,9.79-6.99l-.34,2.88c-1.28-1.37-3.55-4.08-3.74-9.5-.13-3.85.45-7.42,1.3-10.27,3.62.02,8.48-.7,12.01-1.39l.71,8.68Z" fill="#3a2780"/>
      </g>
    </g>
  </g>
</svg>