<?xml version="1.0" encoding="UTF-8"?>
<svg id="Layer_2" data-name="Layer 2" xmlns="http://www.w3.org/2000/svg" viewBox="0 0 29.28 50">
  <g id="Layer_1-2" data-name="Layer 1">
    <g>
      <rect width="29.28" height="50" fill="none"/>
      <path d="m7.62,20.36c0-4.44,2.1-7.82,5.95-9.88,3.12-1.67,6.06-1.03,10.01-1.03l.56,8.67c1.08.46,4.06.59,5.14.59l-.62,7.39c-6.42,0-8.23-5.18-8.8-10.86-4.07,0-5.86-.28-8.07,3.3l.31-2.14c1.03,1.4,3.73,3.76,6.58,5.78-.72,2.12-4.17,6.13-6.44,7.58-1.45-1.4-4.07-4.29-4.48-5.27-.51.19-1.46.34-2.22.35-.76.01-2.03-.13-2.53-.28l2.17-1.36c0,5.63.39,11.19,1.13,16.01l-5.52,1.46C.35,37.11,0,32.84,0,30.63,0,27.62-.11,24.33,1.33,21.84c.64-1.11,1.59-2.07,3-2.77.81,0,3.85-.1,5.34-.63l-2.04,1.92Z" fill="#3a2780"/>
    </g>
  </g>
</svg>