<?xml version="1.0" encoding="UTF-8"?>
<svg id="Layer_2" data-name="Layer 2" xmlns="http://www.w3.org/2000/svg" viewBox="0 0 47.27 50">
  <g id="Layer_1-2" data-name="Layer 1">
    <g>
      <rect width="47.27" height="50" fill="none"/>
      <g>
        <path d="m5.08,27.03c0-4.43,2.1-8.14,5.95-10.2,3.12-1.67,6.06-1.69,10.01-1.69l.56,7.68c1.08.46,4.06.77,5.14.77l-.61,7.22c-6.42,0-8.24-4.2-8.82-9.89-4.07,0-5.86.71-8.07,4.29l.31-2.14c1.03,1.4,3.73,3.76,6.58,5.78-.72,2.12-4.17,6.13-6.44,7.58-1.03-1.03-3.44-3.65-4.42-4.79-.93.72-2.69,1.14-5.27,1.14l.62-7.39h5.99l-1.53,1.63Z" fill="#3a2780"/>
        <path d="m35.67,24.66l-1.21-2.88c.81,1.21,2.31,1.82,3.53,1.82l-.61,7.22c-3.38,0-4.56-2.99-4.56-7.93h-.72c0,5.46-1.64,7.93-5.98,7.93l.61-7.22c2.15,0,3.58-1.59,3.98-6.38h5.27l-.32,7.44Z" fill="#3a2780"/>
        <path d="m43.24,21.77l-.7,2.77c-1.01-.96-1.78-2.9-1.78-4.61,0-2.22.53-4.39,1.31-6.36l5.19,1.65c-.71,2.08-1.4,5.07-1.4,7.24,0,1.01.15,2.07.55,3.23-2.68,3.13-5.62,5.15-9.04,5.15l.61-7.22c2.3-.02,3.31-.47,5.25-1.84" fill="#3a2780"/>
      </g>
    </g>
  </g>
</svg>