<?xml version="1.0" encoding="UTF-8"?>
<svg id="Layer_2" data-name="Layer 2" xmlns="http://www.w3.org/2000/svg" viewBox="0 0 26.08 50">
  <g id="Layer_1-2" data-name="Layer 1">
    <g>
      <rect width="26.08" height="50" fill="none"/>
      <path d="m8.6,34.53l.95-1.85c1.03,1.4,3.74,3.76,6.58,5.77-.72,2.12-4.17,6.13-6.44,7.58-1.03-1.03-3.44-3.65-4.42-4.79-.93.72-2.69,1.14-5.27,1.14l.62-7.39h5.99l-1.53,1.66c0-3.09,1.13-6.62,3.04-8.44,4.43.05,9.15-.74,11.75-1.96l-1.14,2.88c-1.03-.66-1.41-3.76-1.7-6.73-1.81-.96-6.36-2.49-9.1-2.8l.79-8.98c4.55-.41,10.23-2.92,14.88-6.64l2.48,5.63c-4.39,3.1-8.74,4.99-11.79,4.99h-1.39s-.05.75-.05.75c7.15,1.55,9.06,3.61,9.53,8.72.22,2.35.14,4.91-.16,7.7-1.71,1.22-11,2.71-13.61,2.76" fill="#3a2780"/>
    </g>
  </g>
</svg>