<?xml version="1.0" encoding="UTF-8"?>
<svg id="Layer_2" data-name="Layer 2" xmlns="http://www.w3.org/2000/svg" viewBox="0 0 31.3 50">
  <g id="Layer_1-2" data-name="Layer 1">
    <g>
      <rect width="31.3" height="50" fill="none"/>
      <g>
        <path d="m27.3,26.77l-2.31.91c.75-1.29,1.32-3.46,1.32-5.17s-.95-3.47-2.53-4.97c-1.83-1.74-4.31-3.2-7.34-4.11l3.39-4.61c2.97,1.21,4.82,2.45,6.86,4.12,3.07,2.51,4.6,5.47,4.6,9.13,0,3.69-1.72,7.49-3.98,10.29-2.46-1.28-6.98-2.85-9.96-3.64l.3-6.14c3.79.71,8.29,2.61,9.64,4.19" fill="#3a2780"/>
        <path d="m5.08,31.84c0-2.93.61-5.4,1.98-6.62,1.42-.47,4.14-1.21,4.67-1.53,2.83-1.73,5.34-4.55,6.18-7.29l.72,2.32c-2.23-1.71-5.87-2.79-8.94-3.05l1.55-1.14c-.13.71-.38,1.6-.31,3.05.09,1.82.66,4.05,3.31,5.37l-4.9,2.5c-1.91-1.55-3.26-4.6-3.26-7.54,0-3.15,2.22-6.16,6.24-7.92,4.25.63,9.38,2.71,9.38,7.72,0,2.59-.95,4.89-2.65,6.82-2.2,2.5-7.15,5.2-10.64,5.47l1.14-2.15c1.03,1.39,3.73,3.76,6.58,5.77-.72,2.12-4.17,6.13-6.44,7.58-1.03-1.03-3.44-3.65-4.42-4.79-.93.72-2.69,1.14-5.27,1.14l.62-7.39h5.99l-1.53,1.68Z" fill="#3a2780"/>
      </g>
    </g>
  </g>
</svg>