<?xml version="1.0" encoding="UTF-8"?>
<svg id="Layer_2" data-name="Layer 2" xmlns="http://www.w3.org/2000/svg" viewBox="0 0 43.76 50">
  <g id="Layer_1-2" data-name="Layer 1">
    <g>
      <rect width="43.76" height="50" fill="none"/>
      <g>
        <path d="m39.92,21.6c-3.44.97-10.34,2.12-12.86,2.12l-.46,6.51c7.46,0,14.19-1.69,17.16-7.02-.86-2.74-1.54-4.79-2.64-7.42-2.21-5.31-4.52-5.93-7.77-6.07-4.45,2-9.31,6.74-11.38,10.16l1.59,4.52.81.1c2.12-3.11,8.7-8.76,11.83-10.26l-2.3-.33c1.15,2.75,3.26,7.68,5.31,8.99l.7-1.29Z" fill="#3a2780"/>
        <path d="m15.01,20.84c-1.95,5.81-5.67,7.92-11.28,7.92l.72-1.05c.04,1.2.62,3.47,1.04,5.13l-1.17-1.4c.8.39,2.46,1.66,6.4,1.66,2.52,0,18.59-.32,26.26-.85l-2.05,6.83c-6.45.39-16.69,1.2-23.76,1.2-5.88,0-11.17-3.09-11.17-9.1,0-1.72.66-5.44,1.25-7.57,6.6-.83,9.86-4.63,12.26-8.97l5.54,1.3v6.83c1.11.36,3.59.95,8.01.95l-.47,6.51c-6.02,0-10.93-1.87-10.93-9.29" fill="#3a2780"/>
      </g>
    </g>
  </g>
</svg>