<?xml version="1.0" encoding="UTF-8"?>
<svg id="Layer_2" data-name="Layer 2" xmlns="http://www.w3.org/2000/svg" viewBox="0 0 34.01 50">
  <g id="Layer_1-2" data-name="Layer 1">
    <g>
      <rect width="34.01" height="50" fill="none"/>
      <g>
        <path d="m25.44,23.42c2.38.88,4.54,1.14,8.57,1.14l-.62,7.39c-7.09,0-11.37-3.32-11.37-9.06v-3.93l4.03-2.22v3.21c0,1.04.26,4.01,1.14,5.44l-1.76-1.96Z" fill="#3a2780"/>
        <path d="m12.23,35.59c-1.45-1.39-4.07-4.29-4.48-5.27-.51.19-1.46.34-2.22.35-.76.01-2.03-.13-2.53-.28l2.17-1.36c0,5.63.39,11.19,1.13,16.01l-5.52,1.46C.35,42.94,0,38.68,0,36.47,0,33.46-.11,30.17,1.33,27.67c.64-1.11,1.59-2.07,3-2.77.81,0,3.85-.1,5.34-.63l-2.04,1.93c.63-6.68,4.96-9.28,10.98-10.81,2.42-.61,5.62-1.1,7.57-1.25l-.05-.83-3.66.53c-1.62.24-5.6-1.45-9.9-4.47l-2.55,3.54-4.41-3.77c1.79-3.21,4.25-5.1,6.59-5.66,3.77,1.48,6.8,3.24,9.84,5.43l8.6-.67.18,10.57c-1.21.09-2.4.25-3.73.45-8.99,1.4-12.92,2.15-16.38,7.09l1.4-4.14c1.03,1.39,3.73,3.76,6.58,5.77-.72,2.12-4.17,6.13-6.44,7.58" fill="#3a2780"/>
      </g>
    </g>
  </g>
</svg>