<?xml version="1.0" encoding="UTF-8"?>
<svg id="Layer_2" data-name="Layer 2" xmlns="http://www.w3.org/2000/svg" viewBox="0 0 32.91 50">
  <g id="Layer_1-2" data-name="Layer 1">
    <g>
      <rect width="32.91" height="50" fill="none"/>
      <g>
        <path d="m26.58,27.37c-.57,6.51-6.89,8.94-13.04,8.94-9.97,0-13.54-3.57-13.54-8.42,0-2.07.24-4.71.93-7.85l5.17,1.19c-.41,1.71-1.15,4.97-1.55,7.91l-1.28-2.4c1.45,1.26,6.35,2.65,10.88,2.66,6.21.02,10.4-1.47,11.33-8.49l5.27.66-.31,7.63-1.4-2.48c1.14.83,2.63,1.4,3.89,1.4l-.62,7.39c-2.81,0-5.06-1.66-5.06-8.11h-.65Z" fill="#1a171b"/>
        <path d="m10.11,13.7l-1.41,4.72c1.46.89,4.04,1.35,5.99,1.35s4.82-.19,6.9-.71l-.71-4.95c-1.12.22-3.79.44-5.61.47-2.01.03-3.94-.28-5.16-.88" fill="#1a171b"/>
      </g>
    </g>
  </g>
</svg>