<?xml version="1.0" encoding="UTF-8"?>
<svg id="Layer_2" data-name="Layer 2" xmlns="http://www.w3.org/2000/svg" viewBox="0 0 54.56 50">
  <g id="Layer_1-2" data-name="Layer 1">
    <g>
      <rect width="54.56" height="50" fill="none"/>
      <g>
        <path d="m22.7,20.96c-4.07,0-6.2.25-7.41,3.61.74.54,3.47,1.09,5.49,1.13,1.33,1.46,2.14,6.66,2.17,9.94-2.64,1.35-7.79,2.85-11.45,2.85-6.92,0-11.51-2.55-11.51-11.24,0-2.89.21-6.16.72-10.35l5.91.87c-.63,3.85-.8,6.94-.88,9.37,0,3.2,1.72,5.27,7.18,5.27,2.02,0,3.48-.21,5.66-.48l-.38-1.79c-2.51-.21-5.43-.61-7.11-2.06.1-1.02.12-2.07.21-2.96.31-3.23,1.11-5.29,2.65-6.84,2.1-2.13,5.07-3.24,8.02-3.23,1.42,0,2.89.12,4.43.12l.62,8.54c.93.46,5.03,1.81,8.14,1.81l-.47,6.51c-9.47,0-11.33-4.75-12.01-11.07" fill="#3a2780"/>
        <path d="m48.03,23.4c-2.58.67-9.6,2.12-12.86,2.12l-.46,6.51c3.41,0,8.97-.69,12.1-1.91l2.3-4.87-1.08-1.84Z" fill="#3a2780"/>
        <path d="m42.27,15.7c1.76,4.53,3.49,7.61,5.29,9.08l-.02.73c1.66,2.66,4.45,5.65,6.4,5.65l.62-7.39c-1.55,0-1.96-.05-2.86-.35-.71-1.82-1.57-4.3-2.21-5.83-1.98-4.74-4.18-6.07-7.77-6.07-4.19,2.03-8.17,5.41-11.38,10.16l1.59,4.52.81.1c2.54-3.49,8.11-8.13,11.83-10.26l-2.3-.33Z" fill="#3a2780"/>
      </g>
    </g>
  </g>
</svg>