<?xml version="1.0" encoding="UTF-8"?>
<svg id="Layer_2" data-name="Layer 2" xmlns="http://www.w3.org/2000/svg" viewBox="0 0 49.12 50">
  <g id="Layer_1-2" data-name="Layer 1">
    <g>
      <rect width="49.12" height="50" fill="none"/>
      <g>
        <path d="m42.59,25.24c-2.58.67-9.6,2.12-12.86,2.12l-.46,6.51c3.41,0,8.97-.69,12.1-1.91l2.3-4.87-1.08-1.84Z" fill="#3a2780"/>
        <path d="m36.83,17.54c1.76,4.53,3.49,7.61,5.29,9.08l-.02.73c1.66,2.66,4.45,5.65,6.4,5.65l.62-7.39c-1.55,0-1.96-.05-2.86-.35-.71-1.82-1.57-4.3-2.21-5.83-1.98-4.74-4.18-6.07-7.77-6.07-4.19,2.03-8.17,5.41-11.38,10.16l1.59,4.52.81.1c2.54-3.49,8.11-8.13,11.83-10.26l-2.3-.33Z" fill="#3a2780"/>
        <path d="m9.56,23.29c1.03,1.4,3.73,3.76,6.58,5.78-.72,2.12-4.17,6.13-6.44,7.58-1.03-1.03-3.44-3.65-4.42-4.79-.93.72-2.69,1.14-5.27,1.14l.62-7.39h5.99l-1.53,1.63c0-4.6,2.12-7.74,5.76-9.72,2.94-1.61,7.11-1.59,10.17-1.08l.68,9.11c1.54.48,4.95,1.81,8.05,1.81l-.47,6.51c-9.83,0-11.48-5.1-12.1-11.77-5.14,0-6.71,1.21-8.52,4.1l.9-2.9Z" fill="#3a2780"/>
      </g>
    </g>
  </g>
</svg>