<?xml version="1.0" encoding="UTF-8"?>
<svg id="Layer_2" data-name="Layer 2" xmlns="http://www.w3.org/2000/svg" viewBox="0 0 46.45 50">
  <g id="Layer_1-2" data-name="Layer 1">
    <g>
      <rect width="46.45" height="50" fill="none"/>
      <g>
        <path d="m39.92,21.6c-2.58.67-9.6,2.12-12.86,2.12l-.46,6.51c3.41,0,8.97-.69,12.1-1.91l2.3-4.87-1.08-1.84Z" fill="#3a2780"/>
        <path d="m34.16,13.9c1.76,4.53,3.49,7.61,5.29,9.08l-.02.73c1.66,2.66,4.45,5.65,6.4,5.65l.62-7.39c-1.55,0-1.96-.05-2.86-.35-.71-1.82-1.57-4.3-2.21-5.83-1.98-4.74-4.18-6.07-7.77-6.07-4.19,2.03-8.17,5.41-11.38,10.16l1.59,4.52.81.1c2.54-3.49,8.11-8.13,11.83-10.26l-2.3-.33Z" fill="#3a2780"/>
        <path d="m15.01,20.84c-1.95,5.81-5.67,7.92-11.28,7.92l.72-1.05c.04,1.2.62,3.47,1.04,5.13l-1.17-1.4c.8.39,2.46,1.66,6.4,1.66,2.52,0,18.59-.32,26.26-.85l-2.05,6.83c-6.45.39-16.69,1.2-23.76,1.2-5.88,0-11.17-3.09-11.17-9.1,0-1.72.66-5.44,1.25-7.57,6.6-.83,9.86-4.63,12.26-8.97l5.54,1.3v6.83c1.11.36,3.59.95,8.01.95l-.47,6.51c-6.02,0-10.93-1.87-10.93-9.29" fill="#3a2780"/>
      </g>
    </g>
  </g>
</svg>