<?xml version="1.0" encoding="UTF-8"?>
<svg id="Layer_2" data-name="Layer 2" xmlns="http://www.w3.org/2000/svg" viewBox="0 0 8.55 50">
  <g id="Layer_1-2" data-name="Layer 1">
    <g>
      <rect width="8.55" height="50" fill="none"/>
      <g>
        <path d="m2.45,23.38l.27-.54c.16.7.21,1.77.21,2.36,0,.75-.11,1.6-.38,2.41l-2.09-2.14c.11-.48.21-1.34.21-1.72,0-.64,0-1.62-.06-2.21,1.31-.29,3.6-1.15,4.82-1.68,1.13.03,2.23,1.43,2.43,3.19l-2.2.91c-.11-.32-.46-1.27-.69-1.69l.49.18c-.62.3-2.03.75-3.02.92" fill="#1a171b"/>
        <path d="m8.09,24.79l.46,2.56c-2.9.32-5.08,1.16-6.92,2.78l-1.63-1.89c2.21-2.12,4.6-2.96,8.09-3.45" fill="#1a171b"/>
      </g>
    </g>
  </g>
</svg>