<?xml version="1.0" encoding="UTF-8"?>
<svg id="Layer_2" data-name="Layer 2" xmlns="http://www.w3.org/2000/svg" viewBox="0 0 25.16 50">
  <g id="Layer_1-2" data-name="Layer 1">
    <g>
      <rect width="25.16" height="50" fill="none"/>
      <path d="m24.03,10.97l1.13,5.31c-2.71.87-12.3,2.03-15.45,2.03l2.38-1.59c-.45,2.18-.73,3.09-.64,5.58.1,3.06,1.14,6.83,1.89,8.71-2.77,2.56-5.99,5.45-9.8,8.01l-3.54-4.52c3.06-1.95,7.09-4.7,9.79-6.99l-.34,2.88c-1.28-1.37-3.22-3.42-3.4-8.84-.13-3.85.61-6.1,1.47-8.94,3.62.02,12.62-.8,16.52-1.64" fill="#3a2780"/>
    </g>
  </g>
</svg>