<?xml version="1.0" encoding="UTF-8"?>
<svg id="Layer_2" data-name="Layer 2" xmlns="http://www.w3.org/2000/svg" viewBox="0 0 44.35 50">
  <g id="Layer_1-2" data-name="Layer 1">
    <g>
      <rect width="44.35" height="50" fill="none"/>
      <g>
        <path d="m32.48,22.41l-1.24-2.94c.83,1.24,2.37,1.86,3.61,1.86l-.62,7.39c-3.46,0-4.67-3.06-4.67-8.11h-.73c0,5.59-1.68,8.11-6.12,8.11l.62-7.39c2.2,0,3.66-1.63,4.08-6.54h5.39l-.32,7.62Z" fill="#3a2780"/>
        <path d="m40.22,19.45l-.71,2.83c-1.03-.98-1.82-2.97-1.82-4.72,0-2.27.54-4.49,1.34-6.51l5.31,1.68c-.73,2.12-1.44,5.19-1.44,7.41,0,1.03.16,2.12.57,3.31-2.74,3.2-5.76,5.27-9.25,5.27l.62-7.39c2.35-.02,3.39-.48,5.37-1.88" fill="#3a2780"/>
        <path d="m15.01,19.5c-1.95,5.81-5.67,7.92-11.28,7.92l.72-1.05c.04,1.2.62,3.47,1.04,5.13l-1.17-1.4c.8.39,2.46,1.66,6.4,1.66,2.52,0,18.59-.32,26.26-.85l-2.05,6.83c-6.45.39-16.69,1.2-23.76,1.2-5.88,0-11.17-3.09-11.17-9.1,0-1.72.66-5.44,1.25-7.57,6.6-.83,9.86-4.63,12.26-8.97l5.54,1.3v6.14c1.11.36,2.61.58,4.28.58l-.62,7.39c-3.84,0-7.04-1.69-7.04-9.11" fill="#3a2780"/>
      </g>
    </g>
  </g>
</svg>