<?xml version="1.0" encoding="UTF-8"?>
<svg id="Layer_2" data-name="Layer 2" xmlns="http://www.w3.org/2000/svg" viewBox="0 0 32.16 50">
  <g id="Layer_1-2" data-name="Layer 1">
    <g>
      <rect width="32.16" height="50" fill="none"/>
      <g>
        <path d="m27.2,17.64c1.58.78,2.89,1.18,4.96,1.18l-.62,7.39c-3.3,0-6-2.32-6.88-5.81-.73-2.88-1.46-7.41-2.13-11.07l1.04,1.54c-2.61,1.14-7.81,4.04-10.88,3.78-1.22-.1-2.87-.77-4.6-1.36l-.42.99c-.14.33-1.2.25-1.62.24l-4.06,1.13,3.42-7.53c2.51.86,5.05,1.89,7.19,2.11,5.79-2.76,8.42-4.36,10.94-4.26,1.6.06,2.06.3,3.36.83.33,1.81,1.58,10.87,2.29,12.95l-1.96-2.1Z" fill="#3a2780"/>
        <path d="m22.04,43.66c-2.72.25-6.11.39-8.17.39-10.29,0-13.87-3.35-13.87-11.05,0-3.56,1.37-8.78,4.35-11.17,1.65-.44,6.2-.6,8.6-.58.71,0,2.31.07,4.95.3l.08-.84c-2.73-.4-4.61-.56-7.3-1.35-2.79-.81-6.3-2-8.7-3.72l3.41-7.53,1.88,5.61c.75.27,1.92.73,2.88,1.06,4.94,1.67,6.99,1.51,12.18,1.95l-.99,9.74c-1.93-.13-5.17-.3-7.96-.3-4.58,0-9.37.71-10.95,1.22l4.13-3.17c-.94,2.02-1.53,5.71-1.51,7.73.03,3.36.11,6.22,10.02,6.22,2.13,0,4.98-.17,7.54-.44l-.57,5.95Z" fill="#3a2780"/>
      </g>
    </g>
  </g>
</svg>