<?xml version="1.0" encoding="UTF-8"?>
<svg id="Layer_2" data-name="Layer 2" xmlns="http://www.w3.org/2000/svg" viewBox="0 0 50.47 50">
  <g id="Layer_1-2" data-name="Layer 1">
    <g>
      <rect width="50.47" height="50" fill="none"/>
      <g>
        <path d="m43.04,20.27l5.27.66-.31,7.63-1.57-2.32c1.14.83,2.66,1.24,4.05,1.24l-.62,7.37c-2.81,0-5.06-1.66-5.06-8.11h-.65c-.27,3.12-3.38,5.24-7.32,6.63-4.87,1.72-10.36,2.32-14.04,2.32-8.41,0-17.06-1.16-22.78-4.36l2.43-5.99c6.66,2.59,14.19,3.27,20.76,3.42,2.11.05,6.29-.02,10.74-1.12,4.47-1.11,8.55-3.25,9.1-7.37" fill="#3a2780"/>
        <path d="m19.08,14.3l-1.41,4.72c1.46.89,4.04,1.35,5.99,1.35s4.82-.19,6.9-.71l-.71-4.95c-1.12.22-3.79.44-5.61.47-2.01.03-3.94-.28-5.16-.88" fill="#3a2780"/>
      </g>
    </g>
  </g>
</svg>