<?xml version="1.0" encoding="UTF-8"?>
<svg id="Layer_2" data-name="Layer 2" xmlns="http://www.w3.org/2000/svg" viewBox="0 0 56.27 50">
  <g id="Layer_1-2" data-name="Layer 1">
    <g>
      <rect width="56.27" height="50" fill="none"/>
      <g>
        <path d="m26.2,17.58l-2.33,5.22c-1.16-.95-3.5-2.17-5.28-2.35l2.1-5.24c2.17.23,4.61,1.51,5.51,2.37" fill="#3a2780"/>
        <path d="m43.04,32.52c-.57-2.22-1.73-7.57-2.29-12.66-.1-.87-.18-2.02-.25-3.16l-2.25,1.46c3.15,0,7.19-.37,9.9-1.24l-1.34-.67c.42,6.8,3.19,10.95,8.85,10.95l.62-7.39c-2.04,0-4.01-.14-5.02-.62l-.71-8.11c-3.06.66-6.36.94-9.5,1.21-2.2.19-4.46.34-6.53.32.17,2.03.33,5.16.9,9.05.76,5.17,2.15,7.61,3.86,9.36l-.2-2.94c-3.77,2.01-10.85,4.7-17,4.7-6.56,0-13.59-4.39-18.91-10.28l-3.15,6.1c5.32,6.46,13.9,10.33,21.13,10.33,8.53,0,17.24-3.21,21.79-6.42h.12Z" fill="#3a2780"/>
      </g>
    </g>
  </g>
</svg>