<?xml version="1.0" encoding="UTF-8"?>
<svg id="Layer_2" data-name="Layer 2" xmlns="http://www.w3.org/2000/svg" viewBox="0 0 16.13 50">
  <g id="Layer_1-2" data-name="Layer 1">
    <g>
      <rect width="16.13" height="50" fill="none"/>
      <g>
        <path d="m9.56,28.67c1.61,2.07,4.86,4.62,6.58,5.78-.72,2.12-4.17,6.13-6.44,7.58-1.03-1.03-3.44-3.65-4.42-4.79-1.34,1.09-4.31,1.14-5.27,1.14l.62-7.39c2.07,0,5.84-.81,6.78-1.22l2.16-1.09Z" fill="#3a2780"/>
        <path d="m4.45,18.91c0,4.93,1.34,9.71,2.32,12.44l4.1-.47c-.73-3.34-1.1-5.8-1.1-10.8,0-2.43.65-8.51.97-10.75l-5.34-1.34c-.51,2.34-.95,7.54-.95,10.93" fill="#3a2780"/>
      </g>
    </g>
  </g>
</svg>