<?xml version="1.0" encoding="UTF-8"?>
<svg id="Layer_2" data-name="Layer 2" xmlns="http://www.w3.org/2000/svg" viewBox="0 0 48.52 50">
  <g id="Layer_1-2" data-name="Layer 1">
    <g>
      <rect width="48.52" height="50" fill="none"/>
      <g>
        <path d="m22.09,35.47c-6.81-.02-16.14-.97-22.09-4.36l2.43-5.99c5.6,2.35,14.55,3.42,20.76,3.42,4.96,0,17.17-.47,21.04-2.89l-.88,2.17c-1.03-.98-1.65-2.64-1.65-4.39,0-2.33.52-4.7,1.34-6.51l5.48,2.02c-.88,1.6-1.6,4.86-1.6,7.08,0,1.03.21,2.43.57,3.31-5.77,4.84-17.63,6.18-25.4,6.16" fill="#3a2780"/>
        <path d="m20.42,14.53l-1.41,4.72c1.46.89,4.04,1.35,5.99,1.35s4.82-.19,6.9-.71l-.71-4.95c-1.12.22-3.79.44-5.61.47-2.01.03-3.94-.28-5.16-.88" fill="#3a2780"/>
      </g>
    </g>
  </g>
</svg>