<?xml version="1.0" encoding="UTF-8"?>
<svg id="Layer_2" data-name="Layer 2" xmlns="http://www.w3.org/2000/svg" viewBox="0 0 51.87 50">
  <g id="Layer_1-2" data-name="Layer 1">
    <g>
      <rect width="51.87" height="50" fill="none"/>
      <g>
        <path d="m48.03,23.4c-3.44.97-10.34,2.12-12.86,2.12l-.46,6.51c7.46,0,14.19-1.69,17.16-7.02-.86-2.74-1.54-4.79-2.64-7.42-2.21-5.31-4.52-5.93-7.77-6.07-4.45,2-9.31,6.74-11.38,10.16l1.59,4.52.81.1c2.12-3.11,8.7-8.76,11.83-10.26l-2.3-.33c1.15,2.75,3.26,7.68,5.31,8.99l.7-1.29Z" fill="#3a2780"/>
        <path d="m22.7,20.96c-4.07,0-6.2.25-7.41,3.61.74.54,3.47,1.09,5.49,1.13,1.33,1.46,2.14,6.66,2.17,9.94-2.64,1.35-7.79,2.85-11.45,2.85-6.92,0-11.51-2.55-11.51-11.24,0-2.89.21-6.16.72-10.35l5.91.87c-.63,3.85-.8,6.94-.88,9.37,0,3.2,1.72,5.27,7.18,5.27,2.02,0,3.48-.21,5.66-.48l-.38-1.79c-2.51-.21-5.43-.61-7.11-2.06.1-1.02.12-2.07.21-2.96.31-3.23,1.11-5.29,2.65-6.84,2.1-2.13,5.07-3.24,8.02-3.23,1.42,0,2.89.12,4.43.12l.62,8.54c.93.46,5.03,1.81,8.14,1.81l-.47,6.51c-9.47,0-11.33-4.75-12.01-11.07" fill="#3a2780"/>
      </g>
    </g>
  </g>
</svg>