<?xml version="1.0" encoding="UTF-8"?>
<svg id="Layer_2" data-name="Layer 2" xmlns="http://www.w3.org/2000/svg" viewBox="0 0 27.1 50">
  <g id="Layer_1-2" data-name="Layer 1">
    <g>
      <rect width="27.1" height="50" fill="none"/>
      <g>
        <path d="m11.9,22.74c1.56,1.98,4.47,4.35,6.58,5.78-.72,2.12-4.17,6.13-6.44,7.58-1.45-1.4-3.87-4.29-4.28-5.27-.51.19-1.46.34-2.22.35-.76.01-2.03-.13-2.53-.28l2.17-1.36c0,5.63.39,11.19,1.13,16.01l-5.52,1.46C.35,43.44,0,39.17,0,36.97,0,33.96-.11,30.66,1.33,28.17c.64-1.11,1.59-2.07,3-2.77,2.18-.02,5.12-.85,7.57-2.67" fill="#3a2780"/>
        <path d="m9.56,19.16c2.48-.42,6.76-.48,7.33-5.62.43-3.81.7-7.81.84-10.55l7.02,1.07c.01,3.41-.14,8.19-.45,12.08-.3,3.69-.62,7.71-1.02,10.61l-.8-2.57c1.05.5,2.48.87,4.61.87l-.62,7.39c-4.33,0-6.55-2.41-6.57-7.4,0-.67.07-1.83.16-2.59l.78-6.65-.75-.1-.33,2.49c-.27,2.02-2.33,4.6-6.96,5.76-1.76.45-3.58.83-5.35,1.26.04-1.82.36-4.21,2.11-6.06" fill="#3a2780"/>
        <path d="m9.56,19.16c2.48-.42,6.76-.48,7.33-5.62.43-3.81.7-7.81.84-10.55l7.02,1.07c.01,3.41-.14,8.19-.45,12.08-.3,3.69-.62,7.71-1.02,10.61l-.8-2.57c1.05.5,2.48.87,4.61.87l-.62,7.39c-4.33,0-6.55-2.41-6.57-7.4,0-.67.07-1.83.16-2.59l.78-6.65-.75-.1-.33,2.49c-.27,2.02-2.33,4.6-6.96,5.76-1.76.45-3.58.83-5.35,1.26.04-1.82.36-4.21,2.11-6.06" fill="#3a2780"/>
      </g>
    </g>
  </g>
</svg>