<?xml version="1.0" encoding="UTF-8"?>
<svg id="Layer_2" data-name="Layer 2" xmlns="http://www.w3.org/2000/svg" viewBox="0 0 16.88 50">
  <g id="Layer_1-2" data-name="Layer 1">
    <g>
      <rect width="16.88" height="50" fill="none"/>
      <g>
        <path d="m12.76,31.98l-.88,2.17c-1.03-.98-1.65-2.64-1.65-4.39,0-2.27.52-4.7,1.34-6.51l5.31,1.68c-.71,1.95-1.44,5.19-1.44,7.41,0,1.03.15,2.12.57,3.31-3.1,3.96-7.91,5.27-16.01,5.27l.62-7.39c5.89,0,10.15-.15,12.13-1.55" fill="#1a171b"/>
        <path d="m11.93,20.71l1.68-4.53c-1.42-.87-4.25-1.47-6.15-1.47s-4.71.42-6.74.92l.7,4.91c1.64-.4,3.73-.71,5.48-.76,1.96-.06,3.85.35,5.04.94" fill="#1a171b"/>
        <path d="m10.3,11.1l-1.98,4.45c-.99-.81-2.98-1.85-4.5-2l1.79-4.47c1.85.19,3.93,1.28,4.69,2.02" fill="#1a171b"/>
      </g>
    </g>
  </g>
</svg>