<?xml version="1.0" encoding="UTF-8"?>
<svg id="Layer_2" data-name="Layer 2" xmlns="http://www.w3.org/2000/svg" viewBox="0 0 27.23 50">
  <g id="Layer_1-2" data-name="Layer 1">
    <g>
      <rect width="27.23" height="50" fill="none"/>
      <path d="m8.12,25.76c4.15,0,8.31.09,12.45-.59,1.7-.28,3.1-.69,3.83-1.29l-1.15,3.03c-1.47-2.54-1.93-4.89-2.6-10.62-.37-3.14-.93-3.46-3.56-4.02-1.29-.27-2.07-.4-2.88-.52l1.81-1.03c-1.13,2.63-1.55,6.72-1.73,9.17l-1.85-3.44c4.1,1.34,5.67,1.22,9.79,1.22l.17,1.07-3.34,4.79c-4.92,0-7.7-.99-9.42-2.26.45-2.78.49-7.53,1.16-9.76.73-2.44,2.36-3.89,4.42-4.77,3.03,0,6.77.95,8.33,3.04,1.08,1.46,1.65,2.33,2.04,6.51.41,4.35.92,8.47,1.64,12.12-1.36.93-2.95,1.6-4.67,2.07-4.32,1.19-9.73,1.26-13.96,1.09l.95-1.68c1.03,1.4,3.73,3.76,6.58,5.78-.72,2.12-4.17,6.13-6.44,7.58-1.03-1.03-3.44-3.65-4.42-4.79-.93.72-2.69,1.14-5.27,1.14l.62-7.39h5.99l-1.53,1.66c0-3.09,1.13-6.29,3.04-8.11" fill="#3a2780"/>
    </g>
  </g>
</svg>