<?xml version="1.0" encoding="UTF-8"?>
<svg id="Layer_2" data-name="Layer 2" xmlns="http://www.w3.org/2000/svg" viewBox="0 0 16.88 50">
  <g id="Layer_1-2" data-name="Layer 1">
    <g>
      <rect width="16.88" height="50" fill="none"/>
      <g>
        <path d="m12.75,29.14l-.88,2.17c-1.03-.98-1.65-2.64-1.65-4.39,0-2.27.52-4.7,1.34-6.51l5.31,1.68c-.72,1.95-1.44,5.19-1.44,7.41,0,1.03.16,2.12.57,3.31-3.1,3.96-7.91,5.27-16.01,5.27l.62-7.39c5.89,0,10.15-.15,12.13-1.55" fill="#1a171b"/>
        <path d="m2.08,11.92l-1.41,4.72c1.46.89,4.04,1.35,5.99,1.35s4.82-.19,6.9-.71l-.71-4.95c-1.12.22-3.79.44-5.61.47-2.01.03-3.94-.28-5.16-.88" fill="#1a171b"/>
      </g>
    </g>
  </g>
</svg>