<?xml version="1.0" encoding="UTF-8"?>
<svg id="Layer_2" data-name="Layer 2" xmlns="http://www.w3.org/2000/svg" viewBox="0 0 24.78 50">
  <g id="Layer_1-2" data-name="Layer 1">
    <g>
      <rect width="24.78" height="50" fill="none"/>
      <g>
        <path d="m8.88,29.26l.67-1.61c1.03,1.4,3.73,3.76,6.58,5.77-.72,2.12-4.17,6.13-6.44,7.58-1.03-1.03-3.44-3.65-4.42-4.79-.93.72-2.69,1.14-5.27,1.14l.62-7.39h5.99l-1.53,1.66c0-2.96.81-5.31,2.96-7.36,2.23-.32,4.03-1.75,4.84-2.68,3.14,1.04,7.73,2.16,11.9,2.46l-1.3,6c-2.47-.24-8.15-2.1-10.42-3.34l1.1-.3c-1.2,1.38-3.26,2.55-5.29,2.87" fill="#3a2780"/>
        <path d="m12.96,15.65c.49,1.28.7,4.12.7,5.35,0,1.64-.26,3.13-.87,4.93l-4.67-4.11c.26-1.08.46-3.12.46-4.1,0-1.44-.26-3.85-.56-5.34,3.58-.92,8.61-2.46,11.45-3.38,2.2.38,4.82,3.61,5.28,7.18l-4.88,2.05c-.26-.77-1.18-2.62-1.85-3.59l1.08.07c-1.56.79-4.15,1.69-6.48,2.29l.34-1.35Z" fill="#3a2780"/>
      </g>
    </g>
  </g>
</svg>