<?xml version="1.0" encoding="UTF-8"?>
<svg id="Layer_2" data-name="Layer 2" xmlns="http://www.w3.org/2000/svg" viewBox="0 0 24.75 50">
  <g id="Layer_1-2" data-name="Layer 1">
    <g>
      <rect width="24.75" height="50" fill="none"/>
      <path d="m9.12,29.7l.44-1.51c1.03,1.39,3.73,3.76,6.58,5.77-.72,2.12-4.17,6.13-6.44,7.58-1.03-1.03-3.44-3.65-4.42-4.79-.93.72-2.69,1.14-5.27,1.14l.62-7.39h5.99l-1.53,1.63c0-3.74.54-6.07,2.14-7.52,2.48-.43,6.76-.48,7.33-5.62.43-3.81.7-7.81.84-10.55l7.02,1.07c.01,3.41-.14,8.19-.45,12.08-.3,3.69-.62,7.71-1.02,10.61l-.8-2.57c1.05.5,2.48.87,4.61.87l-.62,7.39c-4.32,0-6.55-2.41-6.57-7.4,0-.67.07-1.83.16-2.59l.78-6.65-.75-.1-.33,2.49c-.48,3.57-5.29,5.73-8.3,6.05" fill="#3a2780"/>
    </g>
  </g>
</svg>