<?xml version="1.0" encoding="UTF-8"?>
<svg id="Layer_2" data-name="Layer 2" xmlns="http://www.w3.org/2000/svg" viewBox="0 0 28.29 50">
  <g id="Layer_1-2" data-name="Layer 1">
    <g>
      <rect width="28.29" height="50" fill="none"/>
      <g>
        <path d="m20.8,22.78c2.79,0,3.46.23,7.49.23l-.62,7.39c-6.44,0-8.78-3.46-8.78-10.39l3.38-2.22c0,2.43.21,3.36,1.19,6.04l-2.66-1.06Z" fill="#1a171b"/>
        <path d="m0,30.4l.62-7.37c5.26,0,8.79-.63,13.42-2.85,2.43-1.16,4.69-2.43,7.38-3.57l-.25-.84c-1.86.69-3.49,1.62-4.87,1.91-2.02-.04-4.62-1.72-8.13-4.16l-2.54,3.55-4.43-3.76c1.69-3.2,4.25-5.14,6.57-5.68,3.9,1.89,6.54,3.61,9.02,4.9l8.15-2.26,2.06,9.53c-3.09,1.14-7.68,3.87-10.01,5.34-5.07,3.2-9.56,5.27-17,5.27" fill="#1a171b"/>
        <path d="m9.66,37.24l-1.68-4.53c1.42-.87,4.25-1.47,6.15-1.47s4.71.41,6.74.92l-.7,4.91c-1.64-.4-3.73-.71-5.48-.76-1.96-.06-3.85.35-5.04.94" fill="#1a171b"/>
        <path d="m17.77,37.92l-1.98,4.45c-.99-.81-2.98-1.85-4.5-2l1.79-4.47c1.85.19,3.93,1.28,4.69,2.02" fill="#1a171b"/>
      </g>
    </g>
  </g>
</svg>