<?xml version="1.0" encoding="UTF-8"?>
<svg id="Layer_2" data-name="Layer 2" xmlns="http://www.w3.org/2000/svg" viewBox="0 0 26.38 50">
  <g id="Layer_1-2" data-name="Layer 1">
    <g>
      <rect width="26.38" height="50" fill="none"/>
      <g>
        <path d="m26.38,22.11c-7.18,2.79-17.96,4.13-22.99,4.32l3.17-1.35c-.73,1.69-1.4,3.51-1.4,5.83.07,3.36.55,5.89,9.44,5.89,3.07,0,8.16-.45,10.71-.86l-.64,5.97c-2.04.41-8.3.79-11.27.79-9.36,0-13.4-3.02-13.4-10.85,0-5.25,2.57-9.67,5.31-11.05,6.26-.57,10.74-.97,16.36-2.44l-.05-.83-3.73.63c-1.62.27-5.12-1.93-9.44-4.95l-2.54,3.55-4.43-3.76c1.78-3.22,4.24-5.11,6.57-5.68,3.78,1.47,6.4,3.64,9.44,5.83l8.59-.7.28,9.66Z" fill="#1a171b"/>
        <path d="m18.16,29.83l-2.33,5.23c-1.16-.95-3.5-2.17-5.28-2.35l2.1-5.24c2.17.23,4.61,1.51,5.51,2.37" fill="#1a171b"/>
      </g>
    </g>
  </g>
</svg>