<?xml version="1.0" encoding="UTF-8"?>
<svg id="Layer_2" data-name="Layer 2" xmlns="http://www.w3.org/2000/svg" viewBox="0 0 48.52 50">
  <g id="Layer_1-2" data-name="Layer 1">
    <g>
      <rect width="48.52" height="50" fill="none"/>
      <g>
        <path d="m22.09,38.1c-6.81-.02-16.14-.97-22.09-4.36l2.43-5.99c5.6,2.35,14.55,3.42,20.76,3.42,4.96,0,17.17-.47,21.04-2.89l-.88,2.17c-1.03-.98-1.65-2.64-1.65-4.39,0-2.33.52-4.7,1.34-6.51l5.48,2.02c-.88,1.6-1.6,4.86-1.6,7.08,0,1.03.21,2.43.57,3.31-5.77,4.84-17.63,6.18-25.4,6.16" fill="#3a2780"/>
        <path d="m30.22,23.53l1.68-4.53c-1.42-.87-4.25-1.47-6.15-1.47s-4.71.41-6.74.92l.7,4.91c1.64-.4,3.73-.71,5.48-.76,1.96-.06,3.85.35,5.04.94" fill="#3a2780"/>
        <path d="m28.59,13.92l-1.98,4.45c-.99-.81-2.98-1.85-4.5-2l1.79-4.47c1.85.19,3.93,1.28,4.69,2.02" fill="#3a2780"/>
      </g>
    </g>
  </g>
</svg>