<?xml version="1.0" encoding="UTF-8"?>
<svg id="Layer_2" data-name="Layer 2" xmlns="http://www.w3.org/2000/svg" viewBox="0 0 30.42 50">
  <g id="Layer_1-2" data-name="Layer 1">
    <g>
      <rect width="30.42" height="50" fill="none"/>
      <g>
        <path d="m26.3,29.04l-.88,2.17c-1.03-.98-1.65-2.64-1.65-4.39,0-2.33.52-4.7,1.34-6.51l5.31,1.68c-.78,2.22-1.44,5.19-1.44,7.41,0,1.03.21,2.43.57,3.31-3.29,4.18-8.94,6.1-16.02,6.1-9.97,0-13.54-3.57-13.54-8.42,0-2.07.24-4.71.93-7.85l5.17,1.19c-.41,1.71-1.15,4.97-1.55,7.91l-1.28-2.4c1.45,1.26,6.35,2.66,10.84,2.66,3.91,0,8.83-.74,12.19-2.84" fill="#1a171b"/>
        <path d="m19.55,22.83l1.68-4.53c-1.42-.87-4.25-1.47-6.15-1.47s-4.71.41-6.74.92l.7,4.91c1.64-.4,3.73-.71,5.48-.76,1.96-.06,3.85.35,5.04.94" fill="#1a171b"/>
        <path d="m17.92,13.22l-1.98,4.45c-.99-.81-2.98-1.85-4.5-2l1.79-4.47c1.85.19,3.93,1.28,4.69,2.02" fill="#1a171b"/>
      </g>
    </g>
  </g>
</svg>