<?xml version="1.0" encoding="UTF-8"?>
<svg id="Layer_2" data-name="Layer 2" xmlns="http://www.w3.org/2000/svg" viewBox="0 0 28.58 50">
  <g id="Layer_1-2" data-name="Layer 1">
    <g>
      <rect width="28.58" height="50" fill="none"/>
      <g>
        <path d="m0,31.83c0-6.78,3.79-10.38,5.31-11.05,5.68-.8,9.91-1.6,16.39-4.16l-.25-.84c-1.03.31-4.07,1.5-4.87,1.5-1.42,0-3.97-1.05-8.13-4.08l-2.54,3.55-4.43-3.76c1.64-3.29,4.28-5.13,6.57-5.68,3.82,1.79,5.91,3.55,9.02,5.06l8.15-2.1,2.06,9.53c-10.34,4.79-19.37,6.6-24.4,6.79l3.66-1.52c-.69,1.76-1.4,3.51-1.4,5.83.07,3.36.55,5.89,9.44,5.89,3.07,0,8.16-.45,10.71-.86l-.64,5.97c-2.04.41-8.3.79-11.27.79C4.04,42.69,0,39.67,0,31.83" fill="#1a171b"/>
        <path d="m21.08,23.13c2.79,0,3.46.23,7.49.23l-.62,7.39c-6.44,0-8.78-3.46-8.78-10.39l3.38-2.22c0,2.43.21,3.36,1.19,6.04l-2.66-1.06Z" fill="#1a171b"/>
        <path d="m17.92,29.83l-2.33,5.23c-1.16-.95-3.5-2.17-5.28-2.35l2.1-5.24c2.17.23,4.61,1.51,5.51,2.37" fill="#1a171b"/>
      </g>
    </g>
  </g>
</svg>