<?xml version="1.0" encoding="UTF-8"?>
<svg id="Layer_2" data-name="Layer 2" xmlns="http://www.w3.org/2000/svg" viewBox="0 0 21.7 50">
  <g id="Layer_1-2" data-name="Layer 1">
    <g>
      <rect width="21.7" height="50" fill="none"/>
      <g>
        <path d="m12.35,33.45c-1.41,1.43-3.68,2.32-5.89,2.32-1.6,0-4.81-.36-6.2-.72l-.26-7.18c1.97.43,4.93.67,7.13.67,2.04,0,5.51-.88,6.7-2.36l.35,1.7-1.84,5.57Z" fill="#1a171b"/>
        <path d="m11.88,27.14c-1.26-2.7-3.1-7.39-4.03-11l5.99-1.91c1.19,4.88,2.63,9.92,4.39,14.62l-1.86-1.71c1.95.82,4.03,1.19,5.32,1.19l-.62,7.39c-3.41,0-7-3.89-9.2-8.58" fill="#1a171b"/>
      </g>
    </g>
  </g>
</svg>