<?xml version="1.0" encoding="UTF-8"?>
<svg id="Layer_2" data-name="Layer 2" xmlns="http://www.w3.org/2000/svg" viewBox="0 0 25.73 50">
  <g id="Layer_1-2" data-name="Layer 1">
    <g>
      <rect width="25.73" height="50" fill="none"/>
      <g>
        <path d="m.62,22.08c7.22,0,11.5-.83,20.4-2.81l-.05-.83-3.65.63c-1.62.28-5.2-1.93-9.52-4.95l-2.54,3.55L.84,13.91c1.78-3.22,4.24-5.11,6.57-5.68,3.78,1.47,6.4,3.64,9.44,5.83l8.59-.7.28,9.75c-5.31,1.81-10.95,3.94-16.4,5.24-2.89.69-5.79,1.1-9.33,1.1l.62-7.37Z" fill="#1a171b"/>
        <path d="m8.92,36.63l-1.68-4.53c1.42-.87,4.25-1.47,6.15-1.47s4.71.42,6.74.92l-.7,4.91c-1.64-.4-3.73-.71-5.48-.76-1.96-.06-3.85.35-5.04.94" fill="#1a171b"/>
        <path d="m17.03,37.31l-1.98,4.45c-.99-.81-2.98-1.85-4.5-2l1.79-4.47c1.85.19,3.93,1.28,4.69,2.02" fill="#1a171b"/>
      </g>
    </g>
  </g>
</svg>