<?xml version="1.0" encoding="UTF-8"?>
<svg id="Layer_2" data-name="Layer 2" xmlns="http://www.w3.org/2000/svg" viewBox="0 0 25.73 50">
  <g id="Layer_1-2" data-name="Layer 1">
    <g>
      <rect width="25.73" height="50" fill="none"/>
      <g>
        <path d="m.62,33.66c7.22,0,11.5-.83,20.4-2.81l-.05-.83-3.65.63c-1.62.28-5.2-1.93-9.52-4.95l-2.54,3.55-4.43-3.75c1.78-3.22,4.24-5.11,6.57-5.68,3.78,1.47,6.4,3.64,9.44,5.83l8.59-.7.28,9.75c-5.31,1.81-10.95,3.94-16.4,5.24-2.89.69-5.79,1.1-9.33,1.1l.62-7.37Z" fill="#1a171b"/>
        <path d="m10.96,11.34l-2.33,5.23c-1.16-.95-3.5-2.17-5.28-2.35l2.1-5.24c2.17.23,4.61,1.51,5.51,2.37" fill="#1a171b"/>
      </g>
    </g>
  </g>
</svg>