<?xml version="1.0" encoding="UTF-8"?>
<svg id="Layer_2" data-name="Layer 2" xmlns="http://www.w3.org/2000/svg" viewBox="0 0 18.75 50">
  <g id="Layer_1-2" data-name="Layer 1">
    <g>
      <rect width="18.75" height="50" fill="none"/>
      <g>
        <path d="m15.42,35.08l-2.5,1.75c.56-1.43.8-3.61.8-5.33,0-1.6-.14-3.22-.51-4.51-2.07-.98-4.59-1.24-8.73-1.24l.62-6.3c9.41,0,13.64,3.51,13.64,11.26,0,2.89-.97,7.57-2.88,10.01-1.54-.22-5.33-.3-7.08-.3-2.22,0-5.79.61-7.66.98l-.26-7.18c1.73-.28,6.53-.62,8.85-.62,2.47,0,4.77.74,5.7,1.47" fill="#1a171b"/>
        <path d="m7.61,10.96l-2.33,5.23c-1.16-.95-3.5-2.17-5.28-2.35l2.1-5.24c2.17.23,4.61,1.51,5.51,2.37" fill="#1a171b"/>
      </g>
    </g>
  </g>
</svg>