<?xml version="1.0" encoding="UTF-8"?>
<svg id="Layer_2" data-name="Layer 2" xmlns="http://www.w3.org/2000/svg" viewBox="0 0 14.98 50">
  <g id="Layer_1-2" data-name="Layer 1">
    <g>
      <rect width="14.98" height="50" fill="none"/>
      <g>
        <path d="m7.02,10.8l5.31,1.69c-.76,2.96-1.33,5.91-1.21,9.33.1,3.06,1.47,7.49,2.22,9.37-2.77,2.56-5.99,5.45-9.8,8.01l-3.54-4.52c3.06-1.95,7.09-4.7,9.79-6.99l-.34,2.88c-1.28-1.37-3.55-4.08-3.73-9.5-.13-3.85.44-7.42,1.3-10.27" fill="#1a171b"/>
        <path d="m14.98,18.15l-.62,7.39c-2.62,0-5.18-2.18-6.24-3.22l-.48-5.95c2.14,1.11,4.01,1.78,7.34,1.78" fill="#1a171b"/>
      </g>
    </g>
  </g>
</svg>