<?xml version="1.0" encoding="UTF-8"?>
<svg id="Layer_2" data-name="Layer 2" xmlns="http://www.w3.org/2000/svg" viewBox="0 0 15.34 50">
  <g id="Layer_1-2" data-name="Layer 1">
    <g>
      <rect width="15.34" height="50" fill="none"/>
      <g>
        <path d="m7.02,18.08l5.31,1.69c-.76,2.96-1.33,5.91-1.21,9.33.11,3.06,1.47,7.49,2.22,9.37-2.77,2.56-5.99,5.45-9.8,8.01l-3.54-4.52c3.06-1.95,7.09-4.7,9.79-6.99l-.34,2.88c-1.28-1.37-3.55-4.08-3.74-9.5-.13-3.85.45-7.42,1.3-10.27" fill="#1a171b"/>
        <path d="m13.7,15.24l1.64-4.42c-1.39-.85-4.14-1.44-6-1.44s-4.59.4-6.57.9l.68,4.78c1.6-.39,3.63-.69,5.33-.74,1.91-.06,3.75.34,4.91.91" fill="#1a171b"/>
        <path d="m12.58,5.64l-2.08,4.66c-1.04-.85-3.12-1.94-4.71-2.1l1.87-4.68c1.94.2,4.11,1.35,4.92,2.12" fill="#1a171b"/>
      </g>
    </g>
  </g>
</svg>