<?xml version="1.0" encoding="UTF-8"?>
<svg id="Layer_2" data-name="Layer 2" xmlns="http://www.w3.org/2000/svg" viewBox="0 0 13.34 50">
  <g id="Layer_1-2" data-name="Layer 1">
    <g>
      <rect width="13.34" height="50" fill="none"/>
      <g>
        <path d="m7.02,15.81l5.31,1.69c-.76,2.96-1.33,5.91-1.21,9.33.11,3.06,1.47,7.49,2.22,9.37-2.77,2.56-5.99,5.45-9.8,8.01l-3.54-4.52c3.06-1.95,7.09-4.7,9.79-6.99l-.34,2.88c-1.28-1.37-3.55-4.08-3.74-9.5-.13-3.85.45-7.42,1.3-10.27" fill="#1a171b"/>
        <path d="m12.9,8.16l-2.33,5.22c-1.16-.95-3.5-2.17-5.28-2.35l2.1-5.24c2.17.23,4.61,1.51,5.51,2.37" fill="#1a171b"/>
      </g>
    </g>
  </g>
</svg>