<?xml version="1.0" encoding="UTF-8"?>
<svg id="Layer_2" data-name="Layer 2" xmlns="http://www.w3.org/2000/svg" viewBox="0 0 65.41 50">
  <g id="Layer_1-2" data-name="Layer 1">
    <g>
      <rect width="65.41" height="50" fill="none"/>
      <g>
        <path d="m61.29,19.44l-.71,2.83c-1.03-.98-1.82-2.97-1.82-4.72,0-2.27.54-4.49,1.34-6.51l5.31,1.68c-.73,2.12-1.44,5.19-1.44,7.41,0,1.03.16,2.12.57,3.31-2.74,3.2-5.76,5.27-9.25,5.27l.62-7.39c2.35-.02,3.39-.48,5.37-1.88" fill="#3a2780"/>
        <path d="m39.06,28.11c-3.77,2.02-10.85,4.45-17,4.45s-13.03-3.82-18.27-9.34l-3.79,5.4c5.32,6.46,13.9,10.33,21.13,10.33,8.52,0,16.84-3.37,21.39-6.57-1.4-5.22-1.81-12.54-1.96-19.57l-5.9,1.18c.18,4.92.9,9.04,1.51,11.22.45,1.61,1.29,3.62,2.63,5.06l.26-2.17Z" fill="#3a2780"/>
        <path d="m44.63,19.56l-.62,7.19c-1.08,0-3.01-.51-4.3-1.47-.41-2.16-.83-4.31-1.24-6.46,1.65.49,4.01.74,6.16.74" fill="#3a2780"/>
        <path d="m53.54,22.41l-1.24-2.94c.83,1.24,2.37,1.86,3.61,1.86l-.62,7.39c-3.46,0-4.67-3.06-4.67-8.11h-.73c0,4.26-2.58,6.15-5.89,6.15l.62-7.19c2.43,0,3.44-.5,3.8-4.77h5.44l-.32,7.62Z" fill="#3a2780"/>
      </g>
    </g>
  </g>
</svg>