<?xml version="1.0" encoding="UTF-8"?>
<svg id="Layer_2" data-name="Layer 2" xmlns="http://www.w3.org/2000/svg" viewBox="0 0 45.06 50">
  <g id="Layer_1-2" data-name="Layer 1">
    <g>
      <rect width="45.06" height="50" fill="none"/>
      <g>
        <path d="m24.27,27.4l-.62,7.19c-1.08,0-3.01-.51-4.3-1.47-.41-2.16-.83-4.31-1.24-6.46,1.65.49,4.01.74,6.16.74" fill="#1a171b"/>
        <path d="m33.19,30.25l-1.24-2.94c.83,1.24,2.37,1.86,3.61,1.86l-.62,7.39c-3.46,0-4.67-3.06-4.67-8.11h-.73c0,4.26-2.58,6.15-5.89,6.15l.62-7.19c2.43,0,3.44-.5,3.8-4.77h5.44l-.32,7.62Z" fill="#1a171b"/>
        <path d="m40.93,27.28l-.71,2.83c-1.03-.98-1.82-2.97-1.82-4.72,0-2.27.54-4.49,1.34-6.51l5.31,1.68c-.73,2.12-1.44,5.19-1.44,7.41,0,1.03.15,2.12.57,3.31-2.74,3.2-5.76,5.27-9.25,5.27l.62-7.39c2.36-.02,3.39-.48,5.37-1.88" fill="#1a171b"/>
        <path d="m10.91,44.85c3.62,0,8.01-1.12,12.17-4.46-.57-2.22-1.73-7.57-2.29-12.66-.24-2.15-.4-6.05-.41-7.07l-5.59.93c.17,1.43.43,4.04,1,7.93.76,5.17,2.15,7.61,3.86,9.36l.24-2.16c-2.14,1.44-5.08,1.85-8.09,1.85-4.85,0-5.95-1.65-5.95-5.27,0-2.38.33-5.72.95-9.5l-5.99-.87c-.48,4.39-.8,8.75-.8,11.64,0,6.36,2.62,10.27,10.91,10.27" fill="#1a171b"/>
        <path d="m35.33,16.79l1.68-4.53c-1.42-.87-4.25-1.47-6.15-1.47s-4.71.42-6.74.92l.7,4.91c1.64-.4,3.73-.71,5.48-.76,1.96-.06,3.85.35,5.04.94" fill="#1a171b"/>
        <path d="m33.69,7.17l-1.98,4.45c-.99-.81-2.98-1.85-4.5-2l1.79-4.47c1.85.19,3.93,1.28,4.69,2.02" fill="#1a171b"/>
      </g>
    </g>
  </g>
</svg>