<?xml version="1.0" encoding="UTF-8"?>
<svg id="Layer_2" data-name="Layer 2" xmlns="http://www.w3.org/2000/svg" viewBox="0 0 40.99 50">
  <g id="Layer_1-2" data-name="Layer 1">
    <g>
      <rect width="40.99" height="50" fill="none"/>
      <g>
        <path d="m28.28,25.85l-.62,7.39c1.62,0,4.58-.77,5.38-1.44l1.62-6.78c-2.25.65-4.74.84-6.38.84" fill="#1a171b"/>
        <path d="m40.37,33.24l.62-7.39c-.96,0-2.4-.12-3.11-.4-.58-2.69-.4-5.19.03-7.88l-5.35-.82c-.76,2.98-.41,7.43.36,10.35l.84.4c1.55,3.52,4.11,5.74,6.61,5.74" fill="#1a171b"/>
        <path d="m16.76,25.85l-.62,7.39c-1.51,0-3.73-.85-4.65-1.44l-1.48-6.99c1.92.46,3.6,1.04,6.75,1.04" fill="#1a171b"/>
        <path d="m0,33.24l.62-7.39c3.08,0,5.19-.24,6.16-1.76.77-1.21,1.49-4.39,1.86-6.32l4.93,1.54c-2.46,10.56-4.31,13.92-13.57,13.92" fill="#1a171b"/>
        <path d="m25.91,26.94l-1.24-2.94c.83,1.24,2.37,1.86,3.61,1.86l-.62,7.39c-3.46,0-4.67-3.06-4.67-8.11h-.73c0,5.59-1.68,8.11-6.12,8.11l.62-7.39c2.2,0,3.66-1.63,4.08-6.54h5.39l-.32,7.62Z" fill="#1a171b"/>
      </g>
    </g>
  </g>
</svg>