<?xml version="1.0" encoding="UTF-8"?>
<svg id="Layer_2" data-name="Layer 2" xmlns="http://www.w3.org/2000/svg" viewBox="0 0 37.77 50">
  <g id="Layer_1-2" data-name="Layer 1">
    <g>
      <rect width="37.77" height="50" fill="none"/>
      <g>
        <path d="m16.76,33.31l-.62,7.39c-1.51,0-3.73-.85-4.65-1.44l-1.48-6.99c1.92.46,3.61,1.04,6.75,1.04" fill="#1a171b"/>
        <path d="m0,40.7l.62-7.39c3.08,0,5.19-.25,6.16-1.76.77-1.21,1.49-4.39,1.86-6.32l4.93,1.54c-2.45,10.56-4.31,13.92-13.57,13.92" fill="#1a171b"/>
        <path d="m25.91,34.4l-1.24-2.94c.83,1.24,2.37,1.86,3.61,1.86l-.62,7.39c-3.46,0-4.67-3.06-4.67-8.11h-.73c0,5.59-1.68,8.11-6.12,8.11l.62-7.39c2.2,0,3.66-1.63,4.08-6.54h5.39l-.32,7.62Z" fill="#1a171b"/>
        <path d="m33.65,31.43l-.71,2.83c-1.03-.98-1.82-2.97-1.82-4.72,0-2.27.54-4.49,1.34-6.51l5.31,1.68c-.73,2.12-1.44,5.19-1.44,7.41,0,1.03.15,2.12.57,3.31-2.74,3.2-5.76,5.27-9.25,5.27l.62-7.39c2.36-.02,3.39-.48,5.37-1.88" fill="#1a171b"/>
        <path d="m28.04,20.94l1.68-4.53c-1.42-.87-4.25-1.47-6.15-1.47s-4.71.41-6.74.92l.7,4.91c1.64-.4,3.73-.71,5.48-.76,1.96-.06,3.85.35,5.04.94" fill="#1a171b"/>
        <path d="m26.41,11.32l-1.98,4.45c-.99-.81-2.98-1.85-4.5-2l1.79-4.47c1.85.19,3.93,1.28,4.69,2.02" fill="#1a171b"/>
      </g>
    </g>
  </g>
</svg>