<?xml version="1.0" encoding="UTF-8"?>
<svg id="Layer_2" data-name="Layer 2" xmlns="http://www.w3.org/2000/svg" viewBox="0 0 48.27 50">
  <g id="Layer_1-2" data-name="Layer 1">
    <g>
      <rect width="48.27" height="50" fill="none"/>
      <g>
        <path d="m24.27,19.94l-.62,7.19c-1.08,0-3.01-.51-4.3-1.47-.41-2.16-.83-4.31-1.24-6.46,1.65.49,4.01.74,6.16.74" fill="#1a171b"/>
        <path d="m33.19,22.79l-1.24-2.94c.83,1.24,2.37,1.86,3.61,1.86l-.62,7.39c-3.46,0-4.67-3.06-4.67-8.11h-.73c0,4.26-2.58,6.15-5.89,6.15l.62-7.19c2.43,0,3.44-.5,3.8-4.77h5.43l-.32,7.62Z" fill="#1a171b"/>
        <path d="m10.91,37.39c3.62,0,8.01-1.12,12.17-4.46-.57-2.22-1.73-7.57-2.29-12.66-.24-2.15-.4-6.05-.41-7.07l-5.59.93c.17,1.43.43,4.04,1,7.93.76,5.17,2.15,7.61,3.86,9.36l.24-2.16c-2.14,1.44-5.08,1.85-8.09,1.85-4.85,0-5.95-1.65-5.95-5.27,0-2.38.33-5.72.95-9.5l-5.99-.87c-.48,4.39-.8,8.75-.8,11.64,0,6.36,2.62,10.27,10.91,10.27" fill="#1a171b"/>
        <path d="m35.56,21.7l-.62,7.39c1.62,0,4.58-.77,5.38-1.44l1.62-6.78c-2.25.65-4.74.84-6.38.84" fill="#1a171b"/>
        <path d="m47.65,29.09l.62-7.39c-.96,0-2.4-.12-3.11-.4-.58-2.69-.4-5.19.03-7.88l-5.35-.82c-.76,2.98-.41,7.43.36,10.35l.84.4c1.55,3.52,4.11,5.74,6.61,5.74" fill="#1a171b"/>
      </g>
    </g>
  </g>
</svg>