<?xml version="1.0" encoding="UTF-8"?>
<svg id="Layer_2" data-name="Layer 2" xmlns="http://www.w3.org/2000/svg" viewBox="0 0 35.48 50">
  <g id="Layer_1-2" data-name="Layer 1">
    <g>
      <rect width="35.48" height="50" fill="none"/>
      <g>
        <path d="m10.62,28.43l-1.54-2.81c2.41,2.03,5.52,3.12,9.71,3.12l-.46,6.51c-6.85,0-11.24-1.89-11.24-8.88l-.65-.1c-.51,5.57-2.96,8.11-6.42,8.11l.62-7.39c2.58,0,3.67-2.14,4.03-6.54l6.1.6-.13,7.37Z" fill="#1a171b"/>
        <path d="m31.64,26.63c-3.44.97-10.34,2.12-12.86,2.12l-.46,6.51c7.46,0,14.19-1.69,17.16-7.02-.86-2.73-1.54-4.79-2.64-7.42-2.21-5.31-4.52-5.93-7.77-6.07-4.45,2-9.31,6.74-11.38,10.16l1.59,4.52.81.1c2.12-3.11,8.7-8.77,11.83-10.26l-2.3-.33c1.15,2.75,3.26,7.68,5.31,8.99l.7-1.29Z" fill="#1a171b"/>
      </g>
    </g>
  </g>
</svg>