<?xml version="1.0" encoding="UTF-8"?>
<svg id="Layer_2" data-name="Layer 2" xmlns="http://www.w3.org/2000/svg" viewBox="0 0 68.63 50">
  <g id="Layer_1-2" data-name="Layer 1">
    <g>
      <rect width="68.63" height="50" fill="none"/>
      <g>
        <path d="m39.06,34.98c-3.77,2.02-10.85,4.45-17,4.45s-13.03-3.82-18.27-9.34l-3.79,5.4c5.32,6.46,13.9,10.33,21.13,10.33,8.52,0,16.84-3.37,21.39-6.57-1.4-5.22-1.81-12.54-1.96-19.57l-5.9,1.18c.18,4.92.9,9.04,1.51,11.22.45,1.61,1.29,3.62,2.64,5.06l.26-2.17Z" fill="#3a2780"/>
        <path d="m44.63,26.42l-.62,7.19c-1.08,0-3.01-.51-4.3-1.47-.41-2.16-.83-4.31-1.24-6.46,1.65.49,4.01.74,6.16.74" fill="#3a2780"/>
        <path d="m53.55,29.27l-1.24-2.94c.83,1.24,2.37,1.86,3.61,1.86l-.62,7.39c-3.46,0-4.67-3.06-4.67-8.11h-.73c0,4.26-2.58,6.15-5.89,6.15l.62-7.19c2.43,0,3.44-.5,3.8-4.77h5.43l-.32,7.62Z" fill="#3a2780"/>
        <path d="m55.92,28.18l-.62,7.39c1.62,0,4.58-.77,5.38-1.44l1.62-6.78c-2.25.65-4.74.84-6.38.84" fill="#3a2780"/>
        <path d="m68.01,35.57l.62-7.39c-.96,0-2.4-.12-3.11-.4-.27-1.28-.39-2.47-.36-4.04.03-1.34.16-3.04.39-4.5l-5.35-.82c-.29,1.14-.41,2.55-.42,4.02-.01,2.61.35,5.37.78,6.99l.84.4c1.55,3.52,4.11,5.74,6.61,5.74" fill="#3a2780"/>
        <path d="m55.68,15.81l1.68-4.53c-1.42-.87-4.25-1.47-6.15-1.47s-4.71.41-6.74.92l.7,4.91c1.64-.4,3.73-.71,5.48-.76,1.96-.06,3.85.35,5.04.94" fill="#3a2780"/>
        <path d="m54.05,6.19l-1.98,4.45c-.99-.81-2.98-1.85-4.5-2l1.79-4.47c1.85.19,3.93,1.28,4.69,2.02" fill="#3a2780"/>
      </g>
    </g>
  </g>
</svg>