<?xml version="1.0" encoding="UTF-8"?>
<svg id="Layer_2" data-name="Layer 2" xmlns="http://www.w3.org/2000/svg" viewBox="0 0 45.07 50">
  <g id="Layer_1-2" data-name="Layer 1">
    <g>
      <rect width="45.07" height="50" fill="none"/>
      <g>
        <path d="m28.37,25.09c-4.06,0-6.91-1.05-9.31-3.5v6.62c2.52,2.22,5.85,3.39,8.84,3.39l.47-6.51Z" fill="#1a171b"/>
        <path d="m41.23,22.97c-3.44.97-10.34,2.12-12.86,2.12l-.46,6.51c7.46,0,14.19-1.69,17.16-7.02-.86-2.73-1.54-4.79-2.64-7.42-2.21-5.31-4.52-5.93-7.77-6.07-4.45,2-9.31,6.74-11.38,10.16l1.6,4.52.81.1c2.12-3.11,8.7-8.77,11.83-10.26l-2.3-.33c1.15,2.75,3.26,7.68,5.31,8.99l.7-1.29Z" fill="#1a171b"/>
        <path d="m10.91,38.92c3.62,0,8.01-1.12,12.17-4.46-.57-2.22-1.73-7.57-2.3-12.66-.24-2.15-.4-6.05-.41-7.07l-5.59.93c.17,1.43.43,4.04,1,7.93.76,5.17,2.15,7.61,3.86,9.36l.23-2.16c-2.14,1.44-5.07,1.85-8.09,1.85-4.85,0-6.12-1.65-6.12-5.27,0-2.38.33-5.72.95-9.5l-5.82-.87c-.48,4.39-.8,8.75-.8,11.64,0,6.36,2.62,10.27,10.91,10.27" fill="#1a171b"/>
      </g>
    </g>
  </g>
</svg>