<?xml version="1.0" encoding="UTF-8"?>
<svg id="Layer_2" data-name="Layer 2" xmlns="http://www.w3.org/2000/svg" viewBox="0 0 19.7 50">
  <g id="Layer_1-2" data-name="Layer 1">
    <g>
      <rect width="19.7" height="50" fill="none"/>
      <g>
        <path d="m12.09,33.82l-1.29-1.86c1.19.78,3,1.24,4.91,1.24l-.62,7.39c-5.53,0-7.75-3.1-7.75-10.95,0-3.95.15-7.69.77-11.67l5.14.8c-1.03,6.41-1.17,12.78-1.17,15.05" fill="#1a171b"/>
        <path d="m0,17.06c.64-5.09,1.83-7.07,5.65-7.65,1.37.14,4.54.51,6.52.51,1.77,0,4.98-.17,6.94-.51l.58,5.07c-2.64.48-5.46.75-8.23.7-1.98-.04-5.4-.58-7.79-1.37l1.81-1.52c-.52,1.48-.8,3.51-.98,5.54l-4.51-.77Z" fill="#1a171b"/>
      </g>
    </g>
  </g>
</svg>