<?xml version="1.0" encoding="UTF-8"?>
<svg id="Layer_2" data-name="Layer 2" xmlns="http://www.w3.org/2000/svg" viewBox="0 0 47.76 50">
  <g id="Layer_1-2" data-name="Layer 1">
    <g>
      <rect width="47.76" height="50" fill="none"/>
      <g>
        <path d="m28.37,27.81c-4.06,0-6.92-1.05-9.31-3.5v6.62c2.52,2.22,5.85,3.39,8.84,3.39l.47-6.51Z" fill="#1a171b"/>
        <path d="m41.23,25.69c-2.58.67-9.6,2.12-12.86,2.12l-.46,6.51c3.41,0,8.58-.52,11.51-1.91l2.9-4.87-1.08-1.84Z" fill="#1a171b"/>
        <path d="m35.47,17.99c1.76,4.53,3.49,7.61,5.29,9.08l-.02.73c1.66,2.66,4.45,5.65,6.4,5.65l.62-7.39c-1.55,0-1.96-.05-2.86-.35-.71-1.82-1.57-4.3-2.21-5.83-1.98-4.74-4.18-6.07-7.77-6.07-4.19,2.03-8.17,5.42-11.38,10.16l1.59,4.52.81.1c2.54-3.49,8.11-8.13,11.83-10.26l-2.3-.33Z" fill="#1a171b"/>
        <path d="m28.82,10.73l-2.33,5.22c-1.16-.95-3.5-2.17-5.28-2.35l2.1-5.24c2.17.23,4.61,1.51,5.51,2.37" fill="#1a171b"/>
        <path d="m10.91,41.64c3.62,0,8.01-1.12,12.17-4.46-.57-2.22-1.73-7.57-2.29-12.66-.24-2.15-.4-6.05-.41-7.07l-5.59.93c.17,1.43.43,4.04,1,7.93.76,5.17,2.15,7.61,3.86,9.36l.24-2.16c-2.14,1.44-5.07,1.85-8.09,1.85-4.85,0-6.12-1.65-6.12-5.27,0-2.38.33-5.72.95-9.5l-5.82-.87c-.48,4.39-.8,8.75-.8,11.64,0,6.36,2.62,10.27,10.91,10.27" fill="#1a171b"/>
      </g>
    </g>
  </g>
</svg>