<?xml version="1.0" encoding="UTF-8"?>
<svg id="Layer_2" data-name="Layer 2" xmlns="http://www.w3.org/2000/svg" viewBox="0 0 38.17 50">
  <g id="Layer_1-2" data-name="Layer 1">
    <g>
      <rect width="38.17" height="50" fill="none"/>
      <g>
        <path d="m10.62,30.95l-1.54-2.81c2.41,2.03,5.52,3.12,9.71,3.12l-.46,6.51c-6.85,0-11.24-1.89-11.24-8.88l-.65-.1c-.51,5.57-2.96,8.11-6.42,8.11l.62-7.39c2.58,0,3.67-2.14,4.03-6.54l6.1.6-.13,7.37Z" fill="#1a171b"/>
        <path d="m18.44,14.59l-2.33,5.22c-1.16-.95-3.5-2.17-5.28-2.35l2.1-5.24c2.17.23,4.61,1.51,5.51,2.37" fill="#1a171b"/>
        <path d="m31.64,29.15c-2.58.67-9.6,2.12-12.86,2.12l-.46,6.51c3.41,0,8.97-.69,12.1-1.91l2.3-4.87-1.08-1.84Z" fill="#1a171b"/>
        <path d="m25.88,21.45c1.76,4.53,3.49,7.61,5.29,9.08l-.02.73c1.66,2.66,4.45,5.65,6.4,5.65l.62-7.39c-1.55,0-1.96-.05-2.86-.35-.71-1.82-1.57-4.3-2.21-5.83-1.98-4.74-4.18-6.07-7.77-6.07-4.19,2.03-8.17,5.42-11.38,10.16l1.59,4.52.81.1c2.54-3.49,8.11-8.13,11.83-10.26l-2.3-.33Z" fill="#1a171b"/>
      </g>
    </g>
  </g>
</svg>