<?xml version="1.0" encoding="UTF-8"?>
<svg id="Layer_2" data-name="Layer 2" xmlns="http://www.w3.org/2000/svg" viewBox="0 0 31.93 50">
  <g id="Layer_1-2" data-name="Layer 1">
    <g>
      <rect width="31.93" height="50" fill="none"/>
      <g>
        <path d="m29.12,33.99c-4.04,4.13-10.9,5.99-18.64,5.99l-2.22-6.25c6.18.14,14.23-1.89,17.06-3.6l3.8,3.86Z" fill="#1a171b"/>
        <path d="m18.82,18.99c4.02-.26,6.01,2.31,7.55,6.27.98,2.51,1.87,4.22,2.84,6.07.93.34,1.68.4,2.72.4l-.62,7.39c-2.71,0-5.74-3.31-7.51-7.65-.73-.82-1.41-1.8-1.83-2.59-.99-1.87-1.64-3.44-2.6-5.7l2.3.33c-5.24,4.13-11.5,10.71-16.51,16.57l-5.17-3.67c3.01-3.83,5.83-8.89,5.83-12.81,0-3.67-.35-7.21-1.21-12.51l5.83-1.17c.43,3.05.7,7.64.7,11.09,0,2.55-.9,4.71-2.86,7.65l.59.45c3.43-4.46,6.59-8.6,9.93-10.12" fill="#1a171b"/>
      </g>
    </g>
  </g>
</svg>