<?xml version="1.0" encoding="UTF-8"?>
<svg id="Layer_2" data-name="Layer 2" xmlns="http://www.w3.org/2000/svg" viewBox="0 0 19.7 50">
  <g id="Layer_1-2" data-name="Layer 1">
    <g>
      <rect width="19.7" height="50" fill="none"/>
      <g>
        <path d="m8.07,24.21c-.2,4.93-.09,10.21,1.53,16.32l4.47-.72c-.88-4.67-1.27-9.13-.93-14.19.13-1.98.37-4.73.69-7.13l-5.31-.7c-.21,2.15-.38,4.44-.46,6.42" fill="#1a171b"/>
        <path d="m0,17.12c.64-5.09,1.83-7.07,5.65-7.65,1.37.14,4.54.51,6.52.51,1.77,0,4.98-.17,6.94-.51l.58,5.07c-2.64.48-5.46.75-8.23.7-1.98-.04-5.4-.58-7.79-1.37l1.81-1.52c-.52,1.48-.8,3.51-.98,5.54l-4.51-.77Z" fill="#1a171b"/>
      </g>
    </g>
  </g>
</svg>