<?xml version="1.0" encoding="UTF-8"?>
<svg id="Layer_2" data-name="Layer 2" xmlns="http://www.w3.org/2000/svg" viewBox="0 0 32.23 50">
  <g id="Layer_1-2" data-name="Layer 1">
    <g>
      <rect width="32.23" height="50" fill="none"/>
      <g>
        <path d="m29.42,34.04c-4.04,4.13-10.9,5.99-18.64,5.99l-2.22-6.25c6.18.15,14.23-1.9,17.06-3.61l3.8,3.86Z" fill="#1a171b"/>
        <path d="m19.12,19.04c4.02-.26,6,2.31,7.55,6.27.98,2.51,1.87,4.22,2.84,6.07.92.34,1.68.4,2.72.4l-.62,7.39c-2.71,0-5.74-3.31-7.51-7.65-.73-.82-1.41-1.8-1.83-2.59-.99-1.87-1.64-3.44-2.6-5.7l2.3.33c-2.32,1.91-9.22,8-11.96,11.23-3.04,3.58-4.62,4.37-10,4.37l.62-7.39c4.03-.13,5.51-4.8,5.51-8.13,0-3.67-.35-7.21-1.21-12.51l5.83-1.17c.43,3.05.7,7.64.7,11.09,0,2.55-.9,4.71-2.86,7.65l.59.45c3.43-4.46,6.59-8.6,9.93-10.12" fill="#1a171b"/>
      </g>
    </g>
  </g>
</svg>