<?xml version="1.0" encoding="UTF-8"?>
<svg id="Layer_2" data-name="Layer 2" xmlns="http://www.w3.org/2000/svg" viewBox="0 0 29.36 50">
  <g id="Layer_1-2" data-name="Layer 1">
    <g>
      <rect width="29.36" height="50" fill="none"/>
      <path d="m21.67,23.51c-5.24,4.12-11.5,10.71-16.5,16.57l-5.16-3.66c3.11-4.05,5.83-8.89,5.83-12.82,0-3.67-.35-7.21-1.21-12.51l5.83-1.17c.43,3.05.7,7.64.7,11.09,0,2.55-.9,4.71-2.86,7.65l.59.45c3.43-4.46,6.59-8.6,9.93-10.12,4.02-.26,6.17,2.3,7.71,6.27,1.03,2.64,2,6.44,2.83,8.72-4.03,4.12-11.15,6-18.88,6l-2.22-6.25c6.18.15,14.22-1.91,17.05-3.61l.71,3c-1.21-.18-3.19-2.62-4.06-4.25-1-1.86-1.64-3.44-2.6-5.7l2.3.33Z" fill="#1a171b"/>
    </g>
  </g>
</svg>