<?xml version="1.0" encoding="UTF-8"?>
<svg id="Layer_2" data-name="Layer 2" xmlns="http://www.w3.org/2000/svg" viewBox="0 0 29.67 50">
  <g id="Layer_1-2" data-name="Layer 1">
    <g>
      <rect width="29.67" height="50" fill="none"/>
      <g>
        <path d="m21.23,11.21l-2.33,5.23c-1.16-.95-3.5-2.17-5.28-2.35l2.1-5.24c2.17.23,4.61,1.51,5.51,2.37" fill="#1a171b"/>
        <path d="m19.12,20.16c4.02-.26,6.01,2.3,7.55,6.27,1.03,2.64,2.17,6.44,3,8.73-4.04,4.13-11.15,5.99-18.89,5.99l-2.22-6.25c6.18.15,14.23-1.9,17.06-3.6l.71,3.01c-1.22-.18-3.19-2.62-4.06-4.25-.99-1.87-1.64-3.44-2.6-5.7l2.3.33c-2.32,1.91-9.22,8-11.96,11.23-3.04,3.58-4.62,4.37-10.01,4.37l.62-7.39c4.03-.13,5.51-4.8,5.51-8.13,0-3.67-.35-7.21-1.21-12.51l5.83-1.17c.43,3.05.7,7.64.7,11.09,0,2.55-.9,4.71-2.86,7.65l.59.45c3.43-4.46,6.59-8.6,9.93-10.12" fill="#1a171b"/>
      </g>
    </g>
  </g>
</svg>