<?xml version="1.0" encoding="UTF-8"?>
<svg id="Layer_2" data-name="Layer 2" xmlns="http://www.w3.org/2000/svg" viewBox="0 0 67.94 50">
  <g id="Layer_1-2" data-name="Layer 1">
    <g>
      <rect width="67.94" height="50" fill="none"/>
      <g>
        <path d="m61.41,24.71c-2.58.67-9.6,2.12-12.86,2.12l-.46,6.51c3.41,0,8.58-.52,11.51-1.91l2.9-4.87-1.08-1.84Z" fill="#3a2780"/>
        <path d="m55.65,17.02c1.76,4.53,3.49,7.61,5.29,9.08l-.02.73c1.66,2.66,4.45,5.65,6.4,5.65l.62-7.39c-1.55,0-1.96-.05-2.86-.35-.71-1.82-1.57-4.3-2.21-5.83-1.98-4.74-4.18-6.07-7.77-6.07-4.19,2.03-8.17,5.42-11.38,10.16l1.59,4.52.81.1c2.54-3.49,8.11-8.13,11.83-10.26l-2.3-.33Z" fill="#3a2780"/>
        <path d="m48.55,26.83c-4.06,0-6.92-1.05-9.31-3.5v6.62c2.52,2.22,5.85,3.39,8.84,3.39l.47-6.51Z" fill="#3a2780"/>
        <path d="m39.06,31.76c-3.77,2.02-10.85,4.45-17,4.45s-13.03-3.82-18.27-9.34l-3.79,5.4c5.32,6.46,13.9,10.33,21.13,10.33,8.52,0,16.84-3.37,21.39-6.57-1.4-5.22-1.81-12.55-1.96-19.57l-5.9,1.18c.18,4.92.9,9.04,1.51,11.22.45,1.61,1.29,3.62,2.64,5.06l.26-2.17Z" fill="#3a2780"/>
        <path d="m49,9.76l-2.33,5.22c-1.16-.95-3.5-2.17-5.28-2.35l2.1-5.24c2.17.23,4.61,1.51,5.51,2.37" fill="#3a2780"/>
      </g>
    </g>
  </g>
</svg>