<?xml version="1.0" encoding="UTF-8"?>
<svg id="Layer_2" data-name="Layer 2" xmlns="http://www.w3.org/2000/svg" viewBox="0 0 65.25 50">
  <g id="Layer_1-2" data-name="Layer 1">
    <g>
      <rect width="65.25" height="50" fill="none"/>
      <g>
        <path d="m48.55,26.83c-4.06,0-6.91-1.05-9.31-3.5v6.62c2.52,2.22,5.85,3.39,8.84,3.39l.47-6.51Z" fill="#3a2780"/>
        <path d="m61.41,24.71c-3.44.97-10.34,2.12-12.86,2.12l-.46,6.51c7.46,0,14.19-1.69,17.16-7.02-.86-2.73-1.54-4.79-2.64-7.42-2.21-5.31-4.52-5.93-7.77-6.07-4.45,2-9.31,6.74-11.38,10.16l1.59,4.52.81.1c2.12-3.11,8.7-8.77,11.83-10.26l-2.3-.33c1.15,2.75,3.26,7.68,5.31,8.99l.7-1.29Z" fill="#3a2780"/>
        <path d="m39.06,31.76c-3.77,2.02-10.85,4.45-17,4.45s-13.03-3.82-18.27-9.34l-3.79,5.4c5.32,6.46,13.9,10.33,21.13,10.33,8.53,0,16.84-3.37,21.39-6.57-1.4-5.22-1.81-12.55-1.96-19.57l-5.9,1.18c.18,4.92.9,9.04,1.51,11.22.45,1.61,1.29,3.62,2.64,5.06l.26-2.17Z" fill="#3a2780"/>
        <path d="m49,9.76l-2.33,5.22c-1.16-.95-3.5-2.17-5.28-2.35l2.1-5.24c2.17.23,4.61,1.51,5.51,2.37" fill="#3a2780"/>
      </g>
    </g>
  </g>
</svg>