<?xml version="1.0" encoding="UTF-8"?>
<svg id="Layer_2" data-name="Layer 2" xmlns="http://www.w3.org/2000/svg" viewBox="0 0 23.43 50">
  <g id="Layer_1-2" data-name="Layer 1">
    <g>
      <rect width="23.43" height="50" fill="none"/>
      <g>
        <path d="m23.43,20.91l-.62,7.39c-3.82,0-12.66-3-16.22-5.53,0-1.55-1.14-4.77-2.38-7.2l4.28-3.5c1.34,2.58,2.22,5.54,2.12,8.07l-1.14-1.39c4.84,2.02,8.78,2.17,13.96,2.17" fill="#1a171b"/>
        <path d="m19.76,8.49l2.63,4.81c-.88,3.05-3.51,7.2-6.35,10.66l-3.72-2.95c1.86-1.5,4.35-5.91,4.92-8.85l2.12,2.42c-2.17-1.29-5.23-1.64-8.58-1.64-2.27,0-6.1.47-8.16,1.01l-1.03-5.62c2.42-.5,6.61-1.02,9.92-1.02,2.7,0,5.7.33,8.27,1.19" fill="#1a171b"/>
        <path d="m14,24.15c-2.44,1.31-7.79,3-11.06,3l3.62-1.74c-.49,1.21-1.4,2.58-1.4,5.5.07,3.36.43,5.89,9.61,5.89,3.07,0,5.52-.45,8.07-.86l-.64,5.97c-2.04.41-5.65.79-8.62.79-9.53,0-13.57-3.02-13.57-10.85,0-2.99.99-7.08,3.64-9.48,2.43-.38,5.93-1.7,7.13-2.07l3.22,3.86Z" fill="#1a171b"/>
      </g>
    </g>
  </g>
</svg>