<?xml version="1.0" encoding="UTF-8"?>
<svg id="Layer_2" data-name="Layer 2" xmlns="http://www.w3.org/2000/svg" viewBox="0 0 20.2 50">
  <g id="Layer_1-2" data-name="Layer 1">
    <g>
      <rect width="20.2" height="50" fill="none"/>
      <g>
        <path d="m20.2,28.66l-1.29,6.3c-2.32,0-7.65-1.7-9.92-2.93l1.5.25c-3.31,2.58-6.61,3.77-10.49,3.77l.62-7.39c5.09,0,6.58-.49,8.16-1.9,3.84,1.1,7.42,1.9,11.42,1.9" fill="#1a171b"/>
        <path d="m8.24,20.64c.49,1.29.7,4.15.7,5.39,0,1.65-.26,3.15-.88,4.96l-4.7-4.14c.26-1.08.46-3.14.46-4.12,0-1.45-.26-3.88-.57-5.37,3.6-.92,8.66-2.48,11.53-3.4,2.21.39,4.85,3.64,5.31,7.23l-4.91,2.07c-.26-.78-1.19-2.64-1.86-3.62l1.09.07c-1.57.8-4.18,1.71-6.52,2.31l.34-1.36Z" fill="#1a171b"/>
      </g>
    </g>
  </g>
</svg>