<?xml version="1.0" encoding="UTF-8"?>
<svg id="Layer_2" data-name="Layer 2" xmlns="http://www.w3.org/2000/svg" viewBox="0 0 22.83 50">
  <g id="Layer_1-2" data-name="Layer 1">
    <g>
      <rect width="22.83" height="50" fill="none"/>
      <g>
        <path d="m8.72,24.04c4.24,1.29,8.16,2.16,12.04,2.16l-1.29,6.3c-2.63-.05-8.58-2.06-10.75-3.5v-4.96Z" fill="#1a171b"/>
        <path d="m8.85,18.07c.49,1.29.7,4.15.7,5.39,0,1.65-.26,3.15-.88,4.96l-4.7-4.14c.26-1.08.47-3.14.47-4.12,0-1.45-.26-3.88-.57-5.37,3.6-.92,8.67-2.48,11.53-3.4,2.21.39,4.85,3.64,5.31,7.23l-4.91,2.07c-.26-.78-1.19-2.64-1.86-3.62l1.09.07c-1.57.8-4.18,1.71-6.52,2.31l.34-1.36Z" fill="#1a171b"/>
        <path d="m14,29.83c-2.44,1.31-7.79,3-11.06,3l3.61-1.74c-.49,1.21-1.4,2.58-1.4,5.5.07,3.36.43,5.89,9.61,5.89,3.07,0,5.52-.45,8.07-.86l-.64,5.97c-2.04.41-5.65.79-8.62.79-9.53,0-13.57-3.02-13.57-10.85,0-2.99.99-7.08,3.64-9.48,2.43-.38,5.93-1.7,7.13-2.07l3.22,3.86Z" fill="#1a171b"/>
        <path d="m13.94,4l-2.33,5.23c-1.16-.95-3.5-2.17-5.28-2.35l2.1-5.24c2.17.23,4.61,1.51,5.51,2.37" fill="#1a171b"/>
      </g>
    </g>
  </g>
</svg>