<?xml version="1.0" encoding="UTF-8"?>
<svg id="Layer_2" data-name="Layer 2" xmlns="http://www.w3.org/2000/svg" viewBox="0 0 23.56 50">
  <g id="Layer_1-2" data-name="Layer 1">
    <g>
      <rect width="23.56" height="50" fill="none"/>
      <g>
        <path d="m9.97,27.56l1.91,2.74c-2.38,2.69-8.06,5.12-11.88,5.12l.62-7.39c2.68,0,6.75-.01,9.35-.47" fill="#1a171b"/>
        <path d="m9.6,25.86c4.08,1.71,7.09,2.17,13.96,2.17l-.62,7.39c-3.82,0-12.66-3-16.22-5.53,0-1.55-1.14-4.77-2.38-7.2l4.28-3.5c1.34,2.58,2.22,5.53,2.12,8.07l-1.14-1.4Z" fill="#1a171b"/>
        <path d="m19.89,15.77l2.63,4.81c-.88,3.05-3.51,7.2-6.35,10.66l-3.72-2.95c1.86-1.5,4.35-5.91,4.92-8.85l2.12,2.42c-2.17-1.29-5.23-1.64-8.58-1.64-2.27,0-6.1.47-8.16,1.01l-1.03-5.62c2.42-.5,6.61-1.02,9.92-1.02,2.7,0,5.7.33,8.27,1.19" fill="#1a171b"/>
      </g>
    </g>
  </g>
</svg>